<svg id="Layer_1" data-name="Layer 1" xmlns="http://www.w3.org/2000/svg" viewBox="0 0 1080 1080"><defs><style>.cls-1{fill:#abacac;}</style></defs><path class="cls-1" d="M965.42,77.14c0-8.79-.31-17.76-4.23-26-15.43-32.36-40.35-51-76.87-51Q538.49-.17,192.68,0c-5,0-10,.15-14.82,1.48-35,9.63-58.64,29.88-63.6,67.7v505c1,16.09,7.55,29.64,18.44,41.49,17.57,19.1,39.16,27.79,65,27.78q341.67-.21,683.34-.08c2.76,0,5.53,0,8.3-.09,39.44-1.21,76.52-36.69,76.38-77.08C965.19,403.17,965.54,240.15,965.42,77.14ZM199.06,55.94q148.63,0,297.28,0,191.4,0,382.81,0c4.9,0,9.91-.58,15.1,2.63l-200.77,174q-73.71,63.89-147.26,127.94c-5.4,4.73-8.33,4.36-13.47-.11Q359.85,210.11,186.65,60.15c-.41-.36-.74-.79-1.5-1.61C189.45,55.28,194.36,56,199.06,55.94Zm712.49,68.34V554.37c0,23.48-9.68,33.09-33.32,33.09H200.72c-23.54,0-33.31-9.71-33.31-33.11V114.44c15.52,13.39,29.85,25.72,44.14,38.1q152.4,132.09,304.79,264.2c18.4,15.94,28.54,15.53,47.6-1Q735.1,267.26,906.32,118.88c1.25-1.08,2.56-2.08,5.23-4.24Z"/><path class="cls-1" d="M859.49,867.47A106.41,106.41,0,0,0,757.8,942.9H641.7A106.72,106.72,0,0,0,570.86,872V643.44H509.17V872A106.7,106.7,0,0,0,438.3,942.9H322.22a106.26,106.26,0,1,0,0,61.69H438.3a106.28,106.28,0,0,0,203.4,0H757.8A106.26,106.26,0,1,0,859.49,867.47ZM220.54,1018.31a44.58,44.58,0,1,1,44.56-44.56A44.58,44.58,0,0,1,220.54,1018.31Zm319.47,0a44.58,44.58,0,1,1,44.57-44.56A44.59,44.59,0,0,1,540,1018.31Zm319.48,0a44.58,44.58,0,1,1,44.56-44.56A44.56,44.56,0,0,1,859.49,1018.31Z"/></svg>