<svg id="Layer_1" data-name="Layer 1" xmlns="http://www.w3.org/2000/svg" viewBox="0 0 1080 1080"><defs><style>.cls-1{fill:#abacac;}.cls-2{fill:#fff;}</style></defs><path class="cls-1" d="M0,775.68V683.22c5.89-18,13.75-23.68,33.43-23.79,27.41-.16,54.82,0,82.23-.06,15,0,15.45-.41,15.46-15.24,0-69.17-1.52-138.39.4-207.51,2.5-90.23.22-180.44,1.74-270.64.31-18.18.52-36.5,2.3-54.59C140.81,58,189.69,14.15,243.61,14.12q287.79-.16,575.57.07c14.45,0,28.73-2,43.35-.46,47.39,5,79.61,30,99.56,72.24,4.4,9.31,3.94,19.53,5.85,29.31V273.77c-5.88,17.94-13.76,23.68-33.46,23.75-39.38.14-78.76,0-118.14.06-13.29,0-13.59.3-13.6,13.88,0,150.61.4,301.22-.22,451.83-.23,57.08-26.26,100.72-75.65,129.65C707.38,904.35,686,910.84,663,910.83q-250.89-.11-501.78.22c-23.19.06-45.94-.1-67.91-8.37C48.85,885.94,19.9,854.17,4,810.06c-2.65-7.36-3-15.37-3-23.24C.51,783.12,2,779.25,0,775.68Z"/><path class="cls-2" d="M752.24,77.63C736.54,104.4,739,133.23,739,161.7q0,298.11,0,596.22c0,34.16-12.19,62.07-43,79.17-55.28,30.65-121.78-7.83-123.19-71.09-.51-22.63-.1-45.28-.13-67.92,0-24.89-11.33-36.36-36.26-36.37q-165.4-.08-330.82.19c-8.91,0-11.43-1.78-11.35-11.12q2.34-260.35,3.65-520.72C198,99.81,220.72,76.88,250.09,77q248.12.55,496.23.19C747.83,77.14,749.33,77.38,752.24,77.63Z"/><path class="cls-2" d="M538,847.79h-9.4q-189,0-377.91.1c-21.41,0-41-4.26-58.13-17.77-21.14-16.69-31.05-38.83-32-65.24-.44-11.93.2-23.89-.21-35.82-.19-5.47,1.6-7.21,6.87-6.65,3.73.4,7.55.07,11.32.07q211.17,0,422.32-.27c9.95,0,11.64,2.85,11.51,11.92-.35,24.08-1.92,48.32,5.53,71.92C522.42,820.42,529.11,833.69,538,847.79Z"/><path class="cls-2" d="M799.59,177.56c0-15.71-.21-31.41,0-47.11a54.32,54.32,0,0,1,50.53-53.26c25.32-1.82,55.6,17.07,56.91,50.44,1.32,33.87.3,67.83.5,101.75,0,4.23-1.44,5.22-5.42,5.2-32.41-.13-64.83-.18-97.24,0-5.06,0-5.45-2.17-5.41-6.18C799.66,211.48,799.57,194.52,799.59,177.56Z"/><path class="cls-1" d="M461.26,544.22q81.19,0,162.41,0c20.45,0,33.28,10.55,34.89,28a29.48,29.48,0,0,1-24.47,31.81,67.37,67.37,0,0,1-11.25,1q-162.42.07-324.83,0c-21.33,0-34.3-10.3-35.79-28a29.34,29.34,0,0,1,24.43-31.81,76.93,76.93,0,0,1,13.14-1Q380.52,544.17,461.26,544.22Z"/><path class="cls-1" d="M460.59,424.34c55.09,0,110.17-.14,165.26.07,22.41.09,36,15.88,32.13,36.33-2.41,12.64-13.26,22.34-26.92,23.94a65.35,65.35,0,0,1-7.54.22q-163.36,0-326.73,0c-18.51,0-31.49-9.44-34.1-24.57-3.53-20.34,9.74-35.75,31.71-35.9,40.92-.27,81.84-.08,122.76-.08Z"/><path class="cls-1" d="M460.54,364.31c-56,0-112.06.08-168.09-.05-15.78,0-27.94-10.77-29.95-25.71-2.13-15.73,6.8-29.31,22.19-33.55a29.06,29.06,0,0,1,7.43-.95q168.09-.06,336.18,0c16.19,0,28.19,11,30.09,26.69a29.57,29.57,0,0,1-22.34,32.58c-3.87,1-8.08.95-12.14.95Q542.22,364.37,460.54,364.31Z"/><path class="cls-1" d="M369,243.74c-26.45,0-52.92.37-79.36-.15-13.74-.28-24.58-10.5-26.95-23.43-2.63-14.4,3.91-27.52,16.72-33.52a34,34,0,0,1,14.6-3.19c50.72,0,101.44-.18,152.15.08,18.57.09,31.87,13.17,32,30.21S465.23,243.69,446.52,244c-25.82.35-51.66.09-77.49.09Z"/><path class="cls-1" d="M887.93,717.81c-2.18,1.57-5.23.26-7.36,2.67-6.94,7.86-16.86,12.13-24.18,19.53-3.64,3.69-7.58,3.66-11.3,1.13-11.66-7.95-24.66-12.53-38.18-15.89-4.35-1.08-6.58-3.35-6.88-8.08-.41-6.32-1.5-12.6-2.3-18.9,1.41-17.34-3.4-23.45-18.21-19.81l-2.08,0c-3.52-.41-7.05-1-10.57,0-3.7,1.25-7.33-.41-11-.28-8.5.32-11,2.37-11.94,10.74-1,8.73-2.3,17.46-2.82,26.23-.37,6.15-2.93,8.9-8.94,10.47-13.49,3.52-26.69,8-38,16.72-5.64,3.32-8.71-.74-12-4.15-7.52-8.33-17.33-13.76-26.12-20.47-2.24,1-5,1.5-6.63,3.09-8.93,8.56-17.74,17.27-26.29,26.2-3.14,3.28-2.38,6.65.58,10.43,6.24,8,12,16.24,18.86,23.78,3.81,4.22,4.38,8.7-.08,13.07a10.9,10.9,0,0,0-2.59,3.58c-4.64,11.75-10,23.23-13,35.56-.34,2.61-1.69,4.18-4.44,4.29-10.56,1.27-21.1,2.79-31.7,3.7-7.16.61-9.9,4.44-9.89,11.06,0,2.44.18,4.87.27,7.31-.21,4.92-.59,9.83,0,14.74,0,1.71.1,3.41.1,5.12,0,11.45,1.48,13.3,12.41,14.71,8.66,1.11,17.31,2.42,26,3.08,5.1.38,6.83,2.83,8.28,7.43,4.07,12.93,6.91,26.51,16.43,37.07-.16,2.41,2.69,3.81,2.17,6.35-.14,3.07-3.77,3.78-4.42,6.5-7.05,6.38-10.77,15.41-17.53,22,.23,2.58-2.39,4-2.57,6.46-1.45,1.74-.67,3.21.64,4.52,9,9.1,18.07,18.23,27.23,27.22,2.59,2.54,5.35,2.41,8.63.34,7.56-4.76,14.14-10.64,20.91-16.39,10.46-8.87,12.7-8.62,23.07.68,1.85.23,3.4,1.53,5.31,1.54,9.23,4,18.42,8,28.49,9.43,2.54.22,4.24,1.33,4.34,4.13.45,11.64,3.61,23,3.23,34.77,1.39,4.17,3.83,7.27,8.38,8.22a185.24,185.24,0,0,1,35.71,0c6.11-1.82,9-6,8.75-12.3,1.07-10.2,3.25-20.28,3-30.61-.17-2.89,1.33-4.19,4.09-4.27a106.51,106.51,0,0,0,38.05-14.68c5.51-3.5,11-5.25,16.37.55,6.77,7.36,15.77,11.94,23.18,18.49,3.51,3.1,6.51,2.79,9.69-.42q12.82-12.94,25.78-25.77c3.35-3.33,3.73-6.63.65-10.43-6.23-7.69-11.77-16-18.64-23.09-5.56-5.7-3.53-10.82-.5-15.64a113.71,113.71,0,0,0,15-38.7c.21-2.68,1.37-4.32,4.35-4,12.18,0,24.15-1.92,36.11-4,5.11-.88,5.88-5,6-8.81.23-11.21-.11-22.43,0-33.65a7.9,7.9,0,0,0-6.12-8.16c-4-1.07-8.36-2.71-12.71-.81a64.37,64.37,0,0,0-10.66-1.9h0c-4.22-.56-8.52-.56-12.64-1.78-5.92-3.89-5.25-10.69-7.14-16.33-2.58-7.74-7.18-14.71-8.73-22.84-6.69-9.85-6.46-9.71.14-20.41,4.58-7.42,11.66-12.71,16.11-20.22,2.91-4.92,3.33-8.84-1.28-13.1-6.9-6.37-13.24-13.34-20.06-19.8C894,722.52,892.16,718.68,887.93,717.81Zm-25.19,96.65c-.06,1.93,1.25,3.46,1.55,5.28,3.49,2.68,4.2,6.84,5.66,10.61.57,1.7,1.47,3.31,1.33,5.2,5.77,16.11,6.54,32.7,3.62,49.34-1.75,10-2.79,20.44-9.76,28.76a31.67,31.67,0,0,0-1.44,5.08c-.88,1.07-1.76,2.15-2.63,3.23-.62,3.34-4.41,4.91-4.71,8.43a200.94,200.94,0,0,1-23.08,23.14c-3.55.25-5.13,4-8.45,4.69l-3.22,2.63a26.19,26.19,0,0,0-5.07,1.44c-12.52,8.21-26.66,10.46-41.2,11.23-.71,0-1.42.16-2.13.24-3.54,1-7.05.22-10.56-.17-13.64-1.47-27.1-3.57-38.94-11.26-2.45,0-3.85-2.62-6.34-2.49-11.14-6.11-20.35-14.5-28.49-24.15-.94-5-6.33-7-7.74-11.71l-3.78-4.12c.06-1.91-1.3-3.43-1.47-5.28-7.95-12.54-11-26.75-11.55-41.1-1.27-33.86,10.18-63.28,35.83-85.69,17-14.83,37.12-24.25,60.31-25.29a154.73,154.73,0,0,1,19.14-.12c2.9-1.75,5.51,1.18,8.34.52,4.66,1.84,9.69,2.17,14.45,3.6,2,.1,3.7,1.31,5.61,1.8,3,2.81,8.25,1.5,10.48,5.72,2.41.11,3.83,2.71,6.35,2.54C841.16,785.52,853.06,798.88,862.74,814.46Z"/><path class="cls-1" d="M1028.68,508.35c-1.54,1.12-3.7.19-5.22,1.9-4.92,5.57-12,8.59-17.13,13.84-2.59,2.62-5.38,2.6-8,.8-8.26-5.64-17.48-8.88-27.06-11.26-3.09-.77-4.67-2.38-4.88-5.73-.29-4.48-1.07-8.93-1.63-13.4,1-12.29-2.41-16.62-12.91-14l-1.48,0c-2.5-.29-5-.7-7.49,0-2.62.89-5.19-.29-7.81-.19-6,.22-7.78,1.68-8.47,7.61-.73,6.19-1.63,12.38-2,18.59-.26,4.36-2.07,6.31-6.34,7.43-9.56,2.49-18.92,5.69-26.91,11.85-4,2.35-6.18-.52-8.51-2.94-5.33-5.91-12.28-9.75-18.52-14.51-1.58.71-3.51,1.06-4.7,2.19-6.33,6.07-12.57,12.24-18.64,18.57-2.22,2.32-1.68,4.72.41,7.39,4.43,5.65,8.55,11.52,13.38,16.86,2.7,3,3.1,6.17-.06,9.27a7.87,7.87,0,0,0-1.84,2.54c-3.28,8.32-7.09,16.46-9.24,25.21a3.06,3.06,0,0,1-3.15,3c-7.49.9-15,2-22.47,2.62-5.08.43-7,3.15-7,7.84,0,1.73.12,3.46.19,5.19a65,65,0,0,0,0,10.44c0,1.21.07,2.42.07,3.63,0,8.12,1,9.43,8.8,10.43,6.14.79,12.27,1.72,18.44,2.18,3.61.27,4.84,2,5.87,5.27,2.89,9.17,4.9,18.8,11.64,26.28-.11,1.71,1.91,2.7,1.54,4.5-.09,2.18-2.67,2.68-3.12,4.61-5,4.52-7.64,10.93-12.43,15.61.15,1.83-1.7,2.87-1.83,4.58-1,1.24-.47,2.28.45,3.21,6.42,6.45,12.82,12.92,19.31,19.29,1.84,1.81,3.79,1.71,6.12.25,5.36-3.38,10-7.55,14.83-11.62,7.41-6.29,9-6.11,16.35.48,1.31.16,2.41,1.08,3.76,1.09,6.54,2.81,13.06,5.68,20.2,6.68,1.8.16,3,1,3.08,2.93.32,8.26,2.55,16.34,2.29,24.65,1,3,2.71,5.15,5.94,5.83a132.11,132.11,0,0,1,25.31,0c4.34-1.29,6.38-4.21,6.2-8.71.76-7.23,2.31-14.38,2.16-21.71-.12-2,.94-3,2.9-3a75.22,75.22,0,0,0,27-10.41c3.91-2.48,7.84-3.72,11.61.39,4.8,5.22,11.18,8.46,16.44,13.11,2.48,2.2,4.61,2,6.86-.3q9.09-9.18,18.28-18.27c2.37-2.36,2.64-4.7.46-7.39-4.42-5.45-8.34-11.37-13.22-16.37-3.94-4-2.5-7.67-.35-11.09a80.69,80.69,0,0,0,10.65-27.43c.15-1.9,1-3.06,3.08-2.81,8.64,0,17.12-1.36,25.6-2.82,3.63-.63,4.17-3.54,4.22-6.25.17-8-.07-15.9,0-23.85a5.6,5.6,0,0,0-4.34-5.79c-2.86-.76-5.93-1.92-9-.57a46,46,0,0,0-7.55-1.35h0c-3-.4-6-.39-9-1.26-4.19-2.76-3.72-7.58-5-11.58-1.84-5.49-5.1-10.42-6.2-16.19-4.74-7-4.57-6.89.11-14.47,3.24-5.26,8.26-9,11.42-14.34,2.06-3.48,2.36-6.26-.91-9.28-4.89-4.51-9.39-9.45-14.22-14C1033,511.69,1031.68,509,1028.68,508.35Zm-17.86,68.52c0,1.37.89,2.45,1.11,3.74,2.47,1.9,3,4.86,4,7.53a9.4,9.4,0,0,1,.94,3.68,67.61,67.61,0,0,1,2.57,35c-1.24,7.07-2,14.49-6.92,20.39a22.42,22.42,0,0,0-1,3.6l-1.86,2.29c-.44,2.37-3.13,3.48-3.34,6a140.86,140.86,0,0,1-16.36,16.41c-2.52.18-3.64,2.87-6,3.32l-2.28,1.87a18.51,18.51,0,0,0-3.6,1c-8.87,5.82-18.9,7.42-29.21,8-.5,0-1,.12-1.51.17-2.5.68-5,.16-7.48-.12-9.67-1-19.22-2.52-27.61-8-1.73,0-2.73-1.86-4.49-1.76a71.81,71.81,0,0,1-20.2-17.13c-.67-3.53-4.49-5-5.49-8.29l-2.67-2.93c0-1.35-.93-2.43-1-3.74-5.64-8.89-7.8-19-8.18-29.14-.91-24,7.21-44.86,25.4-60.75,12-10.51,26.31-17.19,42.75-17.92A109.72,109.72,0,0,1,951.9,540c2.06-1.24,3.91.84,5.91.37,3.31,1.3,6.87,1.53,10.24,2.55,1.44.07,2.63.93,4,1.28,2.13,2,5.85,1.06,7.43,4.05,1.71.08,2.72,1.93,4.51,1.8C995.52,556.36,1004,565.83,1010.82,576.87Z"/><circle class="cls-2" cx="770.41" cy="868.02" r="106.21"/></svg>