<svg id="Layer_1" data-name="Layer 1" xmlns="http://www.w3.org/2000/svg" viewBox="0 0 1080 1080"><defs><style>.cls-1{fill:#abacac;}</style></defs><path class="cls-1" d="M624.17,604.65H455.84a23.58,23.58,0,0,1-23.55-23.54v-32.9H389a23.57,23.57,0,0,1-23.54-23.54V493.26H314.74a23.58,23.58,0,0,1-23.55-23.55V155.45a23.57,23.57,0,0,1,23.55-23.54H765.27a23.57,23.57,0,0,1,23.55,23.54V469.71a23.58,23.58,0,0,1-23.55,23.55H714.56v31.41A23.58,23.58,0,0,1,691,548.21H647.72v32.9A23.57,23.57,0,0,1,624.17,604.65ZM465.4,571.55H614.62V515.11h66.83v-55h74.27V165H324.3V460.15h74.26v55H465.4Z"/><path class="cls-1" d="M403.1,311.83H365.86a5.18,5.18,0,0,1-5.18-5.18V225.52a5.17,5.17,0,0,1,5.18-5.17H403.1a5.17,5.17,0,0,1,5.17,5.17v81.13A5.18,5.18,0,0,1,403.1,311.83ZM371,301.48h26.9V230.69H371Z"/><path class="cls-1" d="M465.08,311.83H427.84a5.17,5.17,0,0,1-5.17-5.18V225.52a5.16,5.16,0,0,1,5.17-5.17h37.24a5.16,5.16,0,0,1,5.17,5.17v81.13A5.17,5.17,0,0,1,465.08,311.83ZM433,301.48h26.9V230.69H433Z"/><path class="cls-1" d="M527.06,311.83H489.82a5.17,5.17,0,0,1-5.17-5.18V225.52a5.16,5.16,0,0,1,5.17-5.17h37.24a5.16,5.16,0,0,1,5.17,5.17v81.13A5.17,5.17,0,0,1,527.06,311.83ZM495,301.48h26.9V230.69H495Z"/><path class="cls-1" d="M589,311.83H551.8a5.17,5.17,0,0,1-5.17-5.18V225.52a5.16,5.16,0,0,1,5.17-5.17H589a5.17,5.17,0,0,1,5.18,5.17v81.13A5.18,5.18,0,0,1,589,311.83ZM557,301.48h26.9V230.69H557Z"/><path class="cls-1" d="M651,311.83H613.78a5.17,5.17,0,0,1-5.17-5.18V225.52a5.16,5.16,0,0,1,5.17-5.17H651a5.17,5.17,0,0,1,5.18,5.17v81.13A5.18,5.18,0,0,1,651,311.83ZM619,301.48h26.9V230.69H619Z"/><path class="cls-1" d="M713,311.83H675.76a5.18,5.18,0,0,1-5.17-5.18V225.52a5.17,5.17,0,0,1,5.17-5.17H713a5.17,5.17,0,0,1,5.17,5.17v81.13A5.18,5.18,0,0,1,713,311.83Zm-32.07-10.35h26.89V230.69H680.94Z"/><path class="cls-1" d="M796.55,714A100.55,100.55,0,0,0,897,613.52V100.43A100.55,100.55,0,0,0,796.55,0H283.47A100.56,100.56,0,0,0,183,100.43V613.52A100.56,100.56,0,0,0,283.47,714H514.15V905.62a89.46,89.46,0,0,0-59.42,59.43H270.21a89.09,89.09,0,1,0,0,51.72H454.73a89.11,89.11,0,0,0,170.54,0H788.82a89.11,89.11,0,1,0,0-51.72H625.27a89.48,89.48,0,0,0-59.4-59.43V714ZM185,1028.27a37.38,37.38,0,1,1,37.36-37.36A37.38,37.38,0,0,1,185,1028.27Zm689.13-74.75a37.38,37.38,0,1,1-37.36,37.39A37.37,37.37,0,0,1,874.08,953.52Zm-296.7,37.39A37.38,37.38,0,1,1,540,953.52,37.37,37.37,0,0,1,577.38,990.91ZM283.47,662.23a48.71,48.71,0,0,1-48.72-48.71V100.43a48.71,48.71,0,0,1,48.72-48.7H796.55a48.7,48.7,0,0,1,48.7,48.7V613.52a48.71,48.71,0,0,1-48.7,48.71Z"/></svg>