<svg id="Layer_1" data-name="Layer 1" xmlns="http://www.w3.org/2000/svg" viewBox="0 0 1080 1080"><defs><style>.cls-1{fill:#abacac;}</style></defs><path class="cls-1" d="M929.49,867.47A106.42,106.42,0,0,0,827.8,942.9H711.7A106.72,106.72,0,0,0,640.86,872V643.44H579.17V872A106.72,106.72,0,0,0,508.3,942.9H392.23a106.26,106.26,0,1,0,0,61.69H508.3a106.28,106.28,0,0,0,203.4,0H827.8A106.26,106.26,0,1,0,929.49,867.47ZM290.54,1018.31a44.58,44.58,0,1,1,44.56-44.56A44.58,44.58,0,0,1,290.54,1018.31Zm319.47,0a44.58,44.58,0,1,1,44.57-44.56A44.58,44.58,0,0,1,610,1018.31Zm319.48,0a44.58,44.58,0,1,1,44.57-44.56A44.56,44.56,0,0,1,929.49,1018.31Z"/><circle class="cls-1" cx="157.05" cy="319.04" r="157.05"/><circle class="cls-1" cx="610" cy="113.85" r="113.85"/><rect class="cls-1" x="513.47" y="449.76" width="193.07" height="193.07"/><polygon class="cls-1" points="1080 292.94 901.23 189.73 901.23 396.15 1080 292.94"/><path class="cls-1" d="M166.75,328.74l-19.41-19.4,157-157a177,177,0,0,1,125.94-52.17h79.35v27.45H430.33A149.68,149.68,0,0,0,323.8,171.69Z"/><path class="cls-1" d="M513.47,560h-168c-15.54,0-30.48-8-41-22L146.08,327.29,168,310.79,326.4,521.5c5.37,7.14,12.14,11.07,19.07,11.07h168Z"/><rect class="cls-1" x="149.23" y="305.32" width="752" height="27.45"/></svg>