<svg xmlns="http://www.w3.org/2000/svg" xmlns:xlink="http://www.w3.org/1999/xlink" viewBox="0 0 315.48 296.47"><defs><style>.cls-1{isolation:isolate;}.cls-2{opacity:0.14;mix-blend-mode:multiply;}.cls-3{fill:#231f20;}.cls-4,.cls-7{fill:none;stroke-miterlimit:10;}.cls-4{stroke:#ababab;}.cls-5{fill:url(#linear-gradient);}.cls-6{fill:#cccccb;}.cls-7{stroke:#fff;}.cls-8{font-size:6px;}.cls-39,.cls-43,.cls-8{fill:#666766;}.cls-36,.cls-39,.cls-43,.cls-8{font-family:Raleway-SemiBold, Raleway;font-weight:700;}.cls-9{letter-spacing:-0.03em;}.cls-10{letter-spacing:-0.05em;}.cls-11{letter-spacing:-0.01em;}.cls-12{letter-spacing:-0.02em;}.cls-13{letter-spacing:-0.03em;}.cls-14{letter-spacing:-0.04em;}.cls-15{letter-spacing:-0.01em;}.cls-16{letter-spacing:-0.02em;}.cls-17{letter-spacing:-0.03em;}.cls-18{letter-spacing:0em;}.cls-19{letter-spacing:-0.04em;}.cls-20{letter-spacing:-0.01em;}.cls-21{letter-spacing:-0.02em;}.cls-22{letter-spacing:-0.03em;}.cls-23{letter-spacing:-0.01em;}.cls-24{letter-spacing:0em;}.cls-25{letter-spacing:-0.03em;}.cls-26{letter-spacing:-0.02em;}.cls-27{letter-spacing:-0.01em;}.cls-28{letter-spacing:-0.03em;}.cls-29{letter-spacing:-0.01em;}.cls-30{letter-spacing:-0.01em;}.cls-31{letter-spacing:-0.03em;}.cls-32{letter-spacing:-0.01em;}.cls-33{letter-spacing:-0.07em;}.cls-34{letter-spacing:0em;}.cls-35{letter-spacing:-0.03em;}.cls-36{font-size:2.84px;fill:#fff;}.cls-37{letter-spacing:-0.03em;}.cls-38{letter-spacing:-0.07em;}.cls-39,.cls-43{font-size:12px;}.cls-39{letter-spacing:-0.01em;}.cls-40{letter-spacing:-0.03em;}.cls-41{letter-spacing:0em;}.cls-42{letter-spacing:-0.03em;}.cls-44{letter-spacing:-0.02em;}.cls-45{letter-spacing:-0.03em;}.cls-46{letter-spacing:-0.03em;}</style><linearGradient id="linear-gradient" x1="177.38" y1="172.9" x2="128.73" y2="125.5" gradientUnits="userSpaceOnUse"><stop offset="0.2" stop-color="#ffde17"/><stop offset="0.2" stop-color="#ffe757"/><stop offset="0.2" stop-color="#ffef8f"/><stop offset="0.2" stop-color="#fff5bb"/><stop offset="0.21" stop-color="#fff9da"/><stop offset="0.21" stop-color="#fffced"/><stop offset="0.21" stop-color="#fffdf4"/><stop offset="0.21" stop-color="#fffdf6"/><stop offset="0.23" stop-color="#fffffd"/><stop offset="0.28" stop-color="#fff"/><stop offset="0.28" stop-color="#fde2e3"/><stop offset="0.28" stop-color="#f9b9bb"/><stop offset="0.28" stop-color="#f69397"/><stop offset="0.28" stop-color="#f47378"/><stop offset="0.28" stop-color="#f2575d"/><stop offset="0.28" stop-color="#f04148"/><stop offset="0.28" stop-color="#ef3138"/><stop offset="0.29" stop-color="#ee252c"/><stop offset="0.29" stop-color="#ed1e26"/><stop offset="0.29" stop-color="#ed1c24"/><stop offset="0.33" stop-color="#ed1c24"/><stop offset="0.61" stop-color="#ed1c24"/><stop offset="0.61" stop-color="#ed1e26"/><stop offset="0.61" stop-color="#ee252c"/><stop offset="0.61" stop-color="#ef3138"/><stop offset="0.61" stop-color="#f04148"/><stop offset="0.61" stop-color="#f2575d"/><stop offset="0.61" stop-color="#f47378"/><stop offset="0.61" stop-color="#f69397"/><stop offset="0.61" stop-color="#f9b9bb"/><stop offset="0.61" stop-color="#fde2e3"/><stop offset="0.61" stop-color="#fff"/><stop offset="0.67" stop-color="#fdfdfe"/><stop offset="0.69" stop-color="#f6f8fc"/><stop offset="0.69" stop-color="#f2f4fa"/><stop offset="0.69" stop-color="#edf1f8"/><stop offset="0.69" stop-color="#e0e7f4"/><stop offset="0.69" stop-color="#c9d7ec"/><stop offset="0.69" stop-color="#a9c1e1"/><stop offset="0.7" stop-color="#7fa4d3"/><stop offset="0.7" stop-color="#4e81c2"/></linearGradient></defs><title>slider4</title><g class="cls-1"><g id="Layer_2" data-name="Layer 2"><g id="Layer_1-2" data-name="Layer 1"><g class="cls-2"><path class="cls-3" d="M161.91,87.81a20,20,0,0,1,2.91.2,7.83,7.83,0,0,1,2,.81,13.27,13.27,0,0,0,1.93.65,19.49,19.49,0,0,1,4.09,1.17c.69.33,1.51.25,2.22.57.15.07.31,0,.45-.15l.64-.51a1.39,1.39,0,0,1,1.86-.08,1.92,1.92,0,0,0,1.77.35,8.5,8.5,0,0,0,2.4-.81,3.19,3.19,0,0,1,2.09-.18,5.32,5.32,0,0,0,3.7-.63,2.43,2.43,0,0,1,1.48-.4c.36,0,.72,0,1.07,0a1.45,1.45,0,0,0,1.32-.69,2.27,2.27,0,0,1,.74-.86c.26-.15.24-.42.22-.66a.61.61,0,0,1,.49-.67,2.62,2.62,0,0,1,2.58.23,1.51,1.51,0,0,0,1.4.28,11.55,11.55,0,0,1,2.18-.3,1.67,1.67,0,0,0,1.47-.75.93.93,0,0,1,.79-.37,6.27,6.27,0,0,0,2.76-.91,6.44,6.44,0,0,1,2.67-1,20.87,20.87,0,0,0,2.34-.42,3.54,3.54,0,0,1,1.13-.12,2.52,2.52,0,0,0,1.46-.5,3.53,3.53,0,0,1,3.29-.33.44.44,0,0,0,.15,0,30.51,30.51,0,0,0,3.8.55,6.66,6.66,0,0,1,2.57.44,3.07,3.07,0,0,1,1.54,1.3,2,2,0,0,0,1.76,1,7.44,7.44,0,0,1,1.63.15,1.54,1.54,0,0,0,.74,0,15.52,15.52,0,0,1,6.11-.1c1,.14,2,.2,3,.26a5,5,0,0,1,2.61.85,7.17,7.17,0,0,0,2.12.84,1.6,1.6,0,0,0,1.12,0,12.1,12.1,0,0,0,1.75-.71,3.34,3.34,0,0,1,2.39-.4c1,.19,2,.13,3,.27a29.62,29.62,0,0,1,3,.38,15.63,15.63,0,0,1,3,.8,3.92,3.92,0,0,0,2.41.25,8.38,8.38,0,0,1,3.42.16,5.35,5.35,0,0,1,2.14.76,2.62,2.62,0,0,0,1.5.29h3.87a2.82,2.82,0,0,0,.82-.07,11.63,11.63,0,0,1,4.88-.06c.84.1,1.69.21,2.53.27a14.22,14.22,0,0,1,2.26.38c1.21.28,2.44.34,3.64.62a9.4,9.4,0,0,1,2,.64,12.9,12.9,0,0,0,4.17,1.12,8.12,8.12,0,0,1,2.4.82,1.82,1.82,0,0,1,.84.76.92.92,0,0,1-.81,1.43,2.94,2.94,0,0,1-1.37-.23c-.87-.39-1.85-.46-2.73-.86a1.33,1.33,0,0,0-1.36.38.48.48,0,0,0,0,.87,3.62,3.62,0,0,0,1.51.64,1.47,1.47,0,0,1,.94.45c.25.26.23.47-.09.65a1.07,1.07,0,0,1-.62.2,3,3,0,0,0-2.5,1.34c-.17.18-.3.39-.48.57a1.68,1.68,0,0,1-1.72.51c-.9-.25-1.49.38-2.19.7-.29.13-.27.69,0,1a7.46,7.46,0,0,0,.56.7,5.23,5.23,0,0,1,1.32,2,.46.46,0,0,0,.14.2c1.13.84.84,2,.76,3.17a10.94,10.94,0,0,1-.46,1.92c-.11.43-.49.61-.8.31-.85-.86-2-1.4-2.74-2.34a8.63,8.63,0,0,0-1.51-1.51,11.5,11.5,0,0,1-1.87-2,2.4,2.4,0,0,1-.25-2.88,4.32,4.32,0,0,0,.44-1.23c.1-.56,0-.77-.56-.84-.14,0-.28,0-.41,0a2.24,2.24,0,0,1-1.57-.58,1.81,1.81,0,0,0-1.7-.37.79.79,0,0,0-.53,1.26c.14.23.35.42.5.65.27.44.19.81-.29.89-.94.15-1.93.44-2.83-.2a.79.79,0,0,0-.38-.13,16.34,16.34,0,0,0-3.28.08,2.33,2.33,0,0,1-1,0,3.87,3.87,0,0,0-1.94.11c-.61.15-.69.74-.93,1.17a10.51,10.51,0,0,0-.77,2.4.65.65,0,0,0,.37.87c.48.25.95.54,1.44.79a.76.76,0,0,0,.45.15c1.1-.27,2.18.12,3.27,0a2.52,2.52,0,0,0,.48-.05.7.7,0,0,1,.81.24,5.88,5.88,0,0,0,1.73,1.6c.36.89,1.26,1.35,1.75,2.15a2.41,2.41,0,0,0,1.25,1.14,1.64,1.64,0,0,1,.77.79c.5.83.68,1.79,1.22,2.59.33.49.28.81-.1,1.06a.85.85,0,0,1-1.23-.22c-.42-.61-.79-1.25-1.15-1.89a1.88,1.88,0,0,0-.76-.84c-.5-.27-.74-.22-1,.29a4.17,4.17,0,0,0-.44,1.9,4.17,4.17,0,0,1-.35,1.67,10.35,10.35,0,0,0-.47,1.82c-.27,1-.68,1.37-1.73,1.38s-1.16.14-1.49,1.07a3.61,3.61,0,0,1-1.14,2c-.31.22-.24.52,0,.77a2,2,0,0,0,.3.28,7.56,7.56,0,0,1,1.89,1.68,6.2,6.2,0,0,1,1.3,2.25c.2.58.12.8-.44,1s-.86.35-1.28.54c-.58.25-.84.13-1.11-.43a2.54,2.54,0,0,1-.27-.69A4.33,4.33,0,0,0,263,125a1.73,1.73,0,0,1-.91-1.24,1.45,1.45,0,0,0-2.37-.69c-.19.15-.35.36-.54.5-.35.27-.59.23-.8-.15a1.69,1.69,0,0,1-.29-.84.61.61,0,0,0-1-.51,1.47,1.47,0,0,0-.61,1.77,2.79,2.79,0,0,0,.85,1.07.69.69,0,0,0,.78.07,1,1,0,0,1,.88,0,3,3,0,0,0,1.35.3.49.49,0,0,1,.55.4c.05.33-.2.51-.49.54a1.32,1.32,0,0,0-1,.71c-.43.72-.46.92.11,1.51a9.66,9.66,0,0,1,1.74,2.37,1,1,0,0,0,.25.32,4.26,4.26,0,0,1,1.45,2.23,4.94,4.94,0,0,1,0,3.33c-.28.91-.62,1.8-.86,2.72a5.47,5.47,0,0,1-1.65,2.4,8.44,8.44,0,0,1-2.19,1.36c-.59.29-1.09.79-1.67,1.14s-1.38.88-2.13,1.24a1.82,1.82,0,0,1-2.2-.23l-.2-.14c-.34-.16-.62-.63-1-.44a2.17,2.17,0,0,0-1.23,1c-.11.25-.22.5-.34.75a1.3,1.3,0,0,0,.22,1.45,21.67,21.67,0,0,0,1.94,2.12c.3.29.53.64.81.93,1,1,1.1,2.3,1.43,3.52a2.33,2.33,0,0,1-1.3,2.89,14.25,14.25,0,0,0-2.08,2,2.61,2.61,0,0,0-.19.27c-.45.47-.82.45-1.2-.09a10.45,10.45,0,0,0-.81-1.23c-.77-.88-1.06-2.09-2-2.87a1.22,1.22,0,0,0-2,.28,5.56,5.56,0,0,0-.68,2.17c-.05.38,0,.71.48.82a.56.56,0,0,1,.4.48,4.5,4.5,0,0,0,1.91,2.67,6.18,6.18,0,0,1,1.75,2.14,1.34,1.34,0,0,1,.22.78,5.32,5.32,0,0,0,.59,2.53c.15.32.43.72,0,1.05s-.7-.06-1-.21c-1.68-.76-2.41-2.25-3-3.83a10.24,10.24,0,0,0-2.17-3.44,1.52,1.52,0,0,1-.33-1.46c.23-.95,0-1.88.12-2.83a5.5,5.5,0,0,0-.84-3.37,8.54,8.54,0,0,1-.61-1.43c-.39-1.14-1-1.19-1.94-.63-.18.1-.34.43-.52.33-.37-.19-.8-.18-1.13-.44a.44.44,0,0,1-.14-.45c.36-1.26-.35-2.26-.8-3.34-.26-.63-.9-.83-1.26-1.36a13.81,13.81,0,0,1-1-1.47c-.38-.73-.57-.76-1.38-.62a11.93,11.93,0,0,1-1.69.29,2.14,2.14,0,0,0-1.35.53.64.64,0,0,0-.3.47c0,.83-.59,1.21-1.18,1.54a4.73,4.73,0,0,0-1.07,1,27.19,27.19,0,0,1-1.81,2.1c-.61.55-1.15,1.21-1.78,1.77a1,1,0,0,0-.35,1.05c.43,1.29,0,2.54-.12,3.81a2,2,0,0,0-.06.32c.18,1.3-.59,2.1-1.47,2.86-.17.14-.3.31-.46.46-.5.48-.85.46-1.33-.06a1.7,1.7,0,0,1-.4-.62c-.46-1.4-1.2-2.68-1.79-4-.19-.43-.32-.88-.47-1.32a4.39,4.39,0,0,0-.67-1.31,2.93,2.93,0,0,1-.48-.95,14.71,14.71,0,0,1-1.27-4.22c0-.5-.27-1-.3-1.52a.82.82,0,0,0-1.08-.69,1.81,1.81,0,0,0-.31.09A.9.9,0,0,1,212,145a2.88,2.88,0,0,0-.84-.79,1.45,1.45,0,0,1-.73-.94,2.07,2.07,0,0,0-.93-1.22,7.45,7.45,0,0,1-1.62-1.6,1.22,1.22,0,0,0-1-.49,6.24,6.24,0,0,0-1.55.17,11,11,0,0,1-4.39-.06c-.7-.13-1.39-.32-2.09-.43a1.11,1.11,0,0,1-1-.84,2.5,2.5,0,0,0-.15-.38c-.23-.42-.36-.48-.77-.26a5.22,5.22,0,0,1-.61.25,2.21,2.21,0,0,1-1.56,0,18.37,18.37,0,0,1-2.82-1.47c-.37-.16-.44-.6-.57-1-.28-.79-.65-1.52-1.62-1.65a.87.87,0,0,0-1,1.16A4.6,4.6,0,0,0,191,138c1,.55,1.79,1.27,1.46,2.59a.34.34,0,0,0,.34.46,5.17,5.17,0,0,0,2,0,1.52,1.52,0,0,0,.83-.63c.71-.95,1.44-.9,2.12.11.12.18.27.34.39.53a1,1,0,0,0,1,.56,1,1,0,0,1,.92.44c.32.38.61.77.92,1.16a.76.76,0,0,1,.07.77,7.15,7.15,0,0,1-1,2,1.93,1.93,0,0,0-.38.72c-.26,1.29-1.27,1.87-2.25,2.54a22.22,22.22,0,0,1-2.7,1.49,1.89,1.89,0,0,0-.82.79,2,2,0,0,1-1.44,1,2.88,2.88,0,0,0-.87.24,27.41,27.41,0,0,1-4.35,1.87,2.09,2.09,0,0,0-.23.08c-.33.19-.61.49-1,.29a1.89,1.89,0,0,1-1-1c-.47-1.28-1.16-2.45-1.62-3.75a14.14,14.14,0,0,0-1.81-3.35,1.72,1.72,0,0,0-.55-.49,2.4,2.4,0,0,1-1.23-1.84,6.19,6.19,0,0,0-.48-1.73,4,4,0,0,0-1.12-1.39,1.31,1.31,0,0,1-.53-.71,4.86,4.86,0,0,0-.8-1.42,13.13,13.13,0,0,1-1.86-3.18,21.18,21.18,0,0,1-.82-2,2.21,2.21,0,0,1,.13-1.67,6,6,0,0,0,.43-1.4,9.43,9.43,0,0,1,.54-1.71,3.94,3.94,0,0,0,0-1.87,1,1,0,0,0-1.21-.7,1.66,1.66,0,0,0-.59.27,1.49,1.49,0,0,1-1.62.07,6.12,6.12,0,0,0-1.16-.4.7.7,0,0,0-.76.11c-.33.31-.65.24-1,0a3.34,3.34,0,0,0-1.48-.43,1.58,1.58,0,0,1-1.4-.85,3,3,0,0,1-.56-1.86,8,8,0,0,0,0-1,1.31,1.31,0,0,0-1.49-1.07c-.38,0-.85.81-.8,1.29a.65.65,0,0,0,0,.16,3.79,3.79,0,0,1-.25,3.14c-.18.46-.32.55-.81.44s-1.17-.3-1.17-1.12a1.09,1.09,0,0,0-.37-.8,21.46,21.46,0,0,1-1.61-2.37c-.18-.2-.13-.46-.13-.71a2.41,2.41,0,0,0-1.33-2.28,1.94,1.94,0,0,1-.58-.44,1.56,1.56,0,0,0-.84-.49,1.77,1.77,0,0,1-1.18-.81,5.83,5.83,0,0,0-1.53-1.36.67.67,0,0,0-.9.12,1,1,0,0,0-.09,1.07,1.46,1.46,0,0,0,.34.36,2.73,2.73,0,0,1,.84,1.08,2,2,0,0,0,1.39,1,2.62,2.62,0,0,1,.85.43c.58.41,1.2.78,1.78,1.18a.86.86,0,0,1,.47.73c0,.32-.2.45-.49.32s-.38-.3-.65-.31-.6.2-.43.55a.9.9,0,0,1,.09.92c-.24.45-.35,1-.94,1.17a.84.84,0,0,0-.71.93.46.46,0,0,1-.74.43c-.59-.36-1.23-.6-1.82-.95-.19-.11-.39-.25-.31-.51s.32-.28.54-.28a6.65,6.65,0,0,0,2-.14.9.9,0,0,0,.57-1.43,4.83,4.83,0,0,0-1.72-1.49,9.46,9.46,0,0,1-2.65-1.77,3.27,3.27,0,0,1-.9-1.15,1.75,1.75,0,0,0-.5-.65c-.58-.48-.66-.44-1.32,0s-1.16.57-1.7.93c-.23.16-.53,0-.8-.08a12.13,12.13,0,0,0-1.2-.24,1,1,0,0,0-1.16,1c0,.35.1.75-.2,1a3,3,0,0,1-1.42.94,1.14,1.14,0,0,0-.9.61,7.59,7.59,0,0,1-.63.86c-.2.27-.4.52-.2.89a.44.44,0,0,1,0,.39c-.34.4-.49,1-.82,1.29a3.17,3.17,0,0,1-2.56,1.24,2.3,2.3,0,0,0-1.27.23,1.43,1.43,0,0,1-1.53-.31,2.1,2.1,0,0,0-1.81-.56,1.86,1.86,0,0,1-.41,0,.54.54,0,0,1-.62-.6,1.88,1.88,0,0,0-.37-1.54c-.18-.17,0-.41.09-.61a10.26,10.26,0,0,0,.55-1.1,2.26,2.26,0,0,0,.14-1.36c-.12-.4.2-.84.07-1.21-.34-1,.44-1.19,1-1.57a.71.71,0,0,1,.47-.1c1.47.12,2.94.08,4.4.31a5.49,5.49,0,0,0,.58,0c.71,0,.85-.1.95-.82a3.75,3.75,0,0,1,.2-.88,1.62,1.62,0,0,0-.22-1.63c-.56-.78-1.12-1.57-2.22-1.64-.32,0-.8-.65-.78-.94s.16-.27.32-.33a3.3,3.3,0,0,1,1.13-.18,1.43,1.43,0,0,0,1.46-.7c.21-.4.66-.34,1-.22s.53.27.78.08c.45-.34,1.15-.31,1.38-.94a1.6,1.6,0,0,1,.8-.76,5.34,5.34,0,0,0,1.92-1.49,3,3,0,0,1,1.56-1.17c.41-.14.79-.37,1.19-.53a.78.78,0,0,0,.53-.91,4.17,4.17,0,0,1,.16-1.92,1.94,1.94,0,0,1,1.38-1.15.49.49,0,0,1,.55.5,3.46,3.46,0,0,1-.09,1.53c-.25.78-.05,1.07.67,1.43a.81.81,0,0,0,.85,0,1.28,1.28,0,0,1,1.88.3c.19.27.41.16.65.1a15.45,15.45,0,0,1,2.67-.79,4.47,4.47,0,0,1,.82-.07c.95.11,1.57-.44,1.81-1.51a5,5,0,0,0,.11-.56,1.38,1.38,0,0,1,1.29-1.27c.59-.08.82-.42.87-1a1.09,1.09,0,0,0-.73-1.08l-.15,0a2.6,2.6,0,0,1-1.89-2.49,1.47,1.47,0,0,1,1-1.63,9.33,9.33,0,0,0,1.67-1.32c.12-.1.3-.19.2-.39a.37.37,0,0,0-.35-.17c-.36,0-.72-.05-1.07,0a1.3,1.3,0,0,0-1.16.8,3.3,3.3,0,0,1-1.6,1.59l-.72.39a1.22,1.22,0,0,0-.21,2.17,4,4,0,0,1,.31.27c.74.7.7,1.29-.15,1.89a1.59,1.59,0,0,1-.5.26.72.72,0,0,0-.55.8,5.25,5.25,0,0,1-.33,1.61c-.09.34-.27.59-.68.57a1.73,1.73,0,0,0-1.06.39,5.74,5.74,0,0,1-2.2.58.37.37,0,0,1-.43-.3.45.45,0,0,1,.11-.53,7.38,7.38,0,0,1,.68-.46c.34-.22.45-.52.2-.83a10.4,10.4,0,0,0-1.78-2,.6.6,0,0,0-.81,0c-.2.15-.38.32-.58.47a2.19,2.19,0,0,1-1.54.44,1.29,1.29,0,0,1-1.26-1.16c-.05-.24-.13-.47-.19-.71a5.5,5.5,0,0,1-.29-1.11c-.09-1.63-.13-1.59,1.21-2.08.59-.22,1-.76,1.61-.95a8,8,0,0,0,1.94-1.07,3.15,3.15,0,0,0,.76-.74,10.16,10.16,0,0,1,1.9-1.92,2.9,2.9,0,0,0,.36-.34,19.69,19.69,0,0,1,3.18-2.8c.19-.15.41-.1.63-.14.76-.15,1.6,0,2.22-.68.17-.18.46-.14.71-.14Z"/><path class="cls-3" d="M157.55,208.9a2.87,2.87,0,0,0-.29-1.78.19.19,0,0,1,0-.08,6.35,6.35,0,0,0-1.84-3.53,3.44,3.44,0,0,1-.81-2.36,5.84,5.84,0,0,0-.27-1.61,3.72,3.72,0,0,1-.06-1.56,2.4,2.4,0,0,0-.61-2,6.88,6.88,0,0,1-1.18-2.24,8.51,8.51,0,0,0-.84-1.68,1.18,1.18,0,0,1-.3-.76,13.19,13.19,0,0,1,.24-2.35c.2-.79.52-1.56.64-2.36a2.15,2.15,0,0,1,.64-1.3,2.32,2.32,0,0,0,.5-2.85,6.13,6.13,0,0,1-.57-2.79,2.59,2.59,0,0,0-.46-1.55,3.35,3.35,0,0,1-.53-1.37,3.58,3.58,0,0,0-.94-2c-.58-.69-1.11-1.42-1.69-2.12a5.33,5.33,0,0,1-.62-1.24,1,1,0,0,1,.08-.8,4.38,4.38,0,0,0,.37-2,6.83,6.83,0,0,1,.35-1.52c.17-1,0-1.31-.83-1.79a3.19,3.19,0,0,0-2.14-.32c-1,.16-1.25,0-1.58-.92a1.92,1.92,0,0,0-2-1.45,5.84,5.84,0,0,0-2.6.56c-.85.4-1.76.73-2.63,1.12a2.66,2.66,0,0,1-2-.14,4.35,4.35,0,0,0-2.72.22,3.32,3.32,0,0,0-.68.27,1.87,1.87,0,0,1-2.34-.31,16.51,16.51,0,0,0-2.24-1.64,6.21,6.21,0,0,1-2.79-3.61,2.13,2.13,0,0,0-.66-1c-.47-.42-.76-1-1.24-1.41-.27-.24-.64-.32-.85-.63a6,6,0,0,1-1.22-3.34,2.23,2.23,0,0,1,.7-1.69,1.75,1.75,0,0,0,.56-1.06,3.66,3.66,0,0,1,.1-.56,4.55,4.55,0,0,0-.35-3.32,3.5,3.5,0,0,1,.25-3c.46-1,1.11-1.81,1.63-2.73a2.69,2.69,0,0,0,.27-.6,2.06,2.06,0,0,1,1-1.56c.34-.17.53-.68.71-1.08a1,1,0,0,1,.68-.65c1-.24,1.45-1,2-1.72a5.65,5.65,0,0,0,1.07-2.1,4.65,4.65,0,0,1,2.37-2.86,2,2,0,0,0,1.06-1.08,4,4,0,0,1,.5-.84.79.79,0,0,1,1.18-.32,1.8,1.8,0,0,0,1.47.33,11,11,0,0,0,3-.64,1.2,1.2,0,0,0,.51-.38,1.5,1.5,0,0,1,1.21-.6,11.15,11.15,0,0,0,2.76-.4A2.29,2.29,0,0,1,145,126a.5.5,0,0,0,.55,0c.72-.51,1.54-.27,2.32-.29a2.18,2.18,0,0,0,1-.15,2.17,2.17,0,0,1,1.29-.06.77.77,0,0,1,.62.93,4.74,4.74,0,0,0,0,1.3,1.46,1.46,0,0,1-.2.79,1.15,1.15,0,0,0,.41,1.66,3,3,0,0,0,1.94.57,3.88,3.88,0,0,1,.9,0,1.47,1.47,0,0,1,1.43,1,1,1,0,0,0,1.05.74,2.74,2.74,0,0,1,1.8.7,1.07,1.07,0,0,0,.82.31c.54,0,.81-.37.64-.88-.11-.33-.26-.62,0-.92s.55-.79,1.08-.82a3.42,3.42,0,0,0,.63-.16,1.88,1.88,0,0,1,1.58.25,6,6,0,0,0,1.38.66,14.66,14.66,0,0,0,3.16.86,3.86,3.86,0,0,1,1,.29,1,1,0,0,0,1.21-.11,1.75,1.75,0,0,1,2-.29,3.18,3.18,0,0,1,1.9,2.12,8.53,8.53,0,0,1,.48,2.14c-.13,1.21.75,1.94,1.09,2.91.12.35.34.69.46,1.05a7.24,7.24,0,0,0,1.56,2.48,3.75,3.75,0,0,1,.93,2.23,4.87,4.87,0,0,0,1.4,3,2.82,2.82,0,0,1,.79,1.77,2.17,2.17,0,0,0,1.62,2.11,2,2,0,0,1,1.06.83c.35.48.79.9,1.19,1.35a2.3,2.3,0,0,1,.77,1.56,1.56,1.56,0,0,0,1.91,1.22c1.19-.19,2.29-.67,3.45-1a7,7,0,0,0,2.13-.56c.26-.16.72.22.65.52-.18.76.12,1.53-.12,2.28-.06.18-.06.39-.13.55-.83,1.79-1.59,3.62-2.51,5.35a8.06,8.06,0,0,1-3.56,3.74,5.52,5.52,0,0,0-1.66,1.57c-.54.65-1,1.36-1.52,2a2.53,2.53,0,0,1-.42.5,6.18,6.18,0,0,0-1.87,2.82,3.39,3.39,0,0,1-.42.8,1.47,1.47,0,0,0-.23,1.25,12.23,12.23,0,0,1,.35,3.25,3,3,0,0,0,.68,1.81,3,3,0,0,1,.42,2.51,7.66,7.66,0,0,0-.07,2.29,3.31,3.31,0,0,1-.87,2.63,6.23,6.23,0,0,1-2.45,1.76,2.16,2.16,0,0,0-.95.74,3.94,3.94,0,0,1-.85.88,2.22,2.22,0,0,0-.94,2.37,3.45,3.45,0,0,0,.17.63,4.67,4.67,0,0,1-.25,3.35,1.66,1.66,0,0,1-.85.86,2.84,2.84,0,0,0-1.69,2.26,5.31,5.31,0,0,1-.26.86,3.48,3.48,0,0,1-1.08,1.7,4.2,4.2,0,0,0-1.12,1.5,4.15,4.15,0,0,1-1.15,1.48,5.66,5.66,0,0,0-.79.83,5.13,5.13,0,0,1-2.45,1.68,8.8,8.8,0,0,1-3,.57,1.14,1.14,0,0,0-.41.07,12.77,12.77,0,0,1-3.13.55,3,3,0,0,1-1.75-.59.44.44,0,0,1-.16-.28C157.84,210.09,157.36,209.46,157.55,208.9Z"/><path class="cls-3" d="M80.38,85.29a22,22,0,0,0,2.29-.15,9.45,9.45,0,0,1,3.35.12,1.08,1.08,0,0,1,.88.74,1.94,1.94,0,0,0,1.56,1.31,4,4,0,0,1,1.85.83,1.15,1.15,0,0,1,.51,1.06A1.82,1.82,0,0,0,92,91.13a1.37,1.37,0,0,1,.66.8.93.93,0,0,1-.35,1.29l-1.09.87A.86.86,0,0,1,90,94c-.28-.26-.44-.63-.76-.86a.46.46,0,0,0-.53-.09c-.2.13-.16.33-.08.51s.24.5.36.74a1.29,1.29,0,0,1-.45,1.86A18.38,18.38,0,0,0,87,97.29a1.28,1.28,0,0,1-1.37.19L84,96.87a1.44,1.44,0,0,1-1-1,2.13,2.13,0,0,0-.34-.65.68.68,0,0,0-.77-.32,7.9,7.9,0,0,1-2.7-.08c-.34,0-.41-.22-.31-.51a1.38,1.38,0,0,1,1.71-.86,3.21,3.21,0,0,0,1.37.19c.41-.05.82-.11,1-.62.08-.29.37-.39.61-.51a4.89,4.89,0,0,0,1.15-.79c.44-.42.41-.76-.12-1a2.21,2.21,0,0,1-.84-.74,1.72,1.72,0,0,0-1.52-.64,7.11,7.11,0,0,1-1.22,0,1.07,1.07,0,0,0-1.23.6,2.74,2.74,0,0,1-.56.7c-.15.16-.37.28-.46.47-.33.75-1.06,1.06-1.67,1.51a2.21,2.21,0,0,1-1.2.46c-.67,0-.79.27-.61.92a1.55,1.55,0,0,0,.53.89.39.39,0,0,1,.16.51.54.54,0,0,1-.53.32,1.41,1.41,0,0,1-.84-.28.77.77,0,0,0-.85,0L72.48,96a.64.64,0,0,1-.82-.08,2.49,2.49,0,0,0-2-.62,1.85,1.85,0,0,0-1.18.5,3.19,3.19,0,0,1-1.78.94A7.79,7.79,0,0,0,63,98.45a7.11,7.11,0,0,0-1.21,1c-.28.34-.47.68-.16,1.1a2,2,0,0,1,.24,1,.85.85,0,0,0,.72.77,4.48,4.48,0,0,1,2,1.13,3.67,3.67,0,0,0,2.5,1.11,4.2,4.2,0,0,1,1.36.25c.25.08.35.28.15.51a13.27,13.27,0,0,0-1,1.62,1.32,1.32,0,0,0,0,1.33c.24.56.55.65,1.1.38.22-.1.45-.21.66-.33s.53-.34.52-.6c0-.67.47-1.23.42-1.9,0-.42.24-.61.59-.79a25.21,25.21,0,0,0,2.33-1,3.39,3.39,0,0,0,1.17-1.12c.43-.69.43-.88-.06-1.53-.29-.39-.25-.6.17-.85a1.57,1.57,0,0,1,.23-.09c.83-.29,1.39-.77,1.28-1.75a9.06,9.06,0,0,1,1.16-1.88,1.19,1.19,0,0,1,.84-.3,20.85,20.85,0,0,1,2.62.19,2,2,0,0,1,1.06.72,4,4,0,0,0,1,.85c.45.24.47.46.25,1-.05.13-.12.25-.18.37-.24.58-.21.89.14,1.19a1.14,1.14,0,0,0,1.37.09,20.26,20.26,0,0,0,2-1.38c.52-.4.66-.37,1.08.13a3.63,3.63,0,0,1,.81,2.28c0,.49,0,1,0,1.48a1.58,1.58,0,0,0,1.2,1.73c.35.09.68.26.64.72,0,.26.16.39.34.52.42.29.44.65.38,1.14-.11.83-.57,1.54-.61,2.37,0,.62.08.89.67,1.12s.71.29.36,1a1.59,1.59,0,0,0,0,1.35.89.89,0,0,1-1,1.25,4.19,4.19,0,0,1-1.55-.49,1.93,1.93,0,0,0-1.59-.19,3.81,3.81,0,0,1-1.54-.06c-.39-.07-.43-.25-.31-.58a2.44,2.44,0,0,1,.65-1.12,2.41,2.41,0,0,0,.65-.84c.19-.42-.12-.83-.54-.69a5.05,5.05,0,0,1-2.35.11,3.69,3.69,0,0,0-1.94.2c-.26.11-.47.25-.37.62a1.31,1.31,0,0,1-.48,1.39,1.77,1.77,0,0,0-.56,1,1.13,1.13,0,0,0,1,1.55c.29.06.59.12.89.16a.87.87,0,0,1,.51.24.52.52,0,0,1-.21.9,1.61,1.61,0,0,1-.56.12c-.81,0-1.52.47-2.33.39-.27,0-.45.18-.63.35a9.25,9.25,0,0,1-.7.7c-.41.34-.78.28-1-.21a.71.71,0,0,0-.74-.52,3.12,3.12,0,0,0-2,.37,12.67,12.67,0,0,0-1.61.92,1.19,1.19,0,0,0-.51,1,.63.63,0,0,1-.45.7,5.35,5.35,0,0,1-1.39.49A4,4,0,0,0,68,122.48c-.65.71-1.29,1.42-1.91,2.14A4.92,4.92,0,0,0,65,126.69a5.26,5.26,0,0,1-.74,1.43,3.65,3.65,0,0,1-1.83,1.38,21.54,21.54,0,0,0-3.45,2.17,3.58,3.58,0,0,0-1.4,4,8.43,8.43,0,0,1,.4,2.5,2.47,2.47,0,0,1-.8,1.74c-.47.44-.72.36-1.08-.17a6.89,6.89,0,0,1-1-2.41,3.15,3.15,0,0,1,0-1.06c.13-.94-.37-1.46-1.31-1.33a.72.72,0,0,1-.87-.4,1,1,0,0,0-1.21-.48c-.51.08-1,.22-1.52.33a1.63,1.63,0,0,0-.94.75c-.14.19-.25.36-.51.32a15.56,15.56,0,0,1-3-.47,1.63,1.63,0,0,0-1.55.15,9.22,9.22,0,0,1-1.69.85A9,9,0,0,0,40.78,137a1.46,1.46,0,0,0-.63,1.36,2.89,2.89,0,0,1-.34,1.42,8.6,8.6,0,0,0-.91,2.8,2.61,2.61,0,0,0,0,.48,7.85,7.85,0,0,0,.57,3.34A2.62,2.62,0,0,0,42,147.93a6.14,6.14,0,0,1,1.71,0,1.17,1.17,0,0,0,1.36-.81,5.26,5.26,0,0,0,.52-1.63.74.74,0,0,1,.51-.68,5.54,5.54,0,0,1,3.11-.45c.44.09.72.47.45.74-.62.63-.51,1.47-.8,2.19A8.47,8.47,0,0,1,48,149a1.75,1.75,0,0,0-.23,1.63.57.57,0,0,0,.6.46,5.43,5.43,0,0,0,1.14,0,3.35,3.35,0,0,1,2.76.72.56.56,0,0,1,.27.39,2.09,2.09,0,0,1-.05,1.06c-.54,1-.44,2.07-.82,3.08a1.74,1.74,0,0,0,.59,2.07c.18.14.34.29.5.43a1.73,1.73,0,0,0,1.73.47c.25-.07.59-.12.77.13a.65.65,0,0,1-.05.77.85.85,0,0,0-.17.61c0,.26,0,.53-.32.6s-.68.16-.91-.15a1.79,1.79,0,0,0-1.36-.66,1.2,1.2,0,0,1-1-.7,2,2,0,0,0-1.22-1A2.07,2.07,0,0,1,48.73,157a4.37,4.37,0,0,0-.66-1.57,1.59,1.59,0,0,0-1.13-.75c-2-.35-3.87-1-5.1-2.76a2.43,2.43,0,0,0-.68-.6,1,1,0,0,0-1-.16c-.25.1-.53.14-.78.23a2.15,2.15,0,0,1-1.46,0c-1-.4-2.09-.82-3.12-1.25a3.56,3.56,0,0,1-1.37-.9.68.68,0,0,0-.32-.24,3,3,0,0,1-1.81-1.19.76.76,0,0,0-.28-.16,1.76,1.76,0,0,1-.9-2.43,1.84,1.84,0,0,0-.13-1.87,10.13,10.13,0,0,1-.72-1.29,4.59,4.59,0,0,0-1.48-1.82,1,1,0,0,1-.48-1,.65.65,0,0,0,0-.4c-.55-.76-.6-1.77-1.27-2.45a2.5,2.5,0,0,1-.69-2c0-.3,0-.6,0-.9s-.08-.56-.43-.6a.61.61,0,0,0-.67.48,1.81,1.81,0,0,0,0,1,21.88,21.88,0,0,0,1,3.63,17.29,17.29,0,0,1,.54,2.06,4,4,0,0,0,.64,1.29,1,1,0,0,1,.21,1,.46.46,0,0,1-.83.18,7.57,7.57,0,0,0-1.39-1.38,1,1,0,0,1-.36-.72c0-.32-.1-.64-.14-1a.72.72,0,0,0-.43-.64,2.76,2.76,0,0,1-.94-.79.72.72,0,0,1,.17-1.21c.45-.32.51-.6.13-1.1a2.66,2.66,0,0,1-.71-1.62c0-.85-.16-1.69-.23-2.53A2.11,2.11,0,0,0,20,129.36c-.42-.11-.68-.32-.66-.8.06-1.11-.37-2.21-.07-3.33.05-.21-.12-.36-.18-.53a3.12,3.12,0,0,1,.43-3.15,3.51,3.51,0,0,0,.79-1.5c.13-.76.74-1.21,1.19-1.74.81-1,1.55-2,2.28-3a10.57,10.57,0,0,0,.93-2.09,1.18,1.18,0,0,0-.18-1.1c-.16-.25-.36-.47-.52-.73a1.13,1.13,0,0,1,.07-1.49,13.53,13.53,0,0,0,.79-1.79.33.33,0,0,0,0-.24,9.81,9.81,0,0,1,.17-3.5,3.29,3.29,0,0,0-.27-1.56,26.11,26.11,0,0,0-1.33-2.25,1.26,1.26,0,0,0-1-.71,12.43,12.43,0,0,0-2.65-.52c-.45,0-.8-.33-1.19-.51a1.81,1.81,0,0,0-1.51,0c-.16.06-.34.13-.38.29-.13.49-.54.56-.92.72a24.1,24.1,0,0,1-2.77.75.6.6,0,0,1-.32,0c-1.16-.42-2.15.22-3.15.59-2.29.83-4.53,1.79-6.8,2.68a8.63,8.63,0,0,0-1.06.62,2.31,2.31,0,0,1-1.18.28.56.56,0,0,1-.6-.45c-.07-.29.22-.37.4-.45,1.06-.51,2.13-1,3.2-1.5a1.78,1.78,0,0,0,.69-.43c.31-.35.24-.74-.23-.75-1.09,0-1.12-.94-1.45-1.61a.41.41,0,0,1,0-.39c.42-.33.45-.85.69-1.26a1,1,0,0,1,.73-.49,4.44,4.44,0,0,0,1.59-.64c.9-.57,2-.59,2.91-1.09.33-.18.9-.25.81-.66s-.62-.22-1-.18c-.62.06-.7,0-.56-.67.22-1,.24-1.1,1.31-1.24.73-.1,1.45-.25,2.18-.38a2.49,2.49,0,0,0,.47-.12c.71-.26,1.28-.61,1.24-1.5a.7.7,0,0,1,.53-.66,2.34,2.34,0,0,1,.53-.21,16.83,16.83,0,0,0,4-1,2.81,2.81,0,0,0,.31-.1,10.17,10.17,0,0,1,4.19-1c.3,0,.61,0,.91,0a2.87,2.87,0,0,0,1.36-.21A1.53,1.53,0,0,1,26,87.67c1.56.46,3.19.5,4.76.85a5.6,5.6,0,0,0,2.61.11,1.62,1.62,0,0,1,1.26.25,2.29,2.29,0,0,0,1.39.4c.47,0,.86.33,1.34.33a2.14,2.14,0,0,0,.57,0c1.61-.41,3.3-.46,4.92-.85a5.72,5.72,0,0,1,1.31,0,1.76,1.76,0,0,0,1-.16,1.32,1.32,0,0,1,1.19-.08,4.44,4.44,0,0,0,1.7.2,5.22,5.22,0,0,1,3,.86,1.85,1.85,0,0,0,1.24.31,1.48,1.48,0,0,1,1.17.25c1.19,1,2.51.78,3.83.42.85-.24,1.72-.31,2.58-.48a1.49,1.49,0,0,1,1.37.39,1.92,1.92,0,0,0,1.89.51,9.16,9.16,0,0,1,1.47-.1,3.52,3.52,0,0,0,1.27-.23,3.08,3.08,0,0,1,1.78,0,1.33,1.33,0,0,0,1.1,0c.5-.31.68-.41.51-1-.3-1,.34-1.42.94-1.86A5.6,5.6,0,0,1,72,87c.38-.11.75.21.81.71a4.15,4.15,0,0,0,.53,1.54c.25.44.67.44,1.09.4a1.14,1.14,0,0,0,1-.67c.11-.19,0-.36-.07-.54-.28-.79-.23-1,.41-1.58s1-.82,1.56-1.21a2.79,2.79,0,0,1,1.49-.39C79.34,85.25,79.86,85.29,80.38,85.29Z"/><path class="cls-3" d="M96.23,173.41a2.7,2.7,0,0,1,2.32.81,4.23,4.23,0,0,1,.64.63,2.88,2.88,0,0,0,1.88,1.08,1.56,1.56,0,0,1,1.36,1.23,5.56,5.56,0,0,1-.65,4.79,1.39,1.39,0,0,1-.15.19c-1.06,1-1.59,2.41-2.51,3.53a2.86,2.86,0,0,0-.35,2.74,2.8,2.8,0,0,1,.06,1.67,3.21,3.21,0,0,0,0,.82,1,1,0,0,1-.1.64,2.24,2.24,0,0,0-.37,1.63,2.65,2.65,0,0,1-.6,1.59,1.76,1.76,0,0,0-.38,1.22.8.8,0,0,1-.4.83c-.1.06-.22.12-.25.21-.27.85-1,.84-1.68.86a3.46,3.46,0,0,0-2,.66,2.67,2.67,0,0,1-.76.32,4,4,0,0,0-.82.35c-1.54.94-1.83,1.64-1.33,3.35a4.1,4.1,0,0,1,.12,1.3,1.16,1.16,0,0,1-.43.94,2.81,2.81,0,0,0-.35.34c-.54.5-.38,1.38-1,1.82a3.52,3.52,0,0,0-1.06,1.81c-.29.7-.59,1.41-.92,2.1a3,3,0,0,1-1,1.17A4.51,4.51,0,0,0,84,214.36a1,1,0,0,0-.1.32c0,1.19-.89,1.66-1.85,2-.2.08-.42.12-.62.21a1.53,1.53,0,0,0-1,1.18,2.89,2.89,0,0,1-.54,1.27,2.87,2.87,0,0,0-.54,1.27,2.28,2.28,0,0,1-.57,1.25.73.73,0,0,0-.23.75,1.62,1.62,0,0,1-.33,1.46,1.36,1.36,0,0,0,.58,2,1,1,0,0,1,.36,1.83c-.37.38-.78.71-.71,1.32a.65.65,0,0,1-.11.3c-.39.78-.56,1.09.43,2a3,3,0,0,1,.86,1.16,3.61,3.61,0,0,0,1.88,1.62,2.39,2.39,0,0,0,1.17.35.58.58,0,0,1,.32.06c.26.15.55.32.5.68s-.36.42-.69.42a4.93,4.93,0,0,1-1.94-.23,3.43,3.43,0,0,0-1.06-.13.84.84,0,0,1-.87-.69A1.61,1.61,0,0,0,77,233.66c-1,.37-1.62-.14-2.25-.74a14.77,14.77,0,0,1-2-3.25,4.32,4.32,0,0,0-.22-.43,4.88,4.88,0,0,1-.81-2.38,3,3,0,0,0-.45-1.3,2.53,2.53,0,0,1-.38-1.16,6.63,6.63,0,0,0-1.46-3.85,4.49,4.49,0,0,1-1-2.21,10.5,10.5,0,0,0-.94-3.3,1,1,0,0,1-.07-.56,23.24,23.24,0,0,1,.3-2.51,8,8,0,0,0,0-3.09c-.17-1-.6-1.93-.7-2.95a7.89,7.89,0,0,1,0-2.52,3.21,3.21,0,0,0,0-1c-.21-1.91-.26-3.82-.36-5.73a15.76,15.76,0,0,0-.42-4,1.9,1.9,0,0,0-.32-.74,9.23,9.23,0,0,0-2.77-2.16c-.57-.26-1.16-.49-1.74-.73a.79.79,0,0,1-.23-.09,7.73,7.73,0,0,1-1.87-2.25c-.32-.79-.75-1.51-1.13-2.25a9.37,9.37,0,0,0-1.65-2.44,2.75,2.75,0,0,1-.69-1.29,3.74,3.74,0,0,0-1.4-2.25A3.12,3.12,0,0,1,53.22,176a1.17,1.17,0,0,1,.36-.89,1.53,1.53,0,0,0,.28-2.07,2.41,2.41,0,0,1-.14-1.77A3.66,3.66,0,0,1,55,168.83c.45-.32.63-.88,1-1.29a8.25,8.25,0,0,0,1-1,4.69,4.69,0,0,0,.62-2.27,3.79,3.79,0,0,0-.52-2.6,1.37,1.37,0,0,1-.31-.83.38.38,0,0,0-.23-.4c-.44-.21-.24-.61-.22-.94,0-.16.16-.21.3-.22a3,3,0,0,1,.9,0,1.8,1.8,0,0,0,2-1.14,2.25,2.25,0,0,1,2-1.69,3.54,3.54,0,0,0,2-1,.64.64,0,0,1,.6-.19,5.23,5.23,0,0,1,1.59.32,12.35,12.35,0,0,1,1.86,1,2.56,2.56,0,0,0,1.35.55,3,3,0,0,1,1.32.39,1.28,1.28,0,0,0,1.54-.12,1.42,1.42,0,0,1,1-.3,4.8,4.8,0,0,0,1.46-.14,1.67,1.67,0,0,1,1.19.24c.4.18.28.54.21.86s-.28.55-.18.86a1.3,1.3,0,0,0,.84.95,2.63,2.63,0,0,1,1.49,1.33,2.84,2.84,0,0,0,2.81,1.61,8.07,8.07,0,0,1,2.71.54.84.84,0,0,1,.46.32,5.21,5.21,0,0,0,1.15,1,1.77,1.77,0,0,1,.65,1.29,3.73,3.73,0,0,0,.81,1.85c.2.22.18.51.25.77A2.14,2.14,0,0,0,88,170.2a49,49,0,0,1,5,2.25A4.82,4.82,0,0,0,96.23,173.41Z"/><path class="cls-3" d="M291.54,190.86c0,.32,0,.52,0,.71a1.23,1.23,0,0,0,.72,1.31,3,3,0,0,1,1.35,1.56c.3.79.84,1.52,1.2,2.31a13.91,13.91,0,0,0,1.81,2.73,2.05,2.05,0,0,1,.25,2.1c-.42.95-.58,2-1.07,2.91-.38.69-.69,1.42-1.13,2.08a1.33,1.33,0,0,0-.16.46,1.37,1.37,0,0,1-.46.76c-.81.77-1.61,1.55-2.48,2.25A4.39,4.39,0,0,0,290,211.9a.71.71,0,0,1-.23.33,4.11,4.11,0,0,0-1.24,1.51,5.88,5.88,0,0,1-2.54,2.09,1.63,1.63,0,0,1-.63.17,1.5,1.5,0,0,0-.56.1c-2.24.94-4.38.33-6.52-.38-.54-.18-.68-.55-.65-1.34a1.69,1.69,0,0,0-.73-1.7,6.73,6.73,0,0,0-1.16-.61c-.18-.06-.34-.16-.52-.24a1.19,1.19,0,0,1-.72-1.33,1.7,1.7,0,0,0-1.33-1.93,1.16,1.16,0,0,1-.38-.15c-1.1-1-2.29-.43-3.41-.12a9,9,0,0,1-2.39.51,1.12,1.12,0,0,0-.49.08,12.4,12.4,0,0,0-2.93,1.42,1.66,1.66,0,0,1-1.36.45c-1.4-.21-2.63.43-3.92.76a2.74,2.74,0,0,0-.7.4,2.06,2.06,0,0,1-3-.78.74.74,0,0,1,.24-1,4.69,4.69,0,0,0,1.21-2,.6.6,0,0,0,0-.4,5.88,5.88,0,0,1-.12-2,9.9,9.9,0,0,0-.55-3.45,2.38,2.38,0,0,1,.09-1.83,4.21,4.21,0,0,0,.47-1.4,1.39,1.39,0,0,1,.23-.6,2.59,2.59,0,0,0,.58-1.67.64.64,0,0,1,.44-.63,5.46,5.46,0,0,0,2-1.22,1,1,0,0,1,.59-.27,4.62,4.62,0,0,0,1.82-.71,3.55,3.55,0,0,1,1.49-.42,3.71,3.71,0,0,0,3-2.42,3.39,3.39,0,0,1,1.42-1.72.72.72,0,0,0,.24-.22,11.19,11.19,0,0,1,3.14-2.46c.37-.23.83-.22,1.21-.44.19-.1.35.11.5.23a5.14,5.14,0,0,0,1.18.75.34.34,0,0,0,.47-.15,19,19,0,0,1,1.36-1.84,20.16,20.16,0,0,1,1.87-1.83,1,1,0,0,1,1.17,0,7.08,7.08,0,0,0,2.93.66,4.19,4.19,0,0,1,.5,0c.59.11.88.57.59,1.07s-.41,1.35-.77,2a1.2,1.2,0,0,0,.45,1.53,20.11,20.11,0,0,0,2.55,1.64c.62.37.94.22,1.17-.47.53-1.6,1.06-3.2,1.49-4.83a9,9,0,0,1,.54-1.29c.1-.21.15-.5.48-.47a.74.74,0,0,1,.74.55c.2.8.59,1.53.85,2.31a3.52,3.52,0,0,0,.73,1.36c.1.12.25.28.24.42C291.13,189,291.73,189.93,291.54,190.86Z"/><path class="cls-3" d="M99.52,92.79a2.43,2.43,0,0,1,2.22-2.63c.69-.12.83-.39.39-.91a9.61,9.61,0,0,1-.75-1.27,1.25,1.25,0,0,1,0-1.4,2.23,2.23,0,0,0,.3-1.34,1.86,1.86,0,0,0-1.6-1.8,9,9,0,0,0-3.5-.18,2.93,2.93,0,0,1-1.7-.17,1.75,1.75,0,0,1-1.09-1.5.56.56,0,0,1,.48-.64,14.28,14.28,0,0,1,1.61-.3,12.74,12.74,0,0,0,2.75-.38c.3-.1.64-.15.78-.52s.46-.33.71-.35c1,0,2-.53,3-.64a6.23,6.23,0,0,0,1.75-.43.89.89,0,0,1,.31-.08c1.75.12,3.46-.62,5.22-.29a6.52,6.52,0,0,0,1.39-.11,36.55,36.55,0,0,0,5.21-.56,11.4,11.4,0,0,1,3-.06,7.38,7.38,0,0,0,2.11-.16,14.36,14.36,0,0,1,5.31.05,25.25,25.25,0,0,1,3.18.74,8,8,0,0,0,2.93.28,4.49,4.49,0,0,1,1.55.1c.13,0,.28.08.31.24s-.11.28-.26.37a6.73,6.73,0,0,1-2.2.6,15.21,15.21,0,0,0-2.66,1.06.82.82,0,0,0-.46.89,1.46,1.46,0,0,1-.44,1.27,1.4,1.4,0,0,0-.28.59,4.35,4.35,0,0,1-2.83,2.62c-.72.28-.88.51-.69,1.28.3,1.27-.13,2-1.37,2.2a7.87,7.87,0,0,0-1.77.67,7.54,7.54,0,0,1-2.1.66,27.55,27.55,0,0,1-3,.48,2.31,2.31,0,0,0-1.37.69,7.59,7.59,0,0,1-3.49,1.54,13.73,13.73,0,0,1-1.78.22A2.43,2.43,0,0,0,108.52,95a3.86,3.86,0,0,1-1.35,1.51,1.28,1.28,0,0,0-.42.5,7.14,7.14,0,0,1-1.52,1.81c-.58.61-1.11,1-2.06,0a1.47,1.47,0,0,0-1.48-.47c-.65.15-.74.1-1-.46-.2-.39-.42-.77-.6-1.16a3.82,3.82,0,0,1-.36-2C99.75,94,99.43,93.4,99.52,92.79Z"/><path class="cls-3" d="M295.16,178.64a2.06,2.06,0,0,0,.18,1.27c.16.3.31.59.71.59a.73.73,0,0,1,.54.34l1,1.2a.48.48,0,0,1,.12.6.6.6,0,0,1-.65.25,1.85,1.85,0,0,1-.73-.36.89.89,0,0,0-.77-.19,1.85,1.85,0,0,1-2-1,2.67,2.67,0,0,1-.37-.63,2.64,2.64,0,0,0-1.66-1.37.57.57,0,0,0-.61.12,3,3,0,0,0-.68.82,1.84,1.84,0,0,1-2.77.59l-.38-.32a1.84,1.84,0,0,0-1.75-.43l-.23.08c-.32.05-.69.19-.92-.12s-.07-.58.07-.85a3.44,3.44,0,0,0,.25-.87,1.94,1.94,0,0,0-1.09-2.3,5.55,5.55,0,0,0-1.3-.5,2,2,0,0,1-.77-.29,1.32,1.32,0,0,0-1.65-.15c-.34.23-.65-.06-.74-.41-.17-.61-.69-1.08-.55-1.82.08-.44-.29-.8-.73-1a1.38,1.38,0,0,1-.58-.29.49.49,0,0,1-.17-.52c.07-.19.25-.19.41-.18a1.77,1.77,0,0,0,.78-.23,2,2,0,0,1,2.71.53.65.65,0,0,1,.15.45,1.44,1.44,0,0,0,.18.71c.35.63.62.72,1.24.34a10.54,10.54,0,0,0,1.63-.93.77.77,0,0,1,.85-.08c.69.26,1.37.55,2.08.77,1.07.32,2.09.79,3.15,1.11a5.88,5.88,0,0,1,1.87,1.13,10.84,10.84,0,0,1,1.38,1.41,2.1,2.1,0,0,0,1,.76,1.12,1.12,0,0,1,.8,1.13C295.15,178.25,295.16,178.44,295.16,178.64Z"/><path class="cls-3" d="M254,169.1a2.23,2.23,0,0,1,1.06-1.72c.95-.36,1.75-1,2.67-1.41a2.89,2.89,0,0,0,1.27-1.13,2.13,2.13,0,0,1,.84-.76,4.49,4.49,0,0,0,1.64-1.57c.18-.28.38-.54.57-.81s.41-.31.6,0a5.75,5.75,0,0,0,2,1.6.52.52,0,0,1,.22.77,3.24,3.24,0,0,1-.75,1,1.26,1.26,0,0,0-.35,1.49c.25.68.49,1.38.77,2,.11.27.11.46-.12.64a2.88,2.88,0,0,0-1.13,1.66c-.06.26-.32.36-.53.49a1.07,1.07,0,0,0-.6,1.15,3.14,3.14,0,0,1-.18,1.45,1.7,1.7,0,0,1-2.15,1l-1.07-.4a1.88,1.88,0,0,0-1.19-.14.68.68,0,0,1-.69-.15,1.09,1.09,0,0,0-.82-.3.68.68,0,0,1-.76-.61,3.89,3.89,0,0,0-.7-1.55,4,4,0,0,1-.28-.59.69.69,0,0,1-.05-.24A4.8,4.8,0,0,0,254,169.1Z"/><path class="cls-3" d="M254.77,177.89a1.12,1.12,0,0,0,.42-.07,2,2,0,0,1,1.82,0,3.74,3.74,0,0,0,1.37.2.92.92,0,0,1,1,.45,1.65,1.65,0,0,0,1,.79,1,1,0,0,1,.54.36c.3.36.19.67-.29.74a2.77,2.77,0,0,1-1.84-.06c-.19-.09-.38,0-.56,0a5.31,5.31,0,0,1-3.11-.54,3.17,3.17,0,0,0-1.58-.4,3.53,3.53,0,0,1-2.14-.67c-.35-.25-.81-.25-1.17-.55a8.17,8.17,0,0,1-1.38-1.62,2.89,2.89,0,0,0-.65-.74,4.74,4.74,0,0,1-1.29-1.35,7.66,7.66,0,0,0-1.15-1.39,1.24,1.24,0,0,1-.35-.55,10.09,10.09,0,0,0-1.33-2.35,7.33,7.33,0,0,1-.86-1.58,1.6,1.6,0,0,0-.82-1.08.57.57,0,0,1-.28-.29c-.35-1.11-1.34-1.69-2.07-2.48-.24-.27-.54-.48-.53-.89s.19-.65.6-.56.76.1,1.14.17a1.88,1.88,0,0,1,1.48.92,1,1,0,0,0,.24.32c1.41,1.1,2.51,2.53,3.94,3.6.59.44,1.2.85,1.75,1.35a4.34,4.34,0,0,1,1.21,2,2,2,0,0,0,.74,1.13,1.35,1.35,0,0,1,.47,1.32,4.7,4.7,0,0,0,.1,2,1.63,1.63,0,0,0,1.34,1.18,3.89,3.89,0,0,1,1.39.43A2.15,2.15,0,0,0,254.77,177.89Z"/><path class="cls-3" d="M183.87,197a2.25,2.25,0,0,1,.52-1.67,3,3,0,0,0,.66-2.6,9.69,9.69,0,0,1-.13-1.22c-.12-.73.34-1.3.62-1.92.18-.39.62-.46,1-.53a3.88,3.88,0,0,0,2.88-2.54,12.55,12.55,0,0,1,1.11-1.81c.23-.34.51-.31.69.07a5.65,5.65,0,0,1,.59,1.61,9.26,9.26,0,0,0,.2,1,2.47,2.47,0,0,1-.3,2.11,4.28,4.28,0,0,0-.63,1.75,15.15,15.15,0,0,1-1.06,3.17,39.52,39.52,0,0,0-1.32,3.79A11,11,0,0,1,188,200a.8.8,0,0,1-.36.32,8.68,8.68,0,0,1-1.46.5,2,2,0,0,1-1.93-1.47A8.22,8.22,0,0,1,183.87,197Z"/><path class="cls-3" d="M279.3,118.65a.77.77,0,0,1-.34.55c-.37.31-.75.63-1.15.91s-.7.77-.34,1.2c.76.88.89,2,1.5,3a2.84,2.84,0,0,1,.22,1,14.49,14.49,0,0,1,.13,2.37.8.8,0,0,1-.66.83l-.71.2c-.77.24-1.58.4-1.93,1.31a.9.9,0,0,1-.91.46,6.1,6.1,0,0,0-1.21.19c-.81.16-1.45.5-1.57,1.42a1.19,1.19,0,0,1-.42.69.45.45,0,0,1-.66.06,7.33,7.33,0,0,1-1.4-1.49,2.15,2.15,0,0,1,.24-2.31,3.41,3.41,0,0,1,1.12-1.28,2.06,2.06,0,0,1,1.19-.43,1.8,1.8,0,0,0,1.66-.87,5.42,5.42,0,0,1,1.75-1.69,1.15,1.15,0,0,0,.52-1.19,6.59,6.59,0,0,0-.64-1.84c-.15-.41-.44-.76-.62-1.16a2.83,2.83,0,0,0-.77-1,1,1,0,0,1-.38-1.23,1.92,1.92,0,0,0-.09-1.52.63.63,0,0,1,.05-.83c.26-.23.56-.13.84,0,.55.26,1.11.47,1.65.75a3.13,3.13,0,0,0,1.64.44.54.54,0,0,1,.61.3,2.83,2.83,0,0,0,.55.81A.45.45,0,0,1,279.3,118.65Z"/><path class="cls-3" d="M311.81,213.42a5.47,5.47,0,0,0-.12-1.15,1.21,1.21,0,0,1,0-.73c.24-.68.56-.72,1-.2s.69.76.69,1.34a4.92,4.92,0,0,0,.16.72c.11.71.43,1.15,1.24,1.11a.65.65,0,0,1,.68.37.73.73,0,0,1-.33.78,13.8,13.8,0,0,1-1.51,1.13,5,5,0,0,0-1.33,1.08,6,6,0,0,1-3.38,1.88,2.07,2.07,0,0,0-.94.46c-.83.71-1.75,1.31-2.56,2a3,3,0,0,1-1.23.62,6,6,0,0,0-2.66,1.35,8.49,8.49,0,0,1-2.28,1.26,1.31,1.31,0,0,1-.73.06c-.41-.09-.81-.13-1.22-.18-.65-.1-.75-.38-.34-.86a1.26,1.26,0,0,1,.34-.35,27.54,27.54,0,0,1,4.23-2.31c.29-.1.58-.15.87-.25a5.86,5.86,0,0,0,2.48-1.68,1.78,1.78,0,0,1,.94-.63.65.65,0,0,0,.35-.2,2.63,2.63,0,0,1,1.83-.94A1.77,1.77,0,0,0,309.5,217a.68.68,0,0,1,.44-.46A3.09,3.09,0,0,0,311.81,213.42Z"/><path class="cls-3" d="M137.3,100.85a1.57,1.57,0,0,1,1.73,1.56,5,5,0,0,0,.82,2.61.66.66,0,0,0,.26.29,1.43,1.43,0,0,1,.63,1,1.07,1.07,0,0,0,.81.9c.74.23.78.62.22,1.19-.19.2-.41.36-.42.67a.48.48,0,0,1-.36.41,4,4,0,0,1-1.49.42,4.91,4.91,0,0,0-2.75.64.55.55,0,0,1-.22.1c-.56.17-.88-.11-.73-.67a12.42,12.42,0,0,0,.5-1.81c0-.19.08-.37.1-.56a.75.75,0,0,1,.69-.7c.31-.06.73,0,.75-.46a1.08,1.08,0,0,0-.62-1,4.13,4.13,0,0,1-1.2-.84,2.63,2.63,0,0,1-.63-1.44,2,2,0,0,1,.51-1.62A1.32,1.32,0,0,1,137.3,100.85Z"/><path class="cls-3" d="M267.14,168.3a14.23,14.23,0,0,0,1.45.27c.78.12,1.54.23,2-.65a.36.36,0,0,1,.5-.16.46.46,0,0,1,.2.5,1.94,1.94,0,0,1-.63,1.21,2.23,2.23,0,0,0-.88,1.43.94.94,0,0,1-.5.62,1.49,1.49,0,0,0-.73,2c.16.61.33,1.21.49,1.82a1.38,1.38,0,0,1,.1.4c0,.28.13.62-.2.82s-.55,0-.78-.23a2.08,2.08,0,0,0-1.32-.35.66.66,0,0,0-.63.45.77.77,0,0,1-.28.4.72.72,0,0,1-.71,0c-.24-.12-.2-.37-.17-.58a4.35,4.35,0,0,0,.14-.89,1.16,1.16,0,0,0-.41-1,.9.9,0,0,1-.17-1.37,1.21,1.21,0,0,0,.28-.74,1.63,1.63,0,0,1,.21-.78,1.33,1.33,0,0,0,.2-.87,1.65,1.65,0,0,1,1-1.8C266.55,168.65,266.7,168.22,267.14,168.3Z"/><path class="cls-3" d="M126.36,95.88a.91.91,0,0,1-.21,0,6.49,6.49,0,0,0-2.09-.34,1,1,0,0,1-.89-.72,2,2,0,0,0-.67-1c-.29-.22-.27-.44,0-.67a1.83,1.83,0,0,1,2-.53,6,6,0,0,0,3.15,0c.41-.07.82-.06,1.22-.11a2,2,0,0,1,1.75.86.49.49,0,0,1,0,.73,1.55,1.55,0,0,1-.78.57,14,14,0,0,0-3.14,1.14A1.33,1.33,0,0,1,126.36,95.88Z"/><path class="cls-3" d="M264,150.46a7.74,7.74,0,0,1,.37-2.19.59.59,0,0,1,.28-.39A1.55,1.55,0,0,1,267,149a2.66,2.66,0,0,1-.43,1.94c-.4.51-.12,1.1.09,1.63a.39.39,0,0,0,.49.19c.76-.21,1.35.33,2,.48.29.06.41.8.28,1.27s-.47.29-.75.29a2.12,2.12,0,0,1-1.1-.52,2.43,2.43,0,0,0-1.26-.51,3.14,3.14,0,0,1-2.34-2.72C264,150.9,264,150.71,264,150.46Z"/><path class="cls-3" d="M55.08,142.35a4.23,4.23,0,0,1,2,.44,6.4,6.4,0,0,1,2.72,1.61c.44.49,1.14.63,1.69,1,.27.18.58.3.85.48.45.3.44.57,0,.87a1.1,1.1,0,0,1-1.24.06,1.48,1.48,0,0,0-1.31-.22c-.5.16-.63,0-.77-.54a.82.82,0,0,0-.39-.58,6.13,6.13,0,0,1-1.53-1.1.59.59,0,0,0-.27-.17,18.2,18.2,0,0,0-2.73-.5c-.53,0-1,.37-1.47.45-.27,0-.6.38-.8,0s.17-.56.37-.76a2.46,2.46,0,0,1,1.33-.75A4.78,4.78,0,0,1,55.08,142.35Z"/><path class="cls-3" d="M132.15,109.09c-.37,0-.58-.19-.77-.48a.67.67,0,0,1,0-.89,1.63,1.63,0,0,0,.3-1.31c-.08-.6,0-.68.55-.78a2.45,2.45,0,0,0,1.09-.7,2.35,2.35,0,0,1,2.23-.11.79.79,0,0,1,.11,1.32.94.94,0,0,0-.39.83,2.21,2.21,0,0,1-.3.93.54.54,0,0,1-.5.36,3,3,0,0,0-1.59.59A1.09,1.09,0,0,1,132.15,109.09Z"/><path class="cls-3" d="M64.65,146.48c.09,0,.34,0,.58,0s.44-.06.56,0c.61.49,1.43.51,2.06,1,.23.17.47.31.41.64s-.3.34-.55.39l-2.31.44a10.33,10.33,0,0,1-3.16-.35.28.28,0,0,1-.26-.27.32.32,0,0,1,.29-.33c.35-.07.7-.13,1-.17s.42-.21.28-.5-.55-.42-.34-.75.61,0,.91-.09A2.39,2.39,0,0,1,64.65,146.48Z"/></g><polygon class="cls-4" points="255.31 238.58 244.08 219.15 255.31 199.71 277.77 199.71 289 219.15 277.77 238.58 255.31 238.58"/><polygon class="cls-5" points="138.74 181.19 121.76 151.8 138.74 122.41 172.71 122.41 189.69 151.8 172.71 181.19 138.74 181.19"/><polygon class="cls-4" points="186.21 103.89 174.98 84.46 186.21 65.02 208.67 65.02 219.9 84.46 208.67 103.89 186.21 103.89"/><polygon class="cls-4" points="139.02 46.51 127.79 27.07 139.02 7.63 161.48 7.63 172.71 27.07 161.48 46.51 139.02 46.51"/><polygon class="cls-4" points="102.88 103.89 91.65 84.46 102.88 65.02 125.34 65.02 136.57 84.46 125.34 103.89 102.88 103.89"/><polygon class="cls-4" points="225.1 171.24 213.87 151.8 225.1 132.37 247.56 132.37 258.79 151.8 247.56 171.24 225.1 171.24"/><polygon class="cls-4" points="149.97 295.97 138.74 276.54 149.97 257.1 172.43 257.1 183.66 276.54 172.43 295.97 149.97 295.97"/><polygon class="cls-4" points="63.89 171.24 52.66 151.8 63.89 132.37 86.35 132.37 97.58 151.8 86.35 171.24 63.89 171.24"/><polygon class="cls-4" points="102.88 238.58 91.65 219.15 102.88 199.71 125.34 199.71 136.57 219.15 125.34 238.58 102.88 238.58"/><polygon class="cls-4" points="186.21 238.58 174.98 219.15 186.21 199.71 208.67 199.71 219.9 219.15 208.67 238.58 186.21 238.58"/><polygon class="cls-4" points="27.49 228.83 16.25 209.4 27.49 189.96 49.95 189.96 61.18 209.4 49.95 228.83 27.49 228.83"/><polygon class="cls-4" points="247.92 103.89 236.69 84.46 247.92 65.02 270.38 65.02 281.61 84.46 270.38 103.89 247.92 103.89"/><polygon class="cls-4" points="41.43 103.89 30.2 84.46 41.43 65.02 63.89 65.02 75.12 84.46 63.89 103.89 41.43 103.89"/><line class="cls-4" x1="172.71" y1="122.41" x2="186.1" y2="103.89"/><line class="cls-4" x1="50.32" y1="189.96" x2="63.72" y2="171.45"/><line class="cls-4" x1="125.34" y1="65.02" x2="138.74" y2="46.5"/><line class="cls-4" x1="125.34" y1="199.71" x2="138.74" y2="181.19"/><line class="cls-4" x1="172.71" y1="257.1" x2="186.1" y2="238.58"/><line class="cls-4" x1="138.74" y1="122.41" x2="125.34" y2="103.89"/><line class="cls-4" x1="186.1" y1="199.71" x2="172.71" y2="181.19"/><line class="cls-4" x1="219.9" y1="84.46" x2="237.06" y2="84.46"/><line class="cls-4" x1="74.49" y1="84.46" x2="91.65" y2="84.46"/><line class="cls-4" x1="189.69" y1="151.8" x2="213.87" y2="151.8"/><line class="cls-4" x1="219.9" y1="219.15" x2="244.08" y2="219.15"/><line class="cls-4" x1="97.58" y1="151.8" x2="121.76" y2="151.8"/><circle class="cls-6" cx="189.69" cy="151.8" r="2.08"/><circle class="cls-6" cx="213.87" cy="151.8" r="2.08"/><path class="cls-6" d="M174.78,181.19a2.08,2.08,0,1,1-2.07-2.07A2.08,2.08,0,0,1,174.78,181.19Z"/><path class="cls-6" d="M188.18,199.71a2.08,2.08,0,1,1-2.08-2.08A2.08,2.08,0,0,1,188.18,199.71Z"/><path class="cls-6" d="M222,219.15a2.08,2.08,0,1,1-2.08-2.08A2.08,2.08,0,0,1,222,219.15Z"/><path class="cls-6" d="M174.78,257.1a2.08,2.08,0,1,1-2.07-2.08A2.08,2.08,0,0,1,174.78,257.1Z"/><path class="cls-6" d="M127.42,199.71a2.08,2.08,0,1,1-2.08-2.08A2.08,2.08,0,0,1,127.42,199.71Z"/><path class="cls-6" d="M140.82,181.19a2.08,2.08,0,1,1-2.08-2.07A2.08,2.08,0,0,1,140.82,181.19Z"/><path class="cls-6" d="M123.84,151.8a2.08,2.08,0,1,1-2.08-2.07A2.08,2.08,0,0,1,123.84,151.8Z"/><circle class="cls-6" cx="138.74" cy="122.41" r="2.08"/><path class="cls-6" d="M127.42,103.89a2.08,2.08,0,1,1-2.08-2.07A2.08,2.08,0,0,1,127.42,103.89Z"/><path class="cls-6" d="M188.18,103.89a2.08,2.08,0,1,1-2.08-2.07A2.08,2.08,0,0,1,188.18,103.89Z"/><circle class="cls-6" cx="92.26" cy="84.46" r="2.08"/><path class="cls-6" d="M127.42,65A2.08,2.08,0,1,1,125.34,63,2.08,2.08,0,0,1,127.42,65Z"/><circle class="cls-6" cx="138.74" cy="46.5" r="2.08"/><circle class="cls-6" cx="219.9" cy="84.46" r="2.08"/><circle class="cls-6" cx="236.69" cy="84.46" r="2.08"/><circle class="cls-6" cx="75.12" cy="84.46" r="2.08"/><circle class="cls-6" cx="172.71" cy="122.41" r="2.08"/><path class="cls-6" d="M99.66,151.8a2.08,2.08,0,1,1-2.08-2.07A2.08,2.08,0,0,1,99.66,151.8Z"/><path class="cls-6" d="M66,171.24a2.08,2.08,0,1,1-2.08-2.08A2.07,2.07,0,0,1,66,171.24Z"/><path class="cls-6" d="M52.4,190a2.08,2.08,0,1,1-2.08-2.07A2.08,2.08,0,0,1,52.4,190Z"/><circle class="cls-6" cx="186.1" cy="238.58" r="2.08"/><path class="cls-6" d="M246.16,219.15a2.08,2.08,0,1,1-2.08-2.08A2.08,2.08,0,0,1,246.16,219.15Z"/><line class="cls-4" x1="18.45" y1="209.97" x2="28.72" y2="192.04"/><line class="cls-4" x1="52.66" y1="228.83" x2="62.92" y2="210.9"/><line class="cls-4" x1="64.7" y1="134.61" x2="85.29" y2="134.61"/><line class="cls-4" x1="98.41" y1="155.01" x2="89.01" y2="171.45"/><line class="cls-4" x1="102.95" y1="197.63" x2="121.76" y2="197.63"/><line class="cls-4" x1="124.02" y1="236.51" x2="133.75" y2="219.87"/><line class="cls-4" x1="141.85" y1="183.27" x2="169.41" y2="183.27"/><line class="cls-4" x1="175.73" y1="259.18" x2="184.81" y2="274.7"/><line class="cls-4" x1="137.68" y1="279.44" x2="146.76" y2="294.96"/><line class="cls-4" x1="189.18" y1="240.66" x2="207.82" y2="240.66"/><line class="cls-4" x1="210.9" y1="199.71" x2="220.23" y2="215.42"/><line class="cls-4" x1="223.38" y1="221.22" x2="240.89" y2="221.22"/><line class="cls-4" x1="276.06" y1="201.79" x2="286.11" y2="219.15"/><line class="cls-4" x1="256.45" y1="240.66" x2="277.03" y2="240.66"/><line class="cls-4" x1="193.07" y1="153.88" x2="210.9" y2="153.88"/><line class="cls-4" x1="226.3" y1="173.48" x2="247.37" y2="173.48"/><line class="cls-4" x1="246.08" y1="134.28" x2="256.12" y2="151.8"/><line class="cls-4" x1="220.47" y1="87.8" x2="211.47" y2="103.89"/><line class="cls-4" x1="249.48" y1="105.97" x2="269.42" y2="105.97"/><line class="cls-4" x1="268.93" y1="67.1" x2="279.14" y2="84.46"/><line class="cls-4" x1="187.24" y1="67.1" x2="207.66" y2="67.1"/><line class="cls-4" x1="129.05" y1="105.29" x2="138.74" y2="118.57"/><line class="cls-4" x1="95.5" y1="86.53" x2="104.25" y2="101.82"/><line class="cls-4" x1="129.05" y1="67.1" x2="137.32" y2="81.48"/><line class="cls-4" x1="142.5" y1="48.58" x2="160.17" y2="48.58"/><line class="cls-4" x1="160.17" y1="9.74" x2="170.06" y2="27.07"/><line class="cls-7" x1="75.12" y1="88.29" x2="66.81" y2="102.7"/><line class="cls-7" x1="42.82" y1="67.42" x2="33.09" y2="83.91"/><text class="cls-8" transform="translate(145.55 117.83)"><tspan class="cls-9">T</tspan><tspan x="3.5" y="0">OKEN</tspan></text><text class="cls-8" transform="translate(185.33 60.92)"><tspan class="cls-10">P</tspan><tspan class="cls-11" x="3.47" y="0">A</tspan><tspan x="7.45" y="0">S</tspan><tspan class="cls-12" x="11.12" y="0">S</tspan><tspan class="cls-13" x="14.69" y="0">W</tspan><tspan x="20.84" y="0">ORD</tspan></text><text class="cls-8" transform="translate(58.89 130.36)"><tspan class="cls-10">P</tspan><tspan class="cls-11" x="3.47" y="0">A</tspan><tspan x="7.45" y="0">S</tspan><tspan class="cls-12" x="11.12" y="0">S</tspan><tspan class="cls-13" x="14.69" y="0">W</tspan><tspan x="20.84" y="0">ORD</tspan></text><text class="cls-8" transform="matrix(0.51, 0.86, -0.86, 0.51, 20.11, 84.14)"><tspan class="cls-14">P</tspan><tspan class="cls-15" x="3.47" y="0">A</tspan><tspan x="7.45" y="0">S</tspan><tspan class="cls-16" x="11.12" y="0">S</tspan><tspan class="cls-17" x="14.69" y="0">W</tspan><tspan class="cls-18" x="20.84" y="0">ORD</tspan></text><text class="cls-8" transform="translate(141.05 54.37)"><tspan class="cls-9">T</tspan><tspan x="3.5" y="0">OKEN</tspan></text><text class="cls-8" transform="matrix(0.5, 0.87, -0.87, 0.5, 127.98, 200.67)"><tspan class="cls-19">P</tspan><tspan class="cls-20" x="3.47" y="0">A</tspan><tspan x="7.45" y="0">S</tspan><tspan class="cls-21" x="11.12" y="0">S</tspan><tspan class="cls-22" x="14.69" y="0">W</tspan><tspan x="20.84" y="0">ORD</tspan></text><text class="cls-8" transform="matrix(0.5, 0.87, -0.87, 0.5, 117.32, 159.73)">S<tspan class="cls-23" x="3.67" y="0">E</tspan><tspan class="cls-24" x="7.19" y="0">CURIT</tspan><tspan class="cls-25" x="25.1" y="0">Y</tspan></text><text class="cls-8" transform="matrix(0.5, 0.87, -0.87, 0.5, 162.46, 216.59)">S<tspan class="cls-23" x="3.67" y="0">E</tspan><tspan class="cls-24" x="7.19" y="0">CURIT</tspan><tspan class="cls-25" x="25.1" y="0">Y</tspan></text><text class="cls-8" transform="matrix(0.5, 0.87, -0.87, 0.5, 161.42, 2.55)">S<tspan class="cls-23" x="3.67" y="0">E</tspan><tspan class="cls-24" x="7.19" y="0">CURIT</tspan><tspan class="cls-25" x="25.1" y="0">Y</tspan></text><text class="cls-8" transform="translate(215.17 130.36)">PR<tspan class="cls-9" x="7.7" y="0">O</tspan><tspan x="12.02" y="0">T</tspan><tspan class="cls-26" x="15.71" y="0">E</tspan><tspan class="cls-27" x="19.24" y="0">C</tspan><tspan x="23.3" y="0">TION</tspan></text><text class="cls-8" transform="matrix(1, -0.02, 0.02, 1, 20.16, 240.72)">PR<tspan class="cls-28" x="7.7" y="0">O</tspan><tspan x="12.02" y="0">T</tspan><tspan class="cls-29" x="15.71" y="0">E</tspan><tspan class="cls-30" x="19.24" y="0">C</tspan><tspan x="23.3" y="0">TION</tspan></text><text class="cls-8" transform="translate(29.55 62.81)"><tspan class="cls-31">A</tspan><tspan x="3.86" y="0">UTHENTI</tspan><tspan class="cls-32" x="30.08" y="0">C</tspan><tspan class="cls-33" x="34.12" y="0">A</tspan><tspan class="cls-34" x="37.75" y="0">TION</tspan></text><text class="cls-8" transform="translate(195.18 159.76)"><tspan class="cls-35">A</tspan><tspan x="3.86" y="0">UTH</tspan></text><text class="cls-8" transform="translate(258.01 196.84)"><tspan class="cls-35">A</tspan><tspan x="3.86" y="0">UTH</tspan></text><text class="cls-8" transform="translate(236.37 60.92)"><tspan class="cls-35">A</tspan><tspan x="3.86" y="0">UTHENTI</tspan><tspan class="cls-32" x="30.08" y="0">C</tspan><tspan class="cls-33" x="34.12" y="0">A</tspan><tspan class="cls-34" x="37.75" y="0">TION</tspan></text><text class="cls-8" transform="translate(228.65 180.79)"><tspan class="cls-35">A</tspan><tspan x="3.86" y="0">UTH</tspan></text><text class="cls-36" transform="matrix(0.51, -0.86, 0.86, 0.51, 273.57, 106.81)"><tspan class="cls-37">A</tspan><tspan x="1.83" y="0">UTHORIZ</tspan><tspan class="cls-38" x="14.4" y="0">A</tspan><tspan x="16.12" y="0">TION</tspan></text><text class="cls-39" transform="translate(98.66 88.29)">C<tspan class="cls-40" x="8.12" y="0">O</tspan><tspan class="cls-41" x="16.85" y="0">A</tspan><tspan class="cls-42" x="24.95" y="0">P</tspan></text><text class="cls-43" transform="translate(185.93 89.4)">UD<tspan class="cls-42" x="17.62" y="0">P</tspan></text><text class="cls-43" transform="translate(220.61 156.1)">HTT<tspan class="cls-42" x="23.7" y="0">P</tspan></text><text class="cls-43" transform="translate(184.41 224.19)">GCM</text><text class="cls-43" transform="translate(101.66 222.22)"><tspan class="cls-44">F</tspan><tspan x="6.76" y="0">CM</tspan></text><text class="cls-43" transform="translate(148.76 280.44)">APN</text><text class="cls-43" transform="translate(57.72 157.49)">M<tspan class="cls-45" x="10.44" y="0">Q</tspan><tspan x="19.04" y="0">T</tspan><tspan class="cls-46" x="26.44" y="0">T</tspan></text><line class="cls-7" x1="142.1" y1="120.34" x2="169.66" y2="120.34"/></g></g></g></svg>