<svg xmlns="http://www.w3.org/2000/svg" xmlns:xlink="http://www.w3.org/1999/xlink" viewBox="0 0 124.1 118.61"><defs><style>.cls-1{fill:#f2695f;}.cls-2{font-size:11.97px;}.cls-10,.cls-11,.cls-13,.cls-2,.cls-22,.cls-7,.cls-9{fill:#fff;}.cls-10,.cls-11,.cls-13,.cls-2,.cls-7,.cls-9{font-family:Roboto-Bold, Roboto;font-weight:700;}.cls-3{letter-spacing:-0.02em;}.cls-4{letter-spacing:-0.01em;}.cls-5{letter-spacing:0em;}.cls-6{fill:#07b9af;}.cls-7{font-size:12.44px;}.cls-8{fill:#7aa841;}.cls-9{font-size:9.77px;}.cls-10{font-size:7.09px;}.cls-11{font-size:9.74px;}.cls-12{fill:#fcb316;}.cls-13{font-size:12.02px;}.cls-14{letter-spacing:-0.01em;}.cls-15{fill:#f9a346;}.cls-16{fill:#fdbc43;}.cls-17{fill:url(#linear-gradient);}.cls-18{fill:#63c5ba;}.cls-19{fill:#f37963;}.cls-20{fill:#fee045;}.cls-21{fill:#ec5754;}.cls-23{fill:#d4e05b;}.cls-24{fill:#39c2d6;}.cls-25{fill:#f15e5c;}.cls-26{fill:#f9fdfe;}</style><linearGradient id="linear-gradient" x1="81.3" y1="112.82" x2="55.67" y2="87.68" gradientUnits="userSpaceOnUse"><stop offset="0.2" stop-color="#ffde17"/><stop offset="0.2" stop-color="#ffe757"/><stop offset="0.2" stop-color="#ffef8f"/><stop offset="0.2" stop-color="#fff5bb"/><stop offset="0.21" stop-color="#fff9da"/><stop offset="0.21" stop-color="#fffced"/><stop offset="0.21" stop-color="#fffdf4"/><stop offset="0.21" stop-color="#fffdf6"/><stop offset="0.23" stop-color="#fffffd"/><stop offset="0.28" stop-color="#fff"/><stop offset="0.28" stop-color="#fde2e3"/><stop offset="0.28" stop-color="#f9b9bb"/><stop offset="0.28" stop-color="#f69397"/><stop offset="0.28" stop-color="#f47378"/><stop offset="0.28" stop-color="#f2575d"/><stop offset="0.28" stop-color="#f04148"/><stop offset="0.28" stop-color="#ef3138"/><stop offset="0.29" stop-color="#ee252c"/><stop offset="0.29" stop-color="#ed1e26"/><stop offset="0.29" stop-color="#ed1c24"/><stop offset="0.33" stop-color="#ed1c24"/><stop offset="0.61" stop-color="#ed1c24"/><stop offset="0.61" stop-color="#ed1e26"/><stop offset="0.61" stop-color="#ee252c"/><stop offset="0.61" stop-color="#ef3138"/><stop offset="0.61" stop-color="#f04148"/><stop offset="0.61" stop-color="#f2575d"/><stop offset="0.61" stop-color="#f47378"/><stop offset="0.61" stop-color="#f69397"/><stop offset="0.61" stop-color="#f9b9bb"/><stop offset="0.61" stop-color="#fde2e3"/><stop offset="0.61" stop-color="#fff"/><stop offset="0.67" stop-color="#fdfdfe"/><stop offset="0.69" stop-color="#f6f8fc"/><stop offset="0.69" stop-color="#f2f4fa"/><stop offset="0.69" stop-color="#edf1f8"/><stop offset="0.69" stop-color="#e0e7f4"/><stop offset="0.69" stop-color="#c9d7ec"/><stop offset="0.69" stop-color="#a9c1e1"/><stop offset="0.7" stop-color="#7fa4d3"/><stop offset="0.7" stop-color="#4e81c2"/></linearGradient></defs><title>slider2a</title><g id="Layer_2" data-name="Layer 2"><g id="Layer_1-2" data-name="Layer 1"><ellipse class="cls-1" cx="21" cy="85.79" rx="21" ry="22.44"/><text class="cls-2" transform="translate(3.31 90.04) scale(0.94 1)">G<tspan class="cls-3" x="8.15" y="0">r</tspan><tspan x="12.31" y="0">o</tspan><tspan class="cls-4" x="19.08" y="0">o</tspan><tspan class="cls-5" x="25.76" y="0">vy</tspan></text><ellipse class="cls-6" cx="96.01" cy="38.72" rx="18.42" ry="19.69"/><text class="cls-7" transform="translate(81.62 42.98) scale(0.94 1)">Scala</text><ellipse class="cls-8" cx="21" cy="51.43" rx="19.81" ry="21.17"/><text class="cls-9" transform="translate(5.27 54.64) scale(0.94 1)">Node.js</text><ellipse class="cls-1" cx="44.16" cy="26.3" rx="14.47" ry="15.47"/><text class="cls-10" transform="translate(31.98 28.49) scale(0.94 1)">Sensors</text><path class="cls-6" d="M54.83,69.82c0,7-5.27,12.59-11.77,12.59S31.28,76.78,31.28,69.82s5.27-12.58,11.78-12.58S54.83,62.87,54.83,69.82Z"/><text class="cls-11" transform="translate(40.05 73.21) scale(0.94 1)">{}</text><path class="cls-12" d="M91.18,19c0,10.51-8,19-17.8,19s-17.8-8.52-17.8-19,8-19,17.8-19S91.18,8.52,91.18,19Z"/><text class="cls-13" transform="translate(61.45 22.53) scale(0.94 1)">J<tspan class="cls-14" x="6.71" y="0">av</tspan><tspan x="19.05" y="0">a</tspan></text><polygon class="cls-15" points="86.72 83.66 52.05 83.66 55.61 78.58 84.35 78.58 86.72 83.66"/><rect class="cls-16" x="55.61" y="78.58" width="28.72" height="5.08"/><rect class="cls-17" x="52.05" y="83.66" width="34.67" height="34.95"/><path class="cls-18" d="M75,83.66S78.37,67.42,91,59.72l3.4,3.63S83,65.1,76.47,83.66Z"/><path class="cls-18" d="M63.32,83.66s-.15-21.87-18.91-28.77l-.95-4.71h4.83S64,59.36,64,83.66Z"/><path class="cls-19" d="M60.17,83.66s.39-10.91-11.64-14.12l-.73-2,2.23-.3s10.74,3.2,10.74,16.4Z"/><polygon class="cls-20" points="69.28 83.66 67.45 57.84 70.61 53.73 73.38 57.84 70.67 83.66 69.28 83.66"/><polygon class="cls-21" points="79.05 64.03 77.14 65.27 84.77 47.24 87.39 44.52 79.05 64.03"/><polygon class="cls-20" points="94.49 64.24 93.26 65.01 94.12 66.35 94.18 68.33 95.59 67.63 97.39 68.41 97.1 66.06 98.14 64.07 96.25 63.84 95.21 62.49 94.49 64.24"/><path class="cls-22" d="M99.21,64.16a1.39,1.39,0,0,0-1.07,1.08,1.38,1.38,0,0,0-1.07-1.08,1.38,1.38,0,0,0,1.07-1.08A1.39,1.39,0,0,0,99.21,64.16Z"/><ellipse class="cls-18" cx="58.79" cy="52.55" rx="1.98" ry="2"/><ellipse class="cls-18" cx="76.72" cy="71.28" rx="1.98" ry="2"/><ellipse class="cls-18" cx="45.54" cy="73.08" rx="1.98" ry="2"/><ellipse class="cls-18" cx="101.89" cy="46.58" rx="1.98" ry="2"/><ellipse class="cls-18" cx="91.27" cy="81.27" rx="1.98" ry="2"/><path class="cls-23" d="M62.42,62.43s1.66,1.24,1.62,2.32l1.66-.62s0-2.58-.88-3Z"/><path class="cls-16" d="M55.38,76.6s-.08-1.52.53-1.58l.71.79a1,1,0,0,0-.23,1Z"/><path class="cls-16" d="M76.15,48.23a4.52,4.52,0,0,1,1.19,2.43l1.51-.48a4.08,4.08,0,0,0,0-2.76Z"/><path class="cls-24" d="M95.37,40.53a2.3,2.3,0,0,0-1.17,2.19l.42.22s.48-1.35,1.19-1.2C95.81,41.74,96.81,40.73,95.37,40.53Z"/><polygon class="cls-24" points="39.07 42.44 39.07 45.04 40.06 45.2 40.49 43.12 39.07 42.44"/><polygon class="cls-25" points="110.43 39.16 110.43 41.76 111.42 41.92 111.85 39.84 110.43 39.16"/><polygon class="cls-25" points="34.88 51.5 36.58 52.74 36.26 53.45 34.6 53.06 34.88 51.5"/><polygon class="cls-25" points="33.03 38.13 34.74 39.37 34.42 40.09 32.76 39.69 33.03 38.13"/><polygon class="cls-23" points="51.97 40.81 52.25 43.56 53.08 43.28 53.08 40.93 51.97 40.81"/><polygon class="cls-23" points="30.24 54.02 31.63 53.98 31.64 53.13 30.48 52.93 30.24 54.02"/><polygon class="cls-20" points="25.9 47.06 25.93 48.88 26.78 48.81 26.98 47.28 25.9 47.06"/><polygon class="cls-20" points="24.19 38.66 25.23 40.15 25.9 39.62 25.22 38.24 24.19 38.66"/><polygon class="cls-20" points="44.06 38.58 45.1 40.07 45.76 39.53 45.09 38.15 44.06 38.58"/><polygon class="cls-23" points="38.58 50.84 40.52 52.78 40.99 52.03 39.51 50.22 38.58 50.84"/><polygon class="cls-24" points="48.53 62.51 49.04 64.31 50.03 64.31 50.03 62.92 48.53 62.51"/><polygon class="cls-20" points="104.76 40.84 105.28 42.63 106.27 42.63 106.27 41.24 104.76 40.84"/><polygon class="cls-24" points="108.33 49.29 108.84 51.08 109.83 51.08 109.83 49.69 108.33 49.29"/><polygon class="cls-25" points="69.97 44.52 69.97 47.69 71.6 47.29 70.79 44.78 69.97 44.52"/><polygon class="cls-20" points="64.22 52.53 64.22 53.94 65.84 53.76 65.03 52.64 64.22 52.53"/><polygon class="cls-20" points="89.69 40.53 89.69 41.94 91.31 41.76 90.5 40.64 89.69 40.53"/><polygon class="cls-20" points="76.53 59.83 75.22 60.31 75.94 61.79 76.7 60.64 76.53 59.83"/><polygon class="cls-20" points="81.62 79.04 80.31 79.53 81.03 81.01 81.79 79.86 81.62 79.04"/><path class="cls-23" d="M82.07,39.27s-.26,1-.28,1.16,1.15.3,1.15.3l.56-1.62Z"/><polygon class="cls-23" points="86.72 74.6 86.41 76.08 87.39 76.24 88.11 74.92 86.72 74.6"/><polygon class="cls-21" points="74.81 52.41 74.49 53.89 75.48 54.05 76.19 52.73 74.81 52.41"/><polygon class="cls-21" points="45.53 44.12 45.22 45.59 46.2 45.76 46.92 44.44 45.53 44.12"/><polygon class="cls-21" points="43.52 65.45 43.21 66.92 44.2 67.08 44.91 65.77 43.52 65.45"/><polygon class="cls-21" points="112.51 54.07 112.19 55.55 113.18 55.71 113.89 54.39 112.51 54.07"/><polygon class="cls-21" points="34.06 44.12 33.75 45.59 34.74 45.76 35.45 44.44 34.06 44.12"/><polygon class="cls-16" points="45.19 79.83 46.67 81.12 45.93 81.86 44.41 81.12 45.19 79.83"/><polygon class="cls-24" points="32.4 57.68 33.88 58.98 33.14 59.72 31.63 58.98 32.4 57.68"/><polygon class="cls-25" points="65.86 81.86 66.14 80.03 67.45 80.19 67.61 82.51 65.86 81.86"/><path class="cls-24" d="M66.2,73.54l0-.11a2.4,2.4,0,0,1,0-2.37l.54.51s-.14,1.39.45,1.67a.35.35,0,0,0,.11,0"/><polygon class="cls-20" points="40.06 60.63 42.01 59.93 41.95 62.01 43.21 63.66 41.23 64.25 40.06 65.97 38.89 64.25 36.91 63.66 38.17 62.01 38.11 59.93 40.06 60.63"/><ellipse class="cls-22" cx="40.49" cy="62.49" rx="1.07" ry="1.08"/><polygon class="cls-20" points="63.93 41.24 65.87 40.54 65.82 42.62 67.08 44.27 65.09 44.86 63.93 46.58 62.76 44.86 60.78 44.27 62.04 42.62 61.98 40.54 63.93 41.24"/><ellipse class="cls-22" cx="62.88" cy="42.94" rx="1.07" ry="1.08"/><path class="cls-12" d="M124.1,66.34c0,7.71-5.85,14-13.06,14S98,74.05,98,66.34s5.85-14,13.05-14S124.1,58.64,124.1,66.34Z"/><polyline class="cls-26" points="108.39 60 108.39 61.97 107.96 61.97 107.96 61.76 107.53 61.76 107.53 61.97 107.01 61.97 106.24 62.76 106.24 63.28 106.03 63.28 106.03 63.71 106.25 63.71 106.25 64.14 104.32 64.14 104.32 64.57 106.25 64.57 106.25 65 104.32 65 104.32 65.43 106.25 65.43 106.25 65.86 106.03 65.86 106.03 66.3 106.25 66.3 106.25 66.72 106.03 66.72 106.03 67.16 106.25 67.16 106.25 67.58 104.32 67.58 104.32 68.02 106.25 68.02 106.25 68.45 104.32 68.45 104.32 68.88 106.25 68.88 106.25 69.31 106.03 69.31 106.03 69.74 106.25 69.74 106.25 70.26 107.02 71.05 107.53 71.05 107.53 71.26 107.96 71.26 107.96 71.05 108.39 71.05 108.39 73.02 108.81 73.02 108.81 71.05 109.24 71.05 109.24 73.02 109.67 73.02 109.67 71.05 110.1 71.05 110.1 71.26 110.53 71.26 110.53 71.05 110.95 71.05 110.95 71.26 111.38 71.26 111.38 71.05 111.81 71.05 111.81 73.02 112.24 73.02 112.24 71.05 112.66 71.05 112.66 73.02 113.09 73.02 113.09 71.05 113.52 71.05 113.52 71.26 113.95 71.26 113.95 71.05 114.47 71.05 115.24 70.26 115.24 69.74 115.45 69.74 115.45 69.31 115.24 69.31 115.24 68.88 117.16 68.88 117.16 68.45 115.24 68.45 115.24 68.02 117.16 68.02 117.16 67.58 115.24 67.58 115.24 67.16 115.45 67.16 115.45 66.72 115.24 66.72 115.24 66.3 115.45 66.3 115.45 65.86 115.24 65.86 115.24 65.43 117.16 65.43 117.16 65 115.24 65 115.24 64.57 117.16 64.57 117.16 64.14 115.24 64.14 115.24 63.71 115.45 63.71 115.45 63.28 115.24 63.28 115.24 62.76 114.47 61.97 113.95 61.97 113.95 61.76 113.52 61.76 113.52 61.97 113.09 61.97 113.09 60"/><polyline class="cls-26" points="109.24 60 109.24 61.97 108.81 61.97 108.81 60"/><polyline class="cls-26" points="111.81 60 111.81 61.97 111.38 61.97 111.38 61.76 110.95 61.76 110.95 61.97 110.53 61.97 110.53 61.76 110.1 61.76 110.1 61.97 109.67 61.97 109.67 60"/><polyline class="cls-26" points="112.67 60 112.67 61.97 112.24 61.97 112.24 60"/><polygon class="cls-26" points="114.81 70.18 114.29 70.71 107.19 70.71 106.68 70.19 106.68 62.93 107.19 62.4 114.29 62.4 114.8 62.93 114.81 70.18"/><rect class="cls-26" x="105.17" y="63.28" width="0.43" height="0.44"/><rect class="cls-26" x="104.32" y="63.28" width="0.43" height="0.44"/><rect class="cls-26" x="104.32" y="65.9" width="0.43" height="0.44"/><rect class="cls-26" x="105.17" y="65.9" width="0.43" height="0.44"/><rect class="cls-26" x="105.17" y="66.78" width="0.43" height="0.44"/><rect class="cls-26" x="104.32" y="66.78" width="0.43" height="0.44"/><rect class="cls-26" x="105.17" y="69.4" width="0.43" height="0.44"/><rect class="cls-26" x="104.32" y="69.4" width="0.43" height="0.44"/><rect class="cls-26" x="116.73" y="63.28" width="0.43" height="0.44"/><rect class="cls-26" x="115.88" y="63.28" width="0.43" height="0.44"/><rect class="cls-26" x="115.88" y="65.9" width="0.43" height="0.44"/><rect class="cls-26" x="116.73" y="65.9" width="0.43" height="0.44"/><rect class="cls-26" x="115.88" y="66.78" width="0.43" height="0.44"/><rect class="cls-26" x="116.73" y="66.78" width="0.43" height="0.44"/><rect class="cls-26" x="115.88" y="69.4" width="0.43" height="0.44"/><rect class="cls-26" x="116.73" y="69.4" width="0.43" height="0.44"/><rect class="cls-26" x="113.52" y="60.87" width="0.43" height="0.44"/><polyline class="cls-26" points="113.95 60 113.95 60.43 113.52 60.43 113.52 60"/><polyline class="cls-26" points="111.38 60 111.38 60.43 110.95 60.43 110.95 60"/><rect class="cls-26" x="110.95" y="60.87" width="0.43" height="0.44"/><rect class="cls-26" x="110.1" y="60.87" width="0.43" height="0.44"/><polyline class="cls-26" points="110.53 60 110.53 60.43 110.1 60.43 110.1 60"/><rect class="cls-26" x="107.53" y="60.87" width="0.43" height="0.44"/><polyline class="cls-26" points="107.96 60 107.96 60.43 107.53 60.43 107.53 60"/><rect class="cls-26" x="113.52" y="71.81" width="0.43" height="0.44"/><rect class="cls-26" x="113.52" y="72.68" width="0.43" height="0.44"/><rect class="cls-26" x="110.95" y="71.81" width="0.43" height="0.44"/><rect class="cls-26" x="110.95" y="72.68" width="0.43" height="0.44"/><rect class="cls-26" x="110.1" y="72.68" width="0.43" height="0.44"/><rect class="cls-26" x="110.1" y="71.81" width="0.43" height="0.44"/><rect class="cls-26" x="107.53" y="72.68" width="0.43" height="0.44"/><rect class="cls-26" x="107.53" y="71.81" width="0.43" height="0.44"/><path class="cls-26" d="M108.17,62.62a.86.86,0,0,0-.85.88h0a.86.86,0,0,0,.64.84V65h.43v-.69a.88.88,0,0,0,.64-.84A.87.87,0,0,0,108.17,62.62Zm0,1.31a.41.41,0,0,1-.37-.45.41.41,0,0,1,.42-.41.43.43,0,0,1,0,.86Z"/><path class="cls-26" d="M113.1,64.34v1.12h.42V64.34a.86.86,0,0,0,.64-.84.88.88,0,0,0-.89-.88.9.9,0,0,0-.82.88A.88.88,0,0,0,113.1,64.34Zm.21-1.29a.43.43,0,0,1,0,.86.43.43,0,0,1-.38-.43.43.43,0,0,1,.43-.42Z"/><path class="cls-26" d="M113.74,68.77v-.68h-.43v.68a.86.86,0,1,0,.43,0Zm-.22,1.3a.42.42,0,0,1-.37-.46.4.4,0,0,1,.42-.4.41.41,0,0,1,.38.42.43.43,0,0,1-.43.43Z"/><path class="cls-26" d="M108.39,68.77v-.68H108v.68a.86.86,0,0,0-.64.85.87.87,0,0,0,.89.87.88.88,0,0,0,.18-1.72Zm-.22,1.3a.42.42,0,0,1-.37-.46.4.4,0,0,1,.42-.4.42.42,0,0,1,.38.42.45.45,0,0,1-.43.43Z"/><path class="cls-12" d="M113.1,68.31h-4.5a1.75,1.75,0,0,1-.11-3.5.2.2,0,0,1,.11,0,1.65,1.65,0,0,1,.54.09,1,1,0,0,1,1-.29,1.8,1.8,0,0,1,3.14.64,1.53,1.53,0,0,1-.07,3.06h-.06Z"/><ellipse class="cls-1" cx="100.51" cy="87.51" rx="10.64" ry="11.38"/><text class="cls-11" transform="translate(95.84 91.14) scale(0.94 1)">&lt;&gt;</text></g></g></svg>