<?xml version="1.0" encoding="utf-8"?>
<!-- Generator: Adobe Illustrator 27.0.0, SVG Export Plug-In . SVG Version: 6.00 Build 0)  -->
<svg version="1.1" id="Layer_1" xmlns="http://www.w3.org/2000/svg" xmlns:xlink="http://www.w3.org/1999/xlink" x="0px" y="0px"
	 viewBox="0 0 100 100" style="enable-background:new 0 0 100 100;" xml:space="preserve">
<style type="text/css">
	.st0{fill:#383838;}
	.st1{fill:#1C80E5;}
	.st2{fill:#69A7FF;}
</style>
<path class="st0" d="M92.2,3.1H7.8C3.5,3.1,0,6.6,0,10.9v59c0,4.3,3.5,7.8,7.8,7.8h26.1l-6.1,16h-4.6c-0.9,0-1.6,0.7-1.6,1.6
	c0,0.9,0.7,1.6,1.6,1.6h53.7c0.9,0,1.6-0.7,1.6-1.6c0-0.9-0.7-1.6-1.6-1.6h-4.6l-6.1-16h26.1c4.3,0,7.8-3.5,7.8-7.8l0-59
	C100,6.6,96.5,3.1,92.2,3.1L92.2,3.1z M68.8,93.7H31.2l6.1-16h25.3L68.8,93.7z M92.2,74.5H7.8c-2.5,0-4.6-2.1-4.6-4.6v-7.6h75.2
	c0.9,0,1.6-0.7,1.6-1.6c0-0.9-0.7-1.6-1.6-1.6H3.2V10.9c0-2.5,2.1-4.6,4.6-4.6h84.4c2.5,0,4.6,2,4.6,4.6v48.3H84.1
	c-0.9,0-1.6,0.7-1.6,1.6c0,0.9,0.7,1.6,1.6,1.6h12.7v7.6C96.8,72.4,94.7,74.5,92.2,74.5L92.2,74.5z"/>
<path class="st1" d="M50,63.9c-2.3,0-4.1,1.9-4.1,4.1s1.9,4.1,4.1,4.1c2.3,0,4.1-1.9,4.1-4.1C54.2,65.8,52.3,63.9,50,63.9z M50,69.6
	c-0.9,0-1.6-0.7-1.6-1.6c0-0.9,0.7-1.6,1.6-1.6c0.9,0,1.6,0.7,1.6,1.6C51.6,68.9,50.9,69.6,50,69.6z"/>
<path d="M45.3,20.5L32.5,33.4c-0.6,0.6-0.6,1.6,0,2.3c0.3,0.3,0.7,0.5,1.1,0.5s0.8-0.2,1.1-0.5l12.9-12.9c0.6-0.6,0.6-1.6,0-2.3
	C47,19.9,46,19.9,45.3,20.5L45.3,20.5z"/>
<path d="M44,35.7c0.3,0.3,0.7,0.5,1.1,0.5c0.4,0,0.8-0.2,1.1-0.5l6.4-6.4c0.6-0.6,0.6-1.6,0-2.3c-0.6-0.6-1.6-0.6-2.3,0l-6.4,6.4
	C43.4,34.1,43.4,35.1,44,35.7L44,35.7z"/>
<path class="st0" d="M92.1,52.8v-40c0-1-0.7-1.8-1.6-1.8H24.8c-0.9,0-1.6,0.8-1.6,1.8s0.7,1.8,1.6,1.8h64.1V51l-77.7,0V14.6H28
	c0.9,0,1.6-0.8,1.6-1.8s-0.7-1.8-1.6-1.8H9.6c-0.9,0-1.6,0.8-1.6,1.8v40c0,1,0.7,1.8,1.6,1.8h80.9C91.4,54.6,92.1,53.8,92.1,52.8
	L92.1,52.8z"/>
<rect x="11.2" y="14.6" class="st2" width="77.7" height="36.4"/>
</svg>
