<svg xmlns="http://www.w3.org/2000/svg" viewBox="0 0 71.63 61.03">
  <defs>
    <style>.cls-1{fill:#000000;}</style>
  </defs>
  <title>create_new_user</title>
  <g id="Layer_2" data-name="Layer 2">
    <g id="page1-B">
      <path class="cls-1"
            d="M24.35,34.63a13.82,13.82,0,0,1-13.7-13.91V13.91a13.7,13.7,0,1,1,27.4,0v6.81A13.82,13.82,0,0,1,24.35,34.63Zm0-32.43A11.64,11.64,0,0,0,12.82,13.91v6.81a11.53,11.53,0,1,0,23.06,0V13.91A11.64,11.64,0,0,0,24.35,2.2Z"/>
      <path class="cls-1"
            d="M42.68,50.09H5.82A5.87,5.87,0,0,1,0,44.18V39c0-1.93,1-4.51,5.51-5.86L11,31.58a1.09,1.09,0,0,1,1.34.77,1.11,1.11,0,0,1-.76,1.36l-5.5,1.54C2.17,36.42,2.17,38.36,2.17,39v5.19a3.68,3.68,0,0,0,3.65,3.7H42.68a3.68,3.68,0,0,0,3.65-3.7V39c0-1.72-1.33-3-3.95-3.74l-5.25-1.49a1.11,1.11,0,0,1-.75-1.36,1.07,1.07,0,0,1,1.34-.76L43,33.13c4.57,1.33,5.53,3.92,5.53,5.86v5.19A5.87,5.87,0,0,1,42.68,50.09Z"/>
      <path class="cls-1"
            d="M67.82,57.23a13,13,0,1,0-18.39,0A13,13,0,0,0,67.82,57.23ZM50.35,39.75a11.71,11.71,0,1,1,0,16.56A11.71,11.71,0,0,1,50.35,39.75Z"/>
      <path class="cls-1"
            d="M58.63,52.9a.69.69,0,0,0,.46-.19.64.64,0,0,0,.19-.46V48.68h3.57a.69.69,0,0,0,.46-.19A.67.67,0,0,0,63.5,48a.63.63,0,0,0-.65-.64H59.29V43.81a.65.65,0,0,0-1.3,0v3.57H54.42a.65.65,0,1,0,0,1.29H58v3.57A.64.64,0,0,0,58.63,52.9Z"/>
    </g>
  </g>
</svg>
