<?xml version="1.0" encoding="UTF-8"?>
<svg width="85px" height="14px" viewBox="0 0 85 14" version="1.1" xmlns="http://www.w3.org/2000/svg" xmlns:xlink="http://www.w3.org/1999/xlink">
    <!-- Generator: Sketch 47.1 (45422) - http://www.bohemiancoding.com/sketch -->
    <title>NOKIA_LOGO_RGB</title>
    <desc>Created with Sketch.</desc>
    <defs></defs>
    <g id="Page-1" stroke="none" stroke-width="1" fill="none" fill-rule="evenodd">
        <path d="M72.023,8.561 L74.681,3.685 L77.335,8.561 L72.023,8.561 Z M77.463,0.367 L72.141,0.367 L64.562,13.821 L69.282,13.821 L70.54,11.483 L78.815,11.483 L80.081,13.821 L85.039,13.821 L77.463,0.367 Z M59.483,13.821 L63.768,13.821 L63.768,0.367 L59.483,0.367 L59.483,13.821 Z M57.714,0.367 L52.075,0.367 L44.846,6.806 L52.652,13.821 L58.7,13.821 L50.098,6.658 L57.714,0.367 Z M40.567,13.821 L44.845,13.821 L44.845,0.367 L40.567,0.367 L40.567,13.821 Z M35.035,9.124 C35.035,9.91 34.95,10.151 34.734,10.338 C34.516,10.53 34.177,10.583 33.243,10.583 L26.596,10.583 C25.66,10.583 25.332,10.53 25.101,10.338 C24.899,10.151 24.807,9.91 24.807,9.124 L24.807,5.017 C24.807,4.222 24.899,3.991 25.101,3.806 C25.332,3.605 25.66,3.555 26.596,3.555 L33.243,3.555 C34.177,3.555 34.516,3.605 34.734,3.806 C34.95,3.991 35.035,4.222 35.035,5.017 L35.035,9.124 Z M33.418,0.144 L26.424,0.144 C23.984,0.144 22.724,0.424 21.853,1.346 C21.296,1.964 20.944,2.609 20.944,4.477 L20.944,9.664 C20.944,11.533 21.296,12.177 21.853,12.795 C22.724,13.722 23.984,14 26.424,14 L33.418,14 C35.844,14 37.118,13.722 37.99,12.795 C38.548,12.177 38.894,11.533 38.894,9.664 L38.894,4.477 C38.894,2.609 38.548,1.964 37.99,1.346 C37.118,0.424 35.844,0.144 33.418,0.144 Z M15.204,10.41 L7.08,0.367 L0,0.367 L0,13.821 L4.09,13.821 L4.09,3.605 L12.361,13.821 L19.3,13.821 L19.3,0.367 L15.204,0.367 L15.204,10.41 L15.204,10.41 Z" id="NOKIA_LOGO_RGB" fill="#1C467C"></path>
    </g>
</svg>