<svg xmlns="http://www.w3.org/2000/svg" xmlns:xlink="http://www.w3.org/1999/xlink" width="100" height="100" viewBox="0 0 100 100">
  <defs>
    <clipPath id="clip-camera">
      <rect width="100" height="100"/>
    </clipPath>
  </defs>
  <g id="camera" clip-path="url(#clip-camera)">
    <g id="Group_3082" data-name="Group 3082" transform="translate(-275.908 4702.075)">
      <path id="Path_6700" data-name="Path 6700" d="M178.4,77.935H163.65l-4.023-8.726a8.093,8.093,0,0,0-7.324-4.683H121.732a8.063,8.063,0,0,0-7.3,4.683l-4.044,8.726H95.635a8.127,8.127,0,0,0-8.128,8.045v51.78a8.127,8.127,0,0,0,8.128,8.046H178.4a8.127,8.127,0,0,0,8.128-8.046V85.981a8.127,8.127,0,0,0-8.128-8.045Zm4.415,59.826a4.4,4.4,0,0,1-4.415,4.332H95.635a4.4,4.4,0,0,1-4.415-4.332V85.982a4.4,4.4,0,0,1,4.415-4.332h15.947a1.9,1.9,0,0,0,1.692-1.073l4.538-9.8a4.346,4.346,0,0,1,3.94-2.517h30.593a4.369,4.369,0,0,1,3.94,2.517l4.538,9.8a1.883,1.883,0,0,0,1.692,1.093h15.947A4.4,4.4,0,0,1,182.877,86v51.759Z" transform="translate(188.891 -4757.525)" fill="#2d2f79" stroke="#2d2f79" stroke-width="0.5"/>
      <path id="Path_6701" data-name="Path 6701" d="M233.748,170.08a20.028,20.028,0,1,0,20.028,20.012A20.052,20.052,0,0,0,233.748,170.08Zm0,37.148a17.134,17.134,0,1,1,17.134-17.135A17.15,17.15,0,0,1,233.748,207.228Z" transform="translate(92.159 -4837.495)" fill="#2d2f79" stroke="#2d2f79" stroke-width="1.5"/>
      <path id="Path_6702" data-name="Path 6702" d="M148.6,200.16h-7.839a1.857,1.857,0,1,0,0,3.713H148.6a1.857,1.857,0,1,0,0-3.713Z" transform="translate(147.188 -4867.575)" fill="#2d2f79" stroke="#2d2f79" stroke-width="0.5"/>
    </g>
  </g>
</svg>
