<svg xmlns="http://www.w3.org/2000/svg" xmlns:xlink="http://www.w3.org/1999/xlink" width="100" height="100" viewBox="0 0 100 100">
  <defs>
    <clipPath id="clip-icon_27">
      <rect width="100" height="100"/>
    </clipPath>
  </defs>
  <g id="icon_27" data-name="icon – 27" clip-path="url(#clip-icon_27)">
    <g id="Group_2436" data-name="Group 2436" transform="translate(0.535 0.535)">
      <path id="Path_6264" data-name="Path 6264" d="M231.7,106.472a4.058,4.058,0,0,0-3.763,2.558h-15.7v-8.538h10.585a4.057,4.057,0,1,0,0-3H212.237V96.5a6.159,6.159,0,0,0-6.152-6.152H205.1V78.736a4.057,4.057,0,1,0-3,0V90.352H193.56v-6.5a4.058,4.058,0,1,0-3,0v6.5h-8.539v-15.7a4.057,4.057,0,1,0-3,0v15.7h-8.538V79.767a4.057,4.057,0,1,0-3,0V90.352h-2.727a5.877,5.877,0,0,0-5.871,5.87v1.271H148.734a4.057,4.057,0,1,0,0,3h10.158v8.538H153.85a4.058,4.058,0,1,0,0,3h5.042v8.539H144.648a4.057,4.057,0,1,0,0,3h14.244V132.1h-9.128a4.057,4.057,0,1,0,0,3h9.128v1.271a5.878,5.878,0,0,0,5.871,5.871h2.727v11.616a4.057,4.057,0,1,0,3,0V142.241h8.538v6.5a4.058,4.058,0,1,0,3,0v-6.5h8.539v15.7a4.057,4.057,0,1,0,3,0v-15.7H202.1v10.585a4.057,4.057,0,1,0,3,0V142.241h1.271a5.877,5.877,0,0,0,5.87-5.871V135.1h11.616a4.057,4.057,0,1,0,0-3H212.237v-8.538h6.5a4.058,4.058,0,1,0,0-3h-6.5v-8.539h15.7a4.054,4.054,0,1,0,3.764-5.555Zm-5.117-8.538a1.059,1.059,0,1,1-1.059,1.059A1.06,1.06,0,0,1,226.584,97.934Zm-81.613,2.118a1.059,1.059,0,1,1,1.059-1.059A1.06,1.06,0,0,1,144.971,100.052Zm5.116,11.536a1.059,1.059,0,1,1,1.06-1.06A1.061,1.061,0,0,1,150.087,111.589Zm-9.2,11.535a1.059,1.059,0,1,1,1.06-1.059A1.06,1.06,0,0,1,140.885,123.124ZM146,134.659a1.059,1.059,0,1,1,1.059-1.059A1.06,1.06,0,0,1,146,134.659ZM203.6,73.916a1.059,1.059,0,1,1-1.059,1.059A1.06,1.06,0,0,1,203.6,73.916ZM192.06,79.032a1.059,1.059,0,1,1-1.06,1.06A1.061,1.061,0,0,1,192.06,79.032Zm-11.535-9.2a1.059,1.059,0,1,1-1.059,1.059A1.061,1.061,0,0,1,180.524,69.83Zm-11.536,5.117a1.059,1.059,0,1,1-1.059,1.059A1.06,1.06,0,0,1,168.988,74.947Zm0,83.73a1.059,1.059,0,1,1,1.059-1.059A1.06,1.06,0,0,1,168.988,158.677Zm11.536-5.116a1.059,1.059,0,1,1,1.06-1.059A1.06,1.06,0,0,1,180.524,153.561Zm11.535,9.2a1.059,1.059,0,1,1,1.059-1.059A1.061,1.061,0,0,1,192.06,162.763Zm11.536-5.116a1.059,1.059,0,1,1,1.059-1.06A1.061,1.061,0,0,1,203.6,157.647Zm5.642-21.278a2.876,2.876,0,0,1-2.872,2.873h-41.6a2.876,2.876,0,0,1-2.873-2.873V96.223a2.876,2.876,0,0,1,2.873-2.872h41.321a3.158,3.158,0,0,1,3.154,3.154Zm18.376-3.829a1.059,1.059,0,1,1-1.059,1.059A1.06,1.06,0,0,1,227.614,132.54ZM222.5,121a1.059,1.059,0,1,1-1.06,1.06A1.061,1.061,0,0,1,222.5,121Zm9.2-9.416a1.059,1.059,0,1,1,1.059-1.06A1.062,1.062,0,0,1,231.7,111.588Z" transform="translate(-136.828 -66.832)" fill="#2d2f79"/>
      <path id="Path_6265" data-name="Path 6265" d="M299.193,197.59H262.808a1.5,1.5,0,0,0-1.5,1.5v35.246a1.5,1.5,0,0,0,1.5,1.5h36.385a1.5,1.5,0,0,0,1.5-1.5V199.088A1.5,1.5,0,0,0,299.193,197.59Zm-1.5,35.246H264.307v-32.25h33.387Z" transform="translate(-232.422 -167.248)" fill="#2d2f79"/>
      <g id="Group_2233" data-name="Group 2233" transform="translate(37.693 41.286)">
        <path id="Path_6270" data-name="Path 6270" d="M229.814,173a13.476,13.476,0,0,0-10.6,5.117,1.308,1.308,0,1,0,2.048,1.629,10.922,10.922,0,0,1,17.107,0,1.309,1.309,0,0,0,2.048-1.63,13.49,13.49,0,0,0-10.6-5.116Z" transform="translate(-218.93 -172.999)" fill="#2d2f79"/>
        <path id="Path_6271" data-name="Path 6271" d="M267.332,242.95a8.967,8.967,0,0,0-7.239,3.707,1.309,1.309,0,0,0,2.12,1.535,6.3,6.3,0,0,1,10.235,0,1.307,1.307,0,1,0,2.122-1.527,8.938,8.938,0,0,0-7.239-3.719Z" transform="translate(-256.448 -237.141)" fill="#2d2f79"/>
        <path id="Path_6272" data-name="Path 6272" d="M312.711,309.14a2.207,2.207,0,1,0,2.207,2.207A2.207,2.207,0,0,0,312.711,309.14Z" transform="translate(-301.828 -297.2)" fill="#2d2f79"/>
      </g>
    </g>
  </g>
</svg>
