<svg xmlns="http://www.w3.org/2000/svg" xmlns:xlink="http://www.w3.org/1999/xlink" width="100" height="100" viewBox="0 0 100 100">
  <defs>
    <clipPath id="clip-Grid">
      <rect width="100" height="100"/>
    </clipPath>
  </defs>
  <g id="Grid" clip-path="url(#clip-Grid)">
    <path id="Path_7135" data-name="Path 7135" d="M115.87,32.223h15.566A13.7,13.7,0,0,1,145.1,45.889V72.83a2.292,2.292,0,0,1-2.294,2.294H115.868A13.7,13.7,0,0,1,102.2,61.457V45.892a13.7,13.7,0,0,1,13.666-13.666ZM102.2,117.554V101.988a13.7,13.7,0,0,1,13.667-13.666h26.94a2.292,2.292,0,0,1,2.294,2.294v26.941a13.7,13.7,0,0,1-13.666,13.667H115.869A13.7,13.7,0,0,1,102.2,117.556Zm4.588-15.566v15.566a9.109,9.109,0,0,0,9.079,9.079h15.566a9.109,9.109,0,0,0,9.079-9.079V92.908H115.866a9.109,9.109,0,0,0-9.079,9.079Zm80.744,29.236H171.966A13.7,13.7,0,0,1,158.3,117.557V90.617a2.292,2.292,0,0,1,2.294-2.294h26.941A13.7,13.7,0,0,1,201.2,101.989v15.566a13.7,13.7,0,0,1-13.667,13.666Zm-15.566-4.588h15.566a9.109,9.109,0,0,0,9.079-9.079V101.991a9.108,9.108,0,0,0-9.079-9.079H162.887v24.645a9.109,9.109,0,0,0,9.079,9.079ZM201.2,45.892V61.457a13.7,13.7,0,0,1-13.666,13.666H160.6A2.293,2.293,0,0,1,158.3,72.83V45.889a13.7,13.7,0,0,1,13.667-13.666h15.566A13.7,13.7,0,0,1,201.2,45.889Zm-4.588,15.566V45.892a9.109,9.109,0,0,0-9.079-9.079H171.969a9.109,9.109,0,0,0-9.079,9.079V70.537h24.645a9.109,9.109,0,0,0,9.079-9.079ZM131.44,36.812H115.874a9.109,9.109,0,0,0-9.079,9.079V61.457a9.109,9.109,0,0,0,9.079,9.079h24.645V45.89a9.108,9.108,0,0,0-9.079-9.079Z" transform="translate(-102.2 -32.223)" fill="#404040"/>
  </g>
</svg>
