<svg xmlns="http://www.w3.org/2000/svg" xmlns:xlink="http://www.w3.org/1999/xlink" width="100" height="100" viewBox="0 0 100 100">
  <defs>
    <clipPath id="clip-icon_47">
      <rect width="100" height="100"/>
    </clipPath>
  </defs>
  <g id="icon_47" data-name="icon – 47" clip-path="url(#clip-icon_47)">
    <g id="Group_2472" data-name="Group 2472" transform="translate(3058 4918)">
      <g id="Rectangle_4520" data-name="Rectangle 4520" transform="translate(-3031.317 -4916)" fill="none" stroke="#2c2c78" stroke-width="3">
        <rect width="46.506" height="73.987" rx="22" stroke="none"/>
        <rect x="1.5" y="1.5" width="43.506" height="70.987" rx="20.5" fill="none"/>
      </g>
      <g id="Subtraction_16" data-name="Subtraction 16" transform="translate(-3044 -4880.064)" fill="none" stroke-linecap="round" stroke-linejoin="round">
        <path d="M37.873,47.563H34A33.9,33.9,0,0,1,9.958,37.6,33.9,33.9,0,0,1,0,13.563V0H3.171V14.392a30.034,30.034,0,0,0,30,30H38.7a30.034,30.034,0,0,0,30-30V0h3.171V13.563A34.036,34.036,0,0,1,51.107,44.891,33.784,33.784,0,0,1,37.873,47.563Z" stroke="none"/>
        <path d="M 37.87289810180664 47.56320190429688 L 34.00019454956055 47.56320190429688 C 29.4105110168457 47.56320190429688 24.95807647705078 46.66417694091797 20.76660537719727 44.89110565185547 C 16.71828842163086 43.17873001098633 13.08192348480225 40.72723770141602 9.958499908447266 37.60470581054688 C 6.835970401763916 34.48128509521484 4.384476661682129 30.84490776062012 2.672100067138672 26.79660034179688 C 0.8990176320075989 22.60511779785156 5.888456598768244e-06 18.15269470214844 5.888456598768244e-06 13.56300067901611 L 5.888456598768244e-06 9.521484116703505e-07 L 3.170700073242188 9.521484116703505e-07 L 3.170700073242188 14.39190673828125 C 3.170700073242188 30.93429565429688 16.62851142883301 44.39250564575195 33.17039489746094 44.39250564575195 L 38.70180511474609 44.39250564575195 C 55.24368667602539 44.39250564575195 68.70149993896484 30.93429565429688 68.70149993896484 14.39190673828125 L 68.70149993896484 9.521484116703505e-07 L 71.87220764160156 9.521484116703505e-07 L 71.87220764160156 13.56300067901611 C 71.87220764160156 18.15409469604492 70.97348022460938 22.60653114318848 69.20101928710938 26.79660034179688 C 67.48865509033203 30.84489440917969 65.03714752197266 34.48125839233398 61.91460418701172 37.60470581054688 C 58.7913932800293 40.72701263427734 55.15532302856445 43.17852020263672 51.10739517211914 44.89110565185547 C 46.91592407226562 46.66417694091797 42.46319580078125 47.56320190429688 37.87289810180664 47.56320190429688 Z" stroke="none" fill="#2c2c78"/>
      </g>
      <line id="Line_715" data-name="Line 715" y2="14.664" transform="translate(-3007.535 -4834.086)" fill="none" stroke="#2c2c78" stroke-linecap="round" stroke-width="3"/>
    </g>
  </g>
</svg>
