<svg xmlns="http://www.w3.org/2000/svg" xmlns:xlink="http://www.w3.org/1999/xlink" width="100" height="100" viewBox="0 0 100 100">
  <defs>
    <clipPath id="clip-icon_39">
      <rect width="100" height="100"/>
    </clipPath>
  </defs>
  <g id="icon_39" data-name="icon – 39" clip-path="url(#clip-icon_39)">
    <g id="noun-microphone-5293401" transform="translate(16.214 0.388)">
      <path id="Path_6521" data-name="Path 6521" d="M261.089,29.168a21.918,21.918,0,0,0-21.921,21.921V76.471a21.921,21.921,0,1,0,43.842,0V51.089a21.918,21.918,0,0,0-21.921-21.921Zm0,62.3a15,15,0,0,1-15-15V51.09a15,15,0,0,1,30,0V76.471a15,15,0,0,1-15,15Z" transform="translate(-227.303 -29.168)" fill="#2c2c78" stroke="#f2f7ff" stroke-width="0.8" fill-rule="evenodd"/>
      <path id="Path_6522" data-name="Path 6522" d="M212.966,291.175A26.863,26.863,0,0,1,186.1,264.311a3.461,3.461,0,1,0-6.923,0,33.786,33.786,0,0,0,67.572,0,3.461,3.461,0,1,0-6.923,0A26.863,26.863,0,0,1,212.966,291.175Z" transform="translate(-179.18 -215.026)" fill="#2c2c78" stroke="#f2f7ff" stroke-width="0.8" fill-rule="evenodd"/>
      <path id="Path_6523" data-name="Path 6523" d="M332.5,417.3v14.6a3.118,3.118,0,1,0,6.235,0V417.3a3.118,3.118,0,1,0-6.235,0Z" transform="translate(-302.175 -335.803)" fill="#2c2c78" fill-rule="evenodd"/>
    </g>
  </g>
</svg>
