<svg xmlns="http://www.w3.org/2000/svg" xmlns:xlink="http://www.w3.org/1999/xlink" width="100" height="100" viewBox="0 0 100 100">
  <defs>
    <clipPath id="clip-icon_28">
      <rect width="100" height="100"/>
    </clipPath>
  </defs>
  <g id="icon_28" data-name="icon – 28" clip-path="url(#clip-icon_28)">
    <g id="noun-log-4921382" transform="translate(10 1)">
      <path id="Path_6343" data-name="Path 6343" d="M229.926,63.465H183.072a9.952,9.952,0,0,0-9.945,9.892V152.28a9.919,9.919,0,0,0,9.945,9.892h60.787a9.909,9.909,0,0,0,9.892-9.892V91.333ZM243.859,157.6H183.073a5.318,5.318,0,0,1-5.371-5.318V73.356a5.318,5.318,0,0,1,5.371-5.318H227.8l18.666,21.8H232.105a5.318,5.318,0,0,1-5.318-5.318V73.356h-4.579V84.525a9.923,9.923,0,0,0,9.918,9.913h17.018v57.84a5.318,5.318,0,0,1-5.287,5.318Z" transform="translate(-173.127 -63.465)" fill="#2d2f79" stroke="#f2f7ff" stroke-width="0.7"/>
      <path id="Union_3" data-name="Union 3" d="M50.03,36.658H7.05a7.206,7.206,0,0,1-4.98-1.952A6.591,6.591,0,0,1,0,29.953V6.75A6.6,6.6,0,0,1,2.065,1.978,7.205,7.205,0,0,1,7.05,0H50.027A7.194,7.194,0,0,1,55.01,1.978,6.6,6.6,0,0,1,57.076,6.75v23.2a6.578,6.578,0,0,1-2.071,4.754,7.2,7.2,0,0,1-4.945,1.952ZM22.708,6.767A4.978,4.978,0,0,0,21,10.592v15.47a4.972,4.972,0,0,0,1.683,3.863,5.448,5.448,0,0,0,4.14,1.341,5.447,5.447,0,0,0,4.116-1.355A4.945,4.945,0,0,0,32.6,26.062l0-15.47a4.968,4.968,0,0,0-1.687-3.809,5.45,5.45,0,0,0-4.092-1.346c-.17-.016-.339-.023-.508-.023A5.454,5.454,0,0,0,22.708,6.767Zm15.538,0a4.942,4.942,0,0,0-1.679,3.821V26.484A4.264,4.264,0,0,0,37.8,29.911a4.689,4.689,0,0,0,3.512,1.355,4.451,4.451,0,0,0,2.986-.985,2.059,2.059,0,0,0,.685-1.22h.783a4.454,4.454,0,0,0-.145,1.124V30.8h2.494V16.686H42.491v2.953h1.958v6.423a2.058,2.058,0,0,1-4.113,0V10.642a1.96,1.96,0,0,1,1.958-1.92,1.931,1.931,0,0,1,1.465.517,1.762,1.762,0,0,1,.541,1.4v2.953h3.818v-3A4.953,4.953,0,0,0,46.443,6.77a5.435,5.435,0,0,0-4.1-1.334c-.166-.014-.331-.022-.5-.022A5.4,5.4,0,0,0,38.246,6.77ZM8.959,30.8h9.2v-3.23H12.777V5.862H8.959ZM24.82,26.064V10.642a1.76,1.76,0,0,1,.543-1.4,2.248,2.248,0,0,1,2.9.016,1.731,1.731,0,0,1,.524,1.383V26.064a1.985,1.985,0,0,1-3.966,0Z" transform="translate(11.772 49.147)" fill="#2d2f79"/>
    </g>
  </g>
</svg>
