<svg xmlns="http://www.w3.org/2000/svg" xmlns:xlink="http://www.w3.org/1999/xlink" width="100" height="100" viewBox="0 0 100 100">
  <defs>
    <clipPath id="clip-icon_20">
      <rect width="100" height="100"/>
    </clipPath>
  </defs>
  <g id="icon_20" data-name="icon – 20" clip-path="url(#clip-icon_20)">
    <g id="Group_2433" data-name="Group 2433" transform="translate(0.524 15.119)">
      <g id="Group_2305" data-name="Group 2305" transform="translate(20.328 0)">
        <path id="Path_6331" data-name="Path 6331" d="M155.017,84.375l-.783.481h0A3.089,3.089,0,0,0,153.22,89.1l1.408,2.291h0a3.087,3.087,0,0,0,4.245,1.013,1.276,1.276,0,0,1,1.945,1.088,3.09,3.09,0,0,0,3.086,3.086h2.69a3.09,3.09,0,0,0,3.086-3.086,1.277,1.277,0,0,1,1.945-1.088,3.091,3.091,0,0,0,4.245-1.013l1.408-2.29a3.086,3.086,0,0,0-1.014-4.245l-.783-.481a1.277,1.277,0,0,1,0-2.176l.783-.481a3.086,3.086,0,0,0,1.014-4.245l-1.408-2.291h0a3.09,3.09,0,0,0-4.245-1.014,1.276,1.276,0,0,1-1.945-1.089A3.09,3.09,0,0,0,166.594,70H163.9a3.09,3.09,0,0,0-3.086,3.086,1.277,1.277,0,0,1-1.945,1.088,3.086,3.086,0,0,0-4.245,1.013l-1.408,2.29a3.089,3.089,0,0,0,1.014,4.245l.783.481a1.274,1.274,0,0,1,0,2.176Zm1.163,1.887a3.489,3.489,0,0,0,0-5.95l-.783-.481h0a.872.872,0,0,1-.286-1.2l1.408-2.292h0a.871.871,0,0,1,1.2-.286,3.492,3.492,0,0,0,5.317-2.975.872.872,0,0,1,.871-.871h2.69a.872.872,0,0,1,.87.871,3.489,3.489,0,0,0,5.317,2.975.873.873,0,0,1,1.2.286l1.411,2.293a.87.87,0,0,1-.283,1.2l-.783.481h0a3.492,3.492,0,0,0,0,5.95l.783.481h0a.87.87,0,0,1,.286,1.2l-1.41,2.291a.873.873,0,0,1-1.2.286,3.489,3.489,0,0,0-5.32,2.975.872.872,0,0,1-.871.871H163.9a.872.872,0,0,1-.871-.871,3.483,3.483,0,0,0-5.32-2.975.871.871,0,0,1-1.2-.286l-1.408-2.293a.872.872,0,0,1,.286-1.2Z" transform="translate(-152.765 -69.995)" fill="#2d2f79"/>
        <path id="Path_6332" data-name="Path 6332" d="M276.234,211.219a4.99,4.99,0,1,0-3.523-1.462A4.984,4.984,0,0,0,276.234,211.219Zm0-7.754a2.772,2.772,0,1,1-1.957.812A2.77,2.77,0,0,1,276.234,203.465Z" transform="translate(-263.751 -192.943)" fill="#2d2f79"/>
      </g>
      <path id="Path_6339" data-name="Path 6339" d="M2.429,26H0V0H2.429Z" transform="translate(75.479 6.574) rotate(90)" fill="#2d2f79" stroke="#2d2f79" stroke-width="0.3"/>
      <path id="Path_6341" data-name="Path 6341" d="M146.336,93.7H124.475v21.861h21.861Zm-2.429,19.432h-17v-17h7.287v8.5h2.429v-8.5h7.287ZM175.484,93.7H153.623v21.861h21.861Zm-2.429,19.432h-17v-17h7.287v8.5h2.429v-8.5h7.287Zm31.577-7.287V83.987H182.771v21.861ZM185.2,86.416h7.288v8.5h2.429v-8.5H202.2v17h-17Zm-7.322-3.553h-2.429v-8.3l3.644-3.085H208.24l3.644,3.085v8.3h-2.429V75.685l-2.065-1.773H179.942l-2.065,1.773Zm17-15.024h-2.429V61.423h2.429Z" transform="translate(-117.556 -54.849)" fill="#2d2f79" stroke="#2d2f79" stroke-width="0.3"/>
      <path id="Path_6342" data-name="Path 6342" d="M2.36,11.38H0v-8.3L3.539,0H95.412l3.539,3.085v8.3H96.592V4.2L94.586,2.429H4.364L2.359,4.2Z" transform="translate(98.951 69.761) rotate(180)" fill="#2d2f79" stroke="#2d2f79" stroke-width="0.3"/>
    </g>
  </g>
</svg>
