<svg xmlns="http://www.w3.org/2000/svg" xmlns:xlink="http://www.w3.org/1999/xlink" width="100" height="100" viewBox="0 0 100 100">
  <defs>
    <clipPath id="clip-icon_33">
      <rect width="100" height="100"/>
    </clipPath>
  </defs>
  <g id="icon_33" data-name="icon – 33" clip-path="url(#clip-icon_33)">
    <g id="Group_2438" data-name="Group 2438" transform="translate(0.446 24.254)">
      <g id="g2980" transform="translate(1.356)">
        <path id="path2982" d="M0-48.821C15.528-64.348,27.929-69.142,39.184-71.33c1.49-.289,1.771-3.543,1.771-3.543s.208,2.4,1.251,2.709,2.4-3.751,2.4-3.751-1.25,3.648,0,3.856S48.146-75.6,48.146-75.6s-.937,3.23-.313,3.439,3.752-4.69,3.752-4.69-1.876,3.231-.1,3.543,4.357-2.2,4.357-2.2-2.032,2.3-1.127,2.621c3.856,1.355,6.976-3.656,6.976-3.656a16.9,16.9,0,0,1-2.6,4.594c4.064,1.042,7.082-5.081,7.082-5.081l-3.019,6.123c1.563.833,7.816-6.357,7.816-6.357s-3.23,5.627-5.106,6.773c1.042.834,4.794-2.5,4.794-2.5s-3.022,3.752-1.876,3.96C70.448-67.683,76.6-76.02,76.6-76.02a42.3,42.3,0,0,1-5.94,8.754c2.962,1.482,10.317-8.024,10.317-8.024s-.208,3.023-5.524,7.816C79.41-68,84.516-75.5,84.516-75.5a24.862,24.862,0,0,1-6.357,9.588c3.888-.4,10.108-10,10.108-10s-2.4,6.669-7.294,10.525c5.419,1.2,13.235-6.878,13.235-6.878s-3.074,5.731-7.087,8.076c4.482,1.719,10.63-5.367,10.63-5.367S91.6-60.075,81.806-60.492c-3.213-.137-12.935-9.752-33.765-8.962C20.53-68.413,14.694-56.741,0-48.821" transform="translate(0 77.27)" fill="#2d2f79"/>
      </g>
      <g id="g3008" transform="translate(0 17.52)">
        <path id="path3010" d="M0-22.085c8.207,4.117,15.71-.625,25.167,2.041,7.19,2.026,15.945,4.525,27.825,2.805s22.04-6.878,26.887-16.1c1.511-4.116,7.659.937,7.659.937s-4.481-1.875-4.376-.989,6.721,3.96,6.721,3.96-5.993-1.875-5.628-.469,7.5,7.034,7.5,7.034-8.077-6.149-8.754-5.315,3.439,4.22,3.439,4.22-6.826-4.22-9.223-2.976c-1.724.895,7.086,6.676,7.086,6.676s-5.732-4.377-7.086-3.231,6.462,10.526,6.462,10.526-8.859-9.588-9.745-9.119,2.449,5.054,2.449,5.054-4.378-4.794-5.576-3.96S77.065-7.7,77.065-7.7s-8.076-12.766-11.411-10.63C70.89-6.844,68.936-5.2,68.936-5.2s-.668-11.722-7.191-11.411c-3.283.156,1.563,8.753,1.563,8.753s-4.46-7.853-7.43-7.7C61.353-5.2,59.4-.982,59.4-.982s.905-8.849-6.519-13.772c2.813,2.5-1.765,13.772-1.765,13.772s4.029-16.61-2.97-13.443c-1.106.5-.078,8.285-.078,8.285s-1.408-8.91-3.517-8.441c-1.231.273-7.817,12.349-7.817,12.349s5.393-13.053,3.752-12.505c-1.2.4-3.439,5.783-3.439,5.783s1.094-5.315,0-5.627-7.19,5.627-7.19,5.627,4.534-5.315,3.751-6.409c-1.185-1.658-2.573-1.735-4.22-1.093-2.4.934-5.628,5.314-5.628,5.314s3.22-4.436,2.657-6.1c-.9-2.669-10.16,5.159-10.16,5.159s5.471-5.159,4.22-6.253-8.04-.756-10.161-.762C4.064-19.115,1.9-20.581,0-22.085" transform="translate(0 34.954)" fill="#2d2f79"/>
      </g>
      <path id="Path_6501" data-name="Path 6501" d="M-5823.454-6259.983c.072.091,7.833,4.543,1.372,14.425-5.56,7.427-18.519,6.047-18.519,6.047a15.914,15.914,0,0,1-11.154-9.821c-.722-1.6-1.443-5.524.435-7.244S-5823.454-6259.983-5823.454-6259.983Z" transform="translate(5884.153 6266.141)" fill="#2d2f79"/>
    </g>
  </g>
</svg>
