<svg xmlns="http://www.w3.org/2000/svg" xmlns:xlink="http://www.w3.org/1999/xlink" width="100" height="100" viewBox="0 0 100 100">
  <defs>
    <clipPath id="clip-icon_19">
      <rect width="100" height="100"/>
    </clipPath>
  </defs>
  <g id="icon_19" data-name="icon – 19" clip-path="url(#clip-icon_19)">
    <g id="Group_2450" data-name="Group 2450" transform="translate(3611.609 5894.471)">
      <path id="Path_6542" data-name="Path 6542" d="M193.164,96.248H167.349a1.117,1.117,0,0,0-1.116,1.116V115.3h0a1.117,1.117,0,0,0,1.116,1.116h25.815a1.117,1.117,0,0,0,1.116-1.116V97.365a1.117,1.117,0,0,0-1.116-1.116Zm-1.116,17.939H168.466V98.48h23.583Zm1.116,4.379H167.349a1.116,1.116,0,0,0-1.116,1.116v33.562a1.116,1.116,0,0,0,1.116,1.116h25.815a1.116,1.116,0,0,0,1.116-1.116V119.682a1.116,1.116,0,0,0-1.116-1.116Zm-1.116,33.56H168.466V120.8h23.583Zm31.393-24.549H197.627a1.116,1.116,0,0,0-1.116,1.116v24.551a1.116,1.116,0,0,0,1.116,1.116h25.815a1.116,1.116,0,0,0,1.116-1.116V128.693a1.116,1.116,0,0,0-1.116-1.116Zm-1.116,24.549H198.743V129.808h23.583Zm-16.319-18.968a1.116,1.116,0,0,1,1.116-1.116h11.855a1.116,1.116,0,0,1,0,2.232H207.123A1.116,1.116,0,0,1,206.007,133.158Zm14.087,4.463h0a1.115,1.115,0,0,1-1.116,1.116h-7.392a1.116,1.116,0,0,1,0-2.231h7.392a1.115,1.115,0,0,1,1.116,1.116Zm-46.04-13.39a1.115,1.115,0,0,1,1.116-1.116h9.465a1.116,1.116,0,1,1,0,2.231h-9.465A1.115,1.115,0,0,1,174.054,124.231Zm-3.274.421h0a1.314,1.314,0,0,1-.089-.424,1.118,1.118,0,1,1,1.919.781.856.856,0,0,1-.38.246.9.9,0,0,1-.424.089,1.042,1.042,0,0,1-.781-.335,1.013,1.013,0,0,1-.246-.356Zm3.274,4.042a1.116,1.116,0,0,1,1.116-1.116h9.465a1.116,1.116,0,1,1,0,2.232h-9.465A1.116,1.116,0,0,1,174.054,128.694Zm-3.029.8h0a1.237,1.237,0,0,1-.335-.8,1.308,1.308,0,0,1,.089-.424,1.016,1.016,0,0,1,.246-.357,1.113,1.113,0,0,1,1.2-.245.854.854,0,0,1,.38.245,1.113,1.113,0,0,1,.312.781,1.071,1.071,0,0,1-1.116,1.116,1.116,1.116,0,0,1-.781-.312Zm3.029,3.662h0a1.116,1.116,0,0,1,1.116-1.116h9.465a1.116,1.116,0,1,1,0,2.232h-9.465a1.116,1.116,0,0,1-1.116-1.116Zm-3.274.421h0a1.31,1.31,0,0,1-.089-.424,1.127,1.127,0,0,1,1.919-.782,1.113,1.113,0,0,1,.312.782,1.21,1.21,0,0,1-.312.8,1.072,1.072,0,0,1-.38.223.9.9,0,0,1-.424.089,1.117,1.117,0,0,1-.781-.312,1.379,1.379,0,0,1-.246-.38Zm-.083-31.751h0a1.115,1.115,0,0,1,1.116-1.116h14.209a1.116,1.116,0,0,1,0,2.231H171.806a1.116,1.116,0,0,1-1.109-1.116Zm0,4.463h0a1.115,1.115,0,0,1,1.116-1.116h5.282a1.116,1.116,0,1,1,0,2.232h-5.289a1.116,1.116,0,0,1-1.109-1.116Zm11.917,38.09,5.209-6.606a1.117,1.117,0,0,1,1.754,1.382l-5.992,7.588a1.117,1.117,0,0,1-1.672.093l-4-4.019-5.218,6.829h0a1.117,1.117,0,0,1-1.775-1.357l6-7.847a1.117,1.117,0,0,1,.815-.446,1.166,1.166,0,0,1,.866.33Z" transform="translate(-3766.38 -5957.134)" fill="#2d2f79"/>
      <path id="Subtraction_2" data-name="Subtraction 2" d="M68.765,98.326H5.814A5.814,5.814,0,0,1,0,92.513V29.561a5.814,5.814,0,0,1,5.814-5.813H43.761v2.324H5.814a3.491,3.491,0,0,0-3.489,3.488V92.512A3.491,3.491,0,0,0,5.814,96H68.765a3.491,3.491,0,0,0,3.488-3.488V57.034h2.326V92.513a5.814,5.814,0,0,1-5.814,5.813Z" transform="translate(-3608.274 -5893.634)" fill="#2d2f79"/>
      <g id="Rectangle_4496" data-name="Rectangle 4496" transform="translate(-3565.263 -5893.634)" fill="none" stroke="#2d2f79" stroke-linecap="round" stroke-width="1.5" stroke-dasharray="3 4">
        <rect width="50.32" height="57.784" stroke="none"/>
        <rect x="0.75" y="0.75" width="48.82" height="56.284" fill="none"/>
      </g>
      <path id="Path_6288" data-name="Path 6288" d="M208.3,102.757c0-.012-.025-.017-.032-.03h0a15.391,15.391,0,1,0-4.618,22.894h.022l.032-.027h0a15.334,15.334,0,0,0,4.618-22.782.344.344,0,0,0-.022-.057Zm-2.753.586-8.17,6.347V99.374A12.853,12.853,0,0,1,205.546,103.343Zm-22.336,8.848a12.914,12.914,0,0,1,11.716-12.817V112.19c0,.02.015.034.015.052a1.209,1.209,0,0,0,.142.549l6.288,11.224a12.809,12.809,0,0,1-5.219,1.12,12.957,12.957,0,0,1-12.942-12.943Zm20.3,10.629-5.772-10.306,9.308-7.239A12.84,12.84,0,0,1,203.5,122.82Z" transform="translate(-3736.245 -5976.935)" fill="#2d2f79"/>
    </g>
  </g>
</svg>
