<svg xmlns="http://www.w3.org/2000/svg" xmlns:xlink="http://www.w3.org/1999/xlink" width="100" height="100" viewBox="0 0 100 100">
  <defs>
    <clipPath id="clip-icon_15">
      <rect width="100" height="100"/>
    </clipPath>
  </defs>
  <g id="icon_15" data-name="icon – 15" clip-path="url(#clip-icon_15)">
    <g id="Group_2426" data-name="Group 2426" transform="translate(2.726 0.308)">
      <path id="Path_6275" data-name="Path 6275" d="M193.164,96.248H167.349a1.117,1.117,0,0,0-1.116,1.116V115.3h0a1.117,1.117,0,0,0,1.116,1.116h25.815a1.117,1.117,0,0,0,1.116-1.116V97.365a1.117,1.117,0,0,0-1.116-1.116Zm-1.116,17.939H168.466V98.48h23.583Zm1.116,4.379H167.349a1.116,1.116,0,0,0-1.116,1.116v33.562a1.116,1.116,0,0,0,1.116,1.116h25.815a1.116,1.116,0,0,0,1.116-1.116V119.682a1.116,1.116,0,0,0-1.116-1.116Zm-1.116,33.56H168.466V120.8h23.583Zm31.393-24.549H197.627a1.116,1.116,0,0,0-1.116,1.116v24.551a1.116,1.116,0,0,0,1.116,1.116h25.815a1.116,1.116,0,0,0,1.116-1.116V128.693a1.116,1.116,0,0,0-1.116-1.116Zm-1.116,24.549H198.743V129.808h23.583Zm-16.319-18.968a1.116,1.116,0,0,1,1.116-1.116h11.855a1.116,1.116,0,0,1,0,2.232H207.123A1.116,1.116,0,0,1,206.007,133.158Zm14.087,4.463h0a1.115,1.115,0,0,1-1.116,1.116h-7.392a1.116,1.116,0,0,1,0-2.231h7.392a1.115,1.115,0,0,1,1.116,1.116Zm-46.04-13.39a1.115,1.115,0,0,1,1.116-1.116h9.465a1.116,1.116,0,1,1,0,2.231h-9.465A1.115,1.115,0,0,1,174.054,124.231Zm-3.274.421h0a1.314,1.314,0,0,1-.089-.424,1.118,1.118,0,1,1,1.919.781.856.856,0,0,1-.38.246.9.9,0,0,1-.424.089,1.042,1.042,0,0,1-.781-.335,1.013,1.013,0,0,1-.246-.356Zm3.274,4.042a1.116,1.116,0,0,1,1.116-1.116h9.465a1.116,1.116,0,1,1,0,2.232h-9.465A1.116,1.116,0,0,1,174.054,128.694Zm-3.029.8h0a1.237,1.237,0,0,1-.335-.8,1.308,1.308,0,0,1,.089-.424,1.016,1.016,0,0,1,.246-.357,1.113,1.113,0,0,1,1.2-.245.854.854,0,0,1,.38.245,1.113,1.113,0,0,1,.312.781,1.071,1.071,0,0,1-1.116,1.116,1.116,1.116,0,0,1-.781-.312Zm3.029,3.662h0a1.116,1.116,0,0,1,1.116-1.116h9.465a1.116,1.116,0,1,1,0,2.232h-9.465a1.116,1.116,0,0,1-1.116-1.116Zm-3.274.421h0a1.31,1.31,0,0,1-.089-.424,1.127,1.127,0,0,1,1.919-.782,1.113,1.113,0,0,1,.312.782,1.21,1.21,0,0,1-.312.8,1.072,1.072,0,0,1-.38.223.9.9,0,0,1-.424.089,1.117,1.117,0,0,1-.781-.312,1.379,1.379,0,0,1-.246-.38Zm-.083-31.751h0a1.115,1.115,0,0,1,1.116-1.116h14.209a1.116,1.116,0,0,1,0,2.231H171.806a1.116,1.116,0,0,1-1.109-1.116Zm0,4.463h0a1.115,1.115,0,0,1,1.116-1.116h5.282a1.116,1.116,0,1,1,0,2.232h-5.289a1.116,1.116,0,0,1-1.109-1.116Zm11.917,38.09,5.209-6.606a1.117,1.117,0,0,1,1.754,1.382l-5.992,7.588a1.117,1.117,0,0,1-1.672.093l-4-4.019-5.218,6.829h0a1.117,1.117,0,0,1-1.775-1.357l6-7.847a1.117,1.117,0,0,1,.815-.446,1.166,1.166,0,0,1,.866.33Z" transform="translate(-157.889 -63.098)" fill="#2d2f79"/>
      <path id="Path_6274" data-name="Path 6274" d="M231.689,92.941H168.738a5.814,5.814,0,0,0-5.814,5.814v62.951a5.814,5.814,0,0,0,5.814,5.813h62.951a5.814,5.814,0,0,0,5.814-5.813V98.754a5.814,5.814,0,0,0-5.814-5.814Zm3.488,68.764a3.491,3.491,0,0,1-3.488,3.488H168.738a3.491,3.491,0,0,1-3.488-3.488V98.753a3.491,3.491,0,0,1,3.488-3.488h62.951a3.491,3.491,0,0,1,3.488,3.488Z" transform="translate(-162.924 -68.134)" fill="#2d2f79"/>
      <g id="Group_2317" data-name="Group 2317" transform="translate(41.508)">
        <g id="Rectangle_4412" data-name="Rectangle 4412" transform="translate(1.502 1.058)" fill="#f2f7ff" stroke="#2d2f79" stroke-linecap="round" stroke-width="1.5" stroke-dasharray="3 4">
          <rect width="50.32" height="57.784" stroke="none"/>
          <rect x="0.75" y="0.75" width="48.82" height="56.284" fill="none"/>
        </g>
        <g id="Rectangle_4413" data-name="Rectangle 4413" fill="#fff" stroke="#2d2f79" stroke-width="0.2">
          <rect width="6.351" height="6.351" stroke="none"/>
          <rect x="0.1" y="0.1" width="6.151" height="6.151" fill="none"/>
        </g>
        <g id="Rectangle_4456" data-name="Rectangle 4456" transform="translate(0 26.996)" fill="#fff" stroke="#2d2f79" stroke-width="0.2">
          <rect width="6.351" height="6.351" stroke="none"/>
          <rect x="0.1" y="0.1" width="6.151" height="6.151" fill="none"/>
        </g>
        <g id="Rectangle_4458" data-name="Rectangle 4458" transform="translate(0 52.934)" fill="#fff" stroke="#2d2f79" stroke-width="0.2">
          <rect width="6.351" height="6.351" stroke="none"/>
          <rect x="0.1" y="0.1" width="6.151" height="6.151" fill="none"/>
        </g>
        <g id="Rectangle_4454" data-name="Rectangle 4454" transform="translate(46.688)" fill="#fff" stroke="#2d2f79" stroke-width="0.2">
          <rect width="6.351" height="6.351" stroke="none"/>
          <rect x="0.1" y="0.1" width="6.151" height="6.151" fill="none"/>
        </g>
        <g id="Rectangle_4455" data-name="Rectangle 4455" transform="translate(46.688 26.996)" fill="#fff" stroke="#2d2f79" stroke-width="0.2">
          <rect width="6.351" height="6.351" stroke="none"/>
          <rect x="0.1" y="0.1" width="6.151" height="6.151" fill="none"/>
        </g>
        <g id="Rectangle_4457" data-name="Rectangle 4457" transform="translate(46.688 52.934)" fill="#fff" stroke="#2d2f79" stroke-width="0.2">
          <rect width="6.351" height="6.351" stroke="none"/>
          <rect x="0.1" y="0.1" width="6.151" height="6.151" fill="none"/>
        </g>
        <path id="Path_6288" data-name="Path 6288" d="M208.3,102.757c0-.012-.025-.017-.032-.03h0a15.391,15.391,0,1,0-4.618,22.894h.022l.032-.027h0a15.334,15.334,0,0,0,4.618-22.782.344.344,0,0,0-.022-.057Zm-2.753.586-8.17,6.347V99.374A12.853,12.853,0,0,1,205.546,103.343Zm-22.336,8.848a12.914,12.914,0,0,1,11.716-12.817V112.19c0,.02.015.034.015.052a1.209,1.209,0,0,0,.142.549l6.288,11.224a12.809,12.809,0,0,1-5.219,1.12,12.957,12.957,0,0,1-12.942-12.943Zm20.3,10.629-5.772-10.306,9.308-7.239A12.84,12.84,0,0,1,203.5,122.82Z" transform="translate(-170.219 -82.719)" fill="#2d2f79"/>
      </g>
    </g>
  </g>
</svg>
