<svg xmlns="http://www.w3.org/2000/svg" xmlns:xlink="http://www.w3.org/1999/xlink" width="100" height="100" viewBox="0 0 100 100">
  <defs>
    <clipPath id="clip-icon_18">
      <rect width="100" height="100"/>
    </clipPath>
  </defs>
  <g id="icon_18" data-name="icon – 18" clip-path="url(#clip-icon_18)">
    <g id="Group_2429" data-name="Group 2429" transform="translate(7 0.848)">
      <g id="Group_2377" data-name="Group 2377" transform="translate(0 0)">
        <g id="Group_2372" data-name="Group 2372">
          <g id="Rectangle_4459" data-name="Rectangle 4459" fill="none" stroke="#2b2d79" stroke-width="3">
            <rect width="86" height="88" rx="5" stroke="none"/>
            <rect x="1.5" y="1.5" width="83" height="85" rx="3.5" fill="none"/>
          </g>
        </g>
        <g id="Group_2375" data-name="Group 2375" transform="translate(10.131 11.314)">
          <path id="Path_6462" data-name="Path 6462" d="M148.4,112h4.824v4.64H148.4Z" transform="translate(-148.4 -112)" fill="#2a3180"/>
          <path id="Path_6463" data-name="Path 6463" d="M193.2,112h5.078v4.64H193.2Z" transform="translate(-185.565 -112)" fill="#2a3180"/>
          <path id="Path_6464" data-name="Path 6464" d="M238,112h4.862v4.64H238Z" transform="translate(-222.015 -112)" fill="#2a3180"/>
          <path id="Path_6465" data-name="Path 6465" d="M282.8,112h41.943v4.64H282.8Z" transform="translate(-258.211 -112)" fill="#2a3180"/>
        </g>
      </g>
      <g id="Group_2379" data-name="Group 2379" transform="translate(24.707 30.122)">
        <path id="Path_6466" data-name="Path 6466" d="M1.834,0h18.08" transform="translate(16.672 27.755)" fill="none" stroke="#2d2f79" stroke-linecap="round" stroke-width="3.5"/>
        <g id="Group_2378" data-name="Group 2378">
          <line id="Line_712" data-name="Line 712" x2="15.139" y2="12.616" fill="none" stroke="#2d2f79" stroke-linecap="round" stroke-width="3.5"/>
          <line id="Line_713" data-name="Line 713" x1="15.139" y2="12.616" transform="translate(0 12.616)" fill="none" stroke="#2d2f79" stroke-linecap="round" stroke-width="3.5"/>
        </g>
      </g>
      <g id="Group_2380" data-name="Group 2380" transform="translate(17.773 72.945)">
        <g id="Group_2321" data-name="Group 2321">
          <path id="Path_6224" data-name="Path 6224" d="M163.823,275V257.856a4.222,4.222,0,0,0-1.124-2.913,3.728,3.728,0,0,0-2.739-1.2H117.609a3.728,3.728,0,0,0-2.739,1.2,4.221,4.221,0,0,0-1.124,2.913V275h0a4.221,4.221,0,0,0,1.124,2.913,3.727,3.727,0,0,0,2.739,1.2H159.96a3.728,3.728,0,0,0,2.739-1.2A4.221,4.221,0,0,0,163.823,275Z" transform="translate(-113.745 -253.747)" fill="#2d2f79"/>
          <path id="Path_6225" data-name="Path 6225" d="M280.406,305.213a5.76,5.76,0,0,0-1.615-4.082,5.605,5.605,0,0,0-7.982,0,6.093,6.093,0,0,0,0,8.165,5.606,5.606,0,0,0,7.982,0A5.7,5.7,0,0,0,280.406,305.213Z" transform="translate(-249.295 -293.645)" fill="#2d2f79"/>
        </g>
        <path id="Path_6467" data-name="Path 6467" d="M1.222,8.385H8.865c5.67,0,9.542-3.5,9.542-8.743S14.536-9.1,8.865-9.1H1.222ZM4.469,5.637V-6.352H8.716c3.9,0,6.42,2.373,6.42,5.995s-2.523,5.995-6.42,5.995ZM34.244-.707a4.192,4.192,0,0,0,2.248-3.847c0-2.773-2.248-4.546-6.444-4.546H21.854V8.385h8.693c4.5,0,6.844-1.749,6.844-4.746A4.306,4.306,0,0,0,34.244-.707ZM29.7-6.552c2.248,0,3.522.8,3.522,2.423,0,1.6-1.274,2.4-3.522,2.4H25.1V-6.552Zm.649,12.389H25.1V.792h5.246c2.448,0,3.772.774,3.772,2.523S32.8,5.837,30.347,5.837Z" transform="translate(6.463 12.943)" fill="#f5f8fb"/>
      </g>
    </g>
  </g>
</svg>
