<svg xmlns="http://www.w3.org/2000/svg" xmlns:xlink="http://www.w3.org/1999/xlink" width="100" height="100" viewBox="0 0 100 100">
  <defs>
    <clipPath id="clip-icon_66">
      <rect width="100" height="100"/>
    </clipPath>
  </defs>
  <g id="icon_66" data-name="icon – 66" clip-path="url(#clip-icon_66)">
    <g id="Group_2461" data-name="Group 2461" transform="translate(-0.253)">
      <g id="Group_2460" data-name="Group 2460" transform="translate(3592.638 5636.44)">
        <path id="Subtraction_4" data-name="Subtraction 4" d="M3.455,22.359a3.367,3.367,0,0,1-2.443-1.054A3.705,3.705,0,0,1,0,18.737V3.622A3.705,3.705,0,0,1,1.012,1.054,3.371,3.371,0,0,1,3.458,0H41.62a3.371,3.371,0,0,1,2.446,1.054,3.708,3.708,0,0,1,1.012,2.569V18.737a3.705,3.705,0,0,1-1.012,2.569,3.367,3.367,0,0,1-2.443,1.054H3.455ZM25.489,3.388V18.805h7.825c3.973,0,6.16-1.486,6.16-4.184a3.82,3.82,0,0,0-2.833-3.832A3.669,3.669,0,0,0,38.666,7.4a3.446,3.446,0,0,0-1.484-2.921,7.5,7.5,0,0,0-4.317-1.088H25.489Zm-18.572,0V18.805H13.8c5.137,0,8.589-3.1,8.589-7.708S18.935,3.388,13.8,3.388H6.917Zm26.218,13.17H28.412V12.11h4.722c2.285,0,3.4.728,3.4,2.224S35.419,16.559,33.135,16.559Zm-19.472-.176H9.841V5.811h3.822c3.51,0,5.779,2.075,5.779,5.286S17.173,16.382,13.663,16.382Zm18.887-6.5H28.412V5.635H32.55c2.074,0,3.17.739,3.17,2.136S34.624,9.886,32.55,9.886Z" transform="translate(-3566.229 -5561.098)" fill="#2d2f79"/>
        <path id="Path_6557" data-name="Path 6557" d="M-3439.229-5536.418h-14.409v-85.043h84.506v85.043H-3386.7" transform="translate(-131 -12.68)" fill="none" stroke="#2b2d79" stroke-linecap="round" stroke-linejoin="round" stroke-width="3"/>
      </g>
      <g id="Group_2379" data-name="Group 2379" transform="translate(31.707 30.97)">
        <path id="Path_6466" data-name="Path 6466" d="M1.834,0h18.08" transform="translate(16.672 27.755)" fill="none" stroke="#2d2f79" stroke-linecap="round" stroke-width="3.5"/>
        <g id="Group_2378" data-name="Group 2378">
          <line id="Line_712" data-name="Line 712" x2="15.139" y2="12.616" fill="none" stroke="#2d2f79" stroke-linecap="round" stroke-width="3.5"/>
          <line id="Line_713" data-name="Line 713" x1="15.139" y2="12.616" transform="translate(0 12.616)" fill="none" stroke="#2d2f79" stroke-linecap="round" stroke-width="3.5"/>
        </g>
      </g>
      <g id="Group_2375" data-name="Group 2375" transform="translate(17.131 12.162)">
        <path id="Path_6462" data-name="Path 6462" d="M148.4,112h4.824v4.64H148.4Z" transform="translate(-148.4 -112)" fill="#2a3180"/>
        <path id="Path_6463" data-name="Path 6463" d="M193.2,112h5.078v4.64H193.2Z" transform="translate(-185.565 -112)" fill="#2a3180"/>
        <path id="Path_6464" data-name="Path 6464" d="M238,112h4.862v4.64H238Z" transform="translate(-222.015 -112)" fill="#2a3180"/>
        <path id="Path_6465" data-name="Path 6465" d="M282.8,112h41.943v4.64H282.8Z" transform="translate(-258.211 -112)" fill="#2a3180"/>
      </g>
    </g>
  </g>
</svg>
