<svg xmlns="http://www.w3.org/2000/svg" xmlns:xlink="http://www.w3.org/1999/xlink" width="100" height="100" viewBox="0 0 100 100">
  <defs>
    <clipPath id="clip-icon_5">
      <rect width="100" height="100"/>
    </clipPath>
  </defs>
  <g id="icon_5" data-name="icon – 5" clip-path="url(#clip-icon_5)">
    <g id="Group_2416" data-name="Group 2416" transform="translate(-89.164 -343.383)">
      <path id="Union_1" data-name="Union 1" d="M6.572,98.765A6.61,6.61,0,0,1,0,92.192V6.572A6.609,6.609,0,0,1,6.572,0H56.194a1.625,1.625,0,0,1,1.191.514L77.821,20.948a1.6,1.6,0,0,1,.509,1.192V92.192a6.605,6.605,0,0,1-6.574,6.573ZM3.408,92.192a3.166,3.166,0,0,0,3.165,3.17H71.755a3.166,3.166,0,0,0,3.171-3.17V23.838H56.194a1.7,1.7,0,0,1-1.7-1.7V3.408H6.572A3.174,3.174,0,0,0,3.4,6.572V9.025h.015V87.373h-.01ZM57.892,20.435H72.5L57.892,5.826Z" transform="translate(99.999 344)" fill="#2d2f79"/>
      <g id="Group_2224" data-name="Group 2224" transform="translate(110.837 380.727)">
        <g id="Group_2255" data-name="Group 2255" transform="translate(0 0)">
          <path id="Path_6231" data-name="Path 6231" d="M156.032,220.828a2.022,2.022,0,0,0-.372-1.2,1.135,1.135,0,0,0-.9-.5H100.441c-.7,0-1.269.76-1.269,1.7v15.057a2.021,2.021,0,0,0,.372,1.2,1.135,1.135,0,0,0,.9.5h54.321a1.135,1.135,0,0,0,.9-.5,2.021,2.021,0,0,0,.372-1.2Zm-1.269,15.057H100.441V220.828h54.321Z" transform="translate(-99.172 -219.131)" fill="#2d2f79" stroke="#2d2f79" stroke-width="0.7"/>
          <path id="Path_6232" data-name="Path 6232" d="M188.186,262.091a2.364,2.364,0,1,1-2.365-2.364,2.364,2.364,0,0,1,2.365,2.364" transform="translate(-173.928 -252.865)" fill="#2d2f79"/>
          <path id="Path_6233" data-name="Path 6233" d="M253.925,262.091a2.364,2.364,0,1,1-2.364-2.364,2.364,2.364,0,0,1,2.364,2.364" transform="translate(-232.235 -252.865)" fill="#2d2f79"/>
          <path id="Path_6234" data-name="Path 6234" d="M319.676,262.091a2.364,2.364,0,1,1-2.364-2.364,2.365,2.365,0,0,1,2.364,2.364" transform="translate(-290.552 -252.865)" fill="#2d2f79"/>
        </g>
        <g id="Group_2293" data-name="Group 2293" transform="translate(0 25.329)">
          <path id="Path_6231-2" data-name="Path 6231" d="M156.032,220.828a2.022,2.022,0,0,0-.372-1.2,1.135,1.135,0,0,0-.9-.5H100.441c-.7,0-1.269.76-1.269,1.7v15.057a2.021,2.021,0,0,0,.372,1.2,1.135,1.135,0,0,0,.9.5h54.321a1.135,1.135,0,0,0,.9-.5,2.021,2.021,0,0,0,.372-1.2Zm-1.269,15.057H100.441V220.828h54.321Z" transform="translate(-99.172 -219.131)" fill="#2d2f79" stroke="#2d2f79" stroke-width="0.7"/>
          <path id="Path_6232-2" data-name="Path 6232" d="M188.186,262.091a2.364,2.364,0,1,1-2.365-2.364,2.364,2.364,0,0,1,2.365,2.364" transform="translate(-173.928 -252.865)" fill="#2d2f79"/>
          <path id="Path_6233-2" data-name="Path 6233" d="M253.925,262.091a2.364,2.364,0,1,1-2.364-2.364,2.364,2.364,0,0,1,2.364,2.364" transform="translate(-232.235 -252.865)" fill="#2d2f79"/>
          <path id="Path_6234-2" data-name="Path 6234" d="M319.676,262.091a2.364,2.364,0,1,1-2.364-2.364,2.365,2.365,0,0,1,2.364,2.364" transform="translate(-290.552 -252.865)" fill="#2d2f79"/>
        </g>
      </g>
    </g>
  </g>
</svg>
