<svg xmlns="http://www.w3.org/2000/svg" viewBox="0 0 76 92"><defs><style>.cls-1{fill:#7d9091;}.cls-2{fill:#f39c12;}</style></defs><title>domain-audit</title><g id="Layer_2" data-name="Layer 2"><g id="fanta-theme"><g id="assets-management"><ellipse class="cls-1" cx="5.98" cy="8.75" rx="5.98" ry="5.83"/><path class="cls-1" d="M6,40.17A5.83,5.83,0,1,0,6,51.83,5.83,5.83,0,1,0,6,40.17Z"/><ellipse class="cls-1" cx="5.98" cy="83.25" rx="5.98" ry="5.83"/><path class="cls-2" d="M64.5,0H28.86V20.2H64.5V0ZM34.61,5.61H47.83a1.69,1.69,0,1,1,0,3.37H34.61a1.69,1.69,0,1,1,0-3.37Zm24.72,10.1H34.61a1.69,1.69,0,1,1,0-3.37H59.33a1.69,1.69,0,1,1,0,3.37Z"/><path class="cls-1" d="M28.86,35.9V56.1H76V35.9Zm5.75,5.61H47.83a1.69,1.69,0,1,1,0,3.37H34.61a1.69,1.69,0,1,1,0-3.37Zm24.72,10.1H34.61a1.69,1.69,0,1,1,0-3.37H59.33a1.69,1.69,0,1,1,0,3.37Z"/><path class="cls-2" d="M28.86,92H64.5V71.8H28.86Zm5.75-14.59H47.83a1.69,1.69,0,1,1,0,3.37H34.61a1.69,1.69,0,1,1,0-3.37Zm0,6.74H59.33a1.68,1.68,0,1,1,0,3.36H34.61a1.68,1.68,0,1,1,0-3.36Z"/><polygon class="cls-1" points="4.71 38.15 7.01 38.15 7.01 16.16 4.71 16.27 4.71 38.15"/><rect class="cls-1" x="4.71" y="53.85" width="2.3" height="22.44"/></g></g></g></svg>