<svg xmlns="http://www.w3.org/2000/svg" xmlns:xlink="http://www.w3.org/1999/xlink" width="100" height="100" viewBox="0 0 100 100">
  <defs>
    <clipPath id="clip-icon_58">
      <rect width="100" height="100"/>
    </clipPath>
  </defs>
  <g id="icon_58" data-name="icon – 58" clip-path="url(#clip-icon_58)">
    <g id="Group_2428" data-name="Group 2428" transform="translate(14.135 0.602)">
      <g id="Group_2325" data-name="Group 2325" transform="translate(0 0)">
        <path id="Path_6223" data-name="Path 6223" d="M220,45.434,201.291,26.722a1.466,1.466,0,0,0-1.092-.468H154.76a6.049,6.049,0,0,0-6.019,6.019l.212,45.079a1.559,1.559,0,0,0,3.119,0l-.212-45.079a2.9,2.9,0,0,1,2.9-2.9h43.88V46.526a1.559,1.559,0,0,0,1.559,1.559h17.152v62.592a2.9,2.9,0,0,1-2.9,2.9h-59.69a2.9,2.9,0,0,1-2.9-2.9l.211-35.872a1.559,1.559,0,1,0-3.119,0l-.211,35.872a6.049,6.049,0,0,0,6.019,6.019h59.69a6.049,6.049,0,0,0,6.019-6.019V46.526A1.466,1.466,0,0,0,220,45.434ZM201.758,31.588l13.379,13.379H201.758Z" transform="translate(-148.742 -26.254)" fill="#2d2f79"/>
        <g id="Group_2322" data-name="Group 2322" transform="translate(0 72.57)">
          <g id="Group_2321" data-name="Group 2321">
            <path id="Path_6224" data-name="Path 6224" d="M185.472,275.726V258a3.8,3.8,0,0,0-1.61-3.012,6.449,6.449,0,0,0-3.923-1.236h-60.66a6.45,6.45,0,0,0-3.923,1.236,3.8,3.8,0,0,0-1.61,3.012v17.729h0a3.8,3.8,0,0,0,1.61,3.013,6.448,6.448,0,0,0,3.923,1.236h60.66a6.449,6.449,0,0,0,3.923-1.236,3.8,3.8,0,0,0,1.61-3.013Z" transform="translate(-113.745 -253.747)" fill="#2d2f79"/>
            <path id="Path_6225" data-name="Path 6225" d="M280.169,305.091a5.637,5.637,0,0,0-1.58-4,5.487,5.487,0,0,0-7.813,0,5.964,5.964,0,0,0,0,7.991,5.487,5.487,0,0,0,7.813,0A5.578,5.578,0,0,0,280.169,305.091Z" transform="translate(-238.077 -293.179)" fill="#2d2f79"/>
          </g>
          <path id="Path_6402" data-name="Path 6402" d="M1.128,7.5H8.034c5.123,0,8.621-3.16,8.621-7.9s-3.5-7.9-8.621-7.9H1.128ZM4.062,5.021V-5.812H7.9c3.521,0,5.8,2.144,5.8,5.416S11.419,5.021,7.9,5.021Zm20.6,2.708c4.333,0,6.387-2.167,6.387-4.694,0-5.8-9.366-3.611-9.366-6.974,0-1.2.993-2.144,3.43-2.144a8.779,8.779,0,0,1,4.356,1.241L30.4-7.121a9.988,9.988,0,0,0-5.258-1.4c-4.333,0-6.364,2.167-6.364,4.717,0,5.868,9.388,3.633,9.388,7.041,0,1.174-1.038,2.054-3.5,2.054a8.753,8.753,0,0,1-5.213-1.738L18.438,5.833A10.179,10.179,0,0,0,24.666,7.729Zm24.622-.271A3.578,3.578,0,0,1,46.58,8.722,3.456,3.456,0,0,1,43.94,7.39,7.91,7.91,0,0,0,49.852-.4c0-4.694-3.611-8.124-8.508-8.124S32.836-5.067,32.836-.4a8,8,0,0,0,7.605,8.079c2.325,2.437,3.927,3.272,6.071,3.272a5.257,5.257,0,0,0,4.13-1.873ZM35.793-.4a5.384,5.384,0,0,1,5.552-5.552A5.384,5.384,0,0,1,46.9-.4a5.384,5.384,0,0,1-5.552,5.552A5.384,5.384,0,0,1,35.793-.4ZM52.967,7.5H64.161V5.021H55.9V-8.294H52.967Z" transform="translate(3.22 12.281)" fill="#f5f8fb"/>
        </g>
        <g id="Group_2381" data-name="Group 2381" transform="translate(16.236 28.245)">
          <path id="Path_6313" data-name="Path 6313" d="M120.876,43.121H85.163A1.162,1.162,0,0,0,84,44.282V75.911a1.162,1.162,0,0,0,1.161,1.161h35.753a1.162,1.162,0,0,0,1.161-1.161V44.282a1.2,1.2,0,0,0-1.2-1.161ZM119.754,45.4v6.286H86.284V45.4ZM86.284,74.71V53.971h33.471V74.75H86.284Z" transform="translate(-84.002 -43.121)" fill="#2d2f79" stroke="#2d2f79" stroke-width="0.2"/>
          <path id="Path_6314" data-name="Path 6314" d="M143.359,100.523a1.4,1.4,0,1,1-1.4-1.4,1.4,1.4,0,0,1,1.4,1.4" transform="translate(-136.512 -95.117)" fill="#2d2f79" stroke="#2d2f79" stroke-width="0.2"/>
          <path id="Path_6315" data-name="Path 6315" d="M199.359,100.523a1.4,1.4,0,1,1-1.4-1.4,1.4,1.4,0,0,1,1.4,1.4" transform="translate(-188.51 -95.117)" fill="#2d2f79" stroke="#2d2f79" stroke-width="0.2"/>
          <path id="Path_6316" data-name="Path 6316" d="M254.8,100.523a1.4,1.4,0,1,1-1.4-1.4,1.4,1.4,0,0,1,1.4,1.4" transform="translate(-239.988 -95.117)" fill="#2d2f79" stroke="#2d2f79" stroke-width="0.2"/>
          <path id="Path_6317" data-name="Path 6317" d="M186.624,250.217l-6.526-5.685a1.135,1.135,0,0,0-1.481,1.721l5.525,4.845-5.565,4.8a1.138,1.138,0,0,0-.12,1.6,1.286,1.286,0,0,0,.881.4,1.123,1.123,0,0,0,.761-.28l6.526-5.685a1.147,1.147,0,0,0,.4-.881,1.127,1.127,0,0,0-.4-.841Z" transform="translate(-171.451 -229.879)" fill="#2d2f79" stroke="#2d2f79" stroke-width="0.2"/>
          <path id="Path_6318" data-name="Path 6318" d="M304.886,403.2H297.96a1.161,1.161,0,1,0,0,2.322h6.966a1.162,1.162,0,0,0,1.161-1.161A1.224,1.224,0,0,0,304.886,403.2Z" transform="translate(-281.586 -377.457)" fill="#2d2f79" stroke="#2d2f79" stroke-width="0.2"/>
        </g>
      </g>
    </g>
  </g>
</svg>
