<svg xmlns="http://www.w3.org/2000/svg" xmlns:xlink="http://www.w3.org/1999/xlink" width="100" height="100" viewBox="0 0 100 100">
  <defs>
    <clipPath id="clip-icon_3">
      <rect width="100" height="100"/>
    </clipPath>
  </defs>
  <g id="icon_3" data-name="icon – 3" clip-path="url(#clip-icon_3)">
    <g id="Group_2414" data-name="Group 2414" transform="translate(-2010.813 -1835.048)">
      <g id="noun-sql-3283234" transform="translate(2018 1835.384)">
        <path id="Path_6223" data-name="Path 6223" d="M227.005,47.319l-20.551-20.55a1.61,1.61,0,0,0-1.2-.514h-49.9a6.643,6.643,0,0,0-6.61,6.61V65.644a1.713,1.713,0,0,0,3.425,0V32.865a3.184,3.184,0,0,1,3.185-3.185h48.192V48.518a1.712,1.712,0,0,0,1.712,1.713h18.838v68.742a3.184,3.184,0,0,1-3.185,3.185H155.353a3.184,3.184,0,0,1-3.185-3.185v-8.8a1.713,1.713,0,1,0-3.425,0v8.8a6.643,6.643,0,0,0,6.61,6.61h65.556a6.643,6.643,0,0,0,6.61-6.61V48.518a1.611,1.611,0,0,0-.514-1.2ZM206.968,32.112l14.693,14.693H206.968Z" transform="translate(-141.892 -26.254)" fill="#2d2f79"/>
        <path id="Path_6224" data-name="Path 6224" d="M185.673,282.45V259.3a5.513,5.513,0,0,0-5.549-5.549H119.295a5.513,5.513,0,0,0-5.549,5.549V282.45h0A5.513,5.513,0,0,0,119.295,288h60.829a5.513,5.513,0,0,0,5.549-5.549Zm-48.979-5.48a7.159,7.159,0,0,1-4.624,1.439,10.994,10.994,0,0,1-7.466-2.877l1.918-2.261h0a8.527,8.527,0,0,0,5.618,2.329,3.8,3.8,0,0,0,2.294-.616,2.02,2.02,0,0,0,0-3.254,8.632,8.632,0,0,0-2.775-1.062,27.261,27.261,0,0,1-2.979-.856,7.134,7.134,0,0,1-1.816-1.027,4.384,4.384,0,0,1-1.609-3.7,4.453,4.453,0,0,1,1.815-3.8,7.06,7.06,0,0,1,4.453-1.37,10.554,10.554,0,0,1,3.425.582,8.489,8.489,0,0,1,2.911,1.575l-1.61,2.261h0a6.506,6.506,0,0,0-2.124-1.164,8.384,8.384,0,0,0-2.671-.445,4.04,4.04,0,0,0-2.158.514,2.021,2.021,0,0,0,0,3.425,11.707,11.707,0,0,0,3.425,1.232,9.6,9.6,0,0,1,4.11,1.884,4.417,4.417,0,0,1,1.4,3.425,4.69,4.69,0,0,1-1.541,3.768Zm19.386,4.864a5.89,5.89,0,0,1-3.151-.925,5.1,5.1,0,0,1-2.123-2.534h-.377a9.317,9.317,0,0,1-6.85-2.637,8.974,8.974,0,0,1-2.569-6.577,8.87,8.87,0,0,1,2.706-6.576,9.9,9.9,0,0,1,13.529,0,8.736,8.736,0,0,1,2.74,6.576,9.008,9.008,0,0,1-1.61,5.309,9.175,9.175,0,0,1-4.281,3.425,2.638,2.638,0,0,0,2.193,1.13,3.931,3.931,0,0,0,1.917-.514,3.418,3.418,0,0,0,1.4-1.3l1.713,2.363a6.85,6.85,0,0,1-5.24,2.261Zm18.736-3.6H163.65V260.358h3.185v15h8.151Z" transform="translate(-113.745 -209.223)" fill="#2d2f79"/>
        <path id="Path_6225" data-name="Path 6225" d="M281.793,305.928a6.475,6.475,0,0,0-1.815-4.589,6.3,6.3,0,0,0-8.974,0,6.851,6.851,0,0,0,0,9.179,6.3,6.3,0,0,0,8.974,0A6.407,6.407,0,0,0,281.793,305.928Z" transform="translate(-238.806 -245.99)" fill="#2d2f79"/>
      </g>
      <line id="Line_708" data-name="Line 708" x2="16.288" transform="translate(2035.917 1848.792)" fill="none" stroke="#2d2f79" stroke-linecap="round" stroke-width="3"/>
      <line id="Line_709" data-name="Line 709" x2="26.061" transform="translate(2035.917 1858.564)" fill="none" stroke="#2d2f79" stroke-linecap="round" stroke-width="3"/>
      <line id="Line_710" data-name="Line 710" x2="35.834" transform="translate(2035.917 1868.337)" fill="none" stroke="#2d2f79" stroke-linecap="round" stroke-width="3"/>
    </g>
  </g>
</svg>
