<svg xmlns="http://www.w3.org/2000/svg" xmlns:xlink="http://www.w3.org/1999/xlink" width="100" height="100" viewBox="0 0 100 100">
  <defs>
    <clipPath id="clip-icon_51">
      <rect width="100" height="100"/>
    </clipPath>
  </defs>
  <g id="icon_51" data-name="icon – 51" clip-path="url(#clip-icon_51)">
    <g id="Group_2471" data-name="Group 2471" transform="translate(2461.383 5175.71)">
      <g id="Group_2470" data-name="Group 2470" transform="translate(-2456.604 -5156.751)">
        <path id="Exclusion_1" data-name="Exclusion 1" d="M83.349,74.03H7.094A7.08,7.08,0,0,1,0,66.98V7.05A7.08,7.08,0,0,1,7.094,0h3.3V3.526h-3.3A3.54,3.54,0,0,0,3.547,7.051v59.93a3.54,3.54,0,0,0,3.546,3.525H83.35A3.54,3.54,0,0,0,86.9,66.981V21.2a3.54,3.54,0,0,0-3.546-3.525H39.118a3.694,3.694,0,0,1-2.887-1.379L29.36,4.184a1.763,1.763,0,0,0-1.378-.658H23.693V0h4.287a5.3,5.3,0,0,1,4.148,1.981L39,14.088l44.349.056a7.08,7.08,0,0,1,7.093,7.05V66.98A7.08,7.08,0,0,1,83.349,74.03ZM23.693,3.531h-13.3l13.3,0h0Z" transform="translate(0 6.293)" fill="#2d2f79"/>
        <g id="Rectangle_4519" data-name="Rectangle 4519" transform="translate(10.39 0)" fill="none" stroke="#2d2f79" stroke-width="2">
          <rect width="13.303" height="17.016" rx="1" stroke="none"/>
          <rect x="1" y="1" width="11.303" height="15.016" fill="none"/>
        </g>
      </g>
      <g id="Group_2469" data-name="Group 2469" transform="translate(-2441.577 -5122.621)">
        <rect id="Rectangle_4461" data-name="Rectangle 4461" width="12.793" height="4.254" rx="1" fill="#2d2f79"/>
        <rect id="Rectangle_4462" data-name="Rectangle 4462" width="12.793" height="4.254" rx="1" transform="translate(0 14.908)" fill="#2d2f79"/>
        <rect id="Rectangle_4463" data-name="Rectangle 4463" width="12.793" height="4.254" rx="1" transform="translate(0 29.815)" fill="#2d2f79"/>
        <rect id="Rectangle_4464" data-name="Rectangle 4464" width="12.793" height="4.254" rx="1" transform="translate(23.798)" fill="#2d2f79"/>
        <rect id="Rectangle_4465" data-name="Rectangle 4465" width="12.793" height="4.254" rx="1" transform="translate(23.798 14.908)" fill="#2d2f79"/>
        <rect id="Rectangle_4466" data-name="Rectangle 4466" width="12.793" height="4.254" rx="1" transform="translate(23.798 29.815)" fill="#2d2f79"/>
        <rect id="Rectangle_4467" data-name="Rectangle 4467" width="12.793" height="4.254" rx="1" transform="translate(47.594)" fill="#2d2f79"/>
        <rect id="Rectangle_4468" data-name="Rectangle 4468" width="12.793" height="4.254" rx="1" transform="translate(47.594 14.908)" fill="#2d2f79"/>
        <rect id="Rectangle_4469" data-name="Rectangle 4469" width="12.793" height="4.254" rx="1" transform="translate(47.594 29.815)" fill="#2d2f79"/>
      </g>
      <path id="Union_4" data-name="Union 4" d="M41.843,33.087H5.9a5.775,5.775,0,0,1-4.164-1.759A6.171,6.171,0,0,1,0,27.037V6.093A6.2,6.2,0,0,1,1.728,1.784,5.8,5.8,0,0,1,5.9,0H41.843a5.8,5.8,0,0,1,4.169,1.784,6.2,6.2,0,0,1,1.727,4.309V27.037a6.163,6.163,0,0,1-1.732,4.291,5.77,5.77,0,0,1-4.132,1.76ZM18.993,6.109a4.667,4.667,0,0,0-1.429,3.454V23.525a4.658,4.658,0,0,0,1.409,3.487,4.345,4.345,0,0,0,3.463,1.208A4.329,4.329,0,0,0,25.879,27a4.645,4.645,0,0,0,1.39-3.475V9.562a4.667,4.667,0,0,0-1.41-3.443,4.351,4.351,0,0,0-3.421-1.212q-.214-.021-.426-.021A4.363,4.363,0,0,0,18.993,6.109Zm12.995,0a4.628,4.628,0,0,0-1.4,3.45V23.9A4.033,4.033,0,0,0,31.619,27a3.757,3.757,0,0,0,2.937,1.222,3.523,3.523,0,0,0,2.5-.889,1.9,1.9,0,0,0,.573-1.1h.656a4.23,4.23,0,0,0-.123,1.014V27.8h2.087V15.063H35.539v2.664h1.638v5.8a1.721,1.721,0,1,1-3.439,0V9.6A1.709,1.709,0,0,1,35.375,7.87a1.547,1.547,0,0,1,1.224.47A1.654,1.654,0,0,1,37.053,9.6V12.27h3.193V9.562a4.636,4.636,0,0,0-1.4-3.45,4.326,4.326,0,0,0-3.429-1.2q-.21-.021-.419-.021A4.333,4.333,0,0,0,31.988,6.112ZM7.494,27.8h7.7V24.88h-4.5V5.289H7.494Zm13.265-4.271V9.606a1.647,1.647,0,0,1,.455-1.265,1.776,1.776,0,0,1,2.422.014,1.65,1.65,0,0,1,.439,1.251v13.92a1.659,1.659,0,1,1-3.316,0Z" transform="translate(-2416.027 -5174.992)" fill="#2d2f79"/>
    </g>
  </g>
</svg>
