<svg xmlns="http://www.w3.org/2000/svg" xmlns:xlink="http://www.w3.org/1999/xlink" width="100" height="100" viewBox="0 0 100 100">
  <defs>
    <clipPath id="clip-icon_21">
      <rect width="100" height="100"/>
    </clipPath>
  </defs>
  <g id="icon_21" data-name="icon – 21" clip-path="url(#clip-icon_21)">
    <g id="Group_2432" data-name="Group 2432" transform="translate(0.395 3.304)">
      <path id="Union_2" data-name="Union 2" d="M47.379,36.234H6.676A6.637,6.637,0,0,1,0,29.608V6.672A6.676,6.676,0,0,1,6.676,0h40.7a6.673,6.673,0,0,1,6.676,6.672V29.608a6.637,6.637,0,0,1-6.639,6.626ZM21.506,6.69a5.028,5.028,0,0,0-1.618,3.782V25.763A5.02,5.02,0,0,0,25.4,30.9a5,5,0,0,0,5.472-5.142V10.472a5.02,5.02,0,0,0-5.47-5.1q-.242-.023-.483-.023A5.03,5.03,0,0,0,21.506,6.69Zm14.714,0a4.985,4.985,0,0,0-1.589,3.778V26.178a4.322,4.322,0,0,0,4.5,4.726,4.072,4.072,0,0,0,2.828-.973,2.057,2.057,0,0,0,.648-1.2h.743a4.488,4.488,0,0,0-.139,1.11v.6h2.363V16.5H40.241v2.917H42.1v6.349a1.947,1.947,0,0,1-3.894,0V10.518a1.9,1.9,0,0,1,1.854-1.9,1.774,1.774,0,0,1,1.9,1.9v2.919h3.616V10.472a5,5,0,0,0-5.47-5.1q-.238-.023-.474-.023A5,5,0,0,0,36.221,6.694ZM8.486,30.442H17.2v-3.2H12.1V5.792H8.486Zm15.02-4.678V10.52a1.88,1.88,0,1,1,3.755,0V25.764a1.878,1.878,0,0,1-3.755,0Z" transform="translate(45.154)" fill="#2d2f79"/>
      <g id="Group_2389" data-name="Group 2389" transform="translate(0 19.87)">
        <path id="Path_6471" data-name="Path 6471" d="M146.587,130.45H78.118a2.518,2.518,0,0,1-2.516-2.516V65.8a2.518,2.518,0,0,1,2.516-2.516h35.406a2.5,2.5,0,0,1,2.256,1.389l5.814,11.975h36.534a2.518,2.518,0,0,1,2.516,2.516v17.1a2.516,2.516,0,0,1-5.033,0V81.681H120.033a2.5,2.5,0,0,1-2.256-1.389l-3.719-7.547-2.182-4.428H80.634v57.1h66.039a9.074,9.074,0,0,0,9.025-9.025v-5.033a2.518,2.518,0,0,1,2.516-2.516,2.372,2.372,0,0,1,2.43,2.429v5.033a14.129,14.129,0,0,1-14.058,14.144Z" transform="translate(-75.602 -56.927)" fill="#2d2f79" stroke="#f2f7ff" stroke-width="1.4"/>
        <g id="Rectangle_4460" data-name="Rectangle 4460" transform="translate(11.77)" fill="#fff" stroke="#2d2f79" stroke-width="1.8">
          <rect width="12.509" height="17.512" rx="1" stroke="none"/>
          <rect x="0.9" y="0.9" width="10.709" height="15.712" rx="0.1" fill="none"/>
        </g>
        <g id="Group_2388" data-name="Group 2388" transform="translate(14.272 29.506)">
          <rect id="Rectangle_4461" data-name="Rectangle 4461" width="12.029" height="5.004" rx="1" fill="#2d2f79"/>
          <rect id="Rectangle_4462" data-name="Rectangle 4462" width="12.029" height="5.004" rx="1" transform="translate(0 14.018)" fill="#2d2f79"/>
          <rect id="Rectangle_4463" data-name="Rectangle 4463" width="12.029" height="5.004" rx="1" transform="translate(0 28.035)" fill="#2d2f79"/>
          <rect id="Rectangle_4464" data-name="Rectangle 4464" width="12.029" height="5.004" rx="1" transform="translate(22.377)" fill="#2d2f79"/>
          <rect id="Rectangle_4465" data-name="Rectangle 4465" width="12.029" height="5.004" rx="1" transform="translate(22.377 14.018)" fill="#2d2f79"/>
          <rect id="Rectangle_4466" data-name="Rectangle 4466" width="12.029" height="5.004" rx="1" transform="translate(22.377 28.035)" fill="#2d2f79"/>
          <rect id="Rectangle_4467" data-name="Rectangle 4467" width="12.029" height="5.004" rx="1" transform="translate(44.752)" fill="#2d2f79"/>
          <rect id="Rectangle_4468" data-name="Rectangle 4468" width="12.029" height="5.004" rx="1" transform="translate(44.752 14.018)" fill="#2d2f79"/>
          <rect id="Rectangle_4469" data-name="Rectangle 4469" width="12.029" height="5.004" rx="1" transform="translate(44.752 28.035)" fill="#2d2f79"/>
        </g>
      </g>
    </g>
  </g>
</svg>
