<svg xmlns="http://www.w3.org/2000/svg" xmlns:xlink="http://www.w3.org/1999/xlink" width="100" height="100" viewBox="0 0 100 100">
  <defs>
    <clipPath id="clip-icon_16">
      <rect width="100" height="100"/>
    </clipPath>
  </defs>
  <g id="icon_16" data-name="icon – 16" clip-path="url(#clip-icon_16)">
    <g id="Group_2430" data-name="Group 2430" transform="translate(-446.364 -554.694)">
      <g id="Group_2391" data-name="Group 2391" transform="translate(447.086 576.543)">
        <g id="notification-bell-svgrepo-com_4_" data-name="notification-bell-svgrepo-com (4)" transform="translate(32.686 13.66)">
          <g id="Group_2181" data-name="Group 2181" transform="translate(0)">
            <g id="Group_2180" data-name="Group 2180" transform="translate(0)">
              <path id="Path_6086" data-name="Path 6086" d="M65.159,22.751V16.377A12.03,12.03,0,0,0,56.083,4.73a3.275,3.275,0,1,0-5.867,0,12.03,12.03,0,0,0-9.076,11.646v6.374a3.275,3.275,0,0,0,1.092,6.363H47.8a5.459,5.459,0,0,0,10.7,0h5.569a3.275,3.275,0,0,0,1.092-6.363ZM53.15,2.184a1.092,1.092,0,1,1-1.092,1.092A1.093,1.093,0,0,1,53.15,2.184Zm0,29.114a3.287,3.287,0,0,1-3.088-2.191h6.175A3.287,3.287,0,0,1,53.15,31.3ZM64.068,26.93H42.232a1.092,1.092,0,0,1,0-2.184h2.184a1.092,1.092,0,1,0,0-2.184H43.324V16.376a9.826,9.826,0,1,1,19.652,0v6.187H61.883a1.092,1.092,0,0,0,0,2.184h2.184a1.092,1.092,0,1,1,0,2.184Z" transform="translate(-38.957 0)" fill="#2d2f79" stroke="#2d2f79" stroke-width="0.2"/>
            </g>
          </g>
          <g id="Group_2183" data-name="Group 2183" transform="translate(6.551 8.734)">
            <g id="Group_2182" data-name="Group 2182" transform="translate(0)">
              <path id="Path_6087" data-name="Path 6087" d="M146.772,133.565a7.651,7.651,0,0,0-7.642,7.642,1.092,1.092,0,0,0,2.184,0,5.465,5.465,0,0,1,5.459-5.459,1.092,1.092,0,1,0,0-2.184Z" transform="translate(-139.13 -133.565)" fill="#2d2f79" stroke="#2d2f79" stroke-width="0.2"/>
            </g>
          </g>
        </g>
        <g id="Group_2304" data-name="Group 2304">
          <g id="Group_2312" data-name="Group 2312">
            <path id="Path_6333" data-name="Path 6333" d="M179.192,135.72c0-.01-.2-.465-.233-.509-.01-.013-.016-.028-.025-.04s-.027-.025-.039-.038a1.141,1.141,0,0,0-.117-.114c-.025-.022-.05-.043-.077-.062a1.372,1.372,0,0,0-.144-.089c-.026-.014-.051-.03-.078-.042h0a1.182,1.182,0,0,0-.192-.066c-.018,0-.034-.012-.052-.016h0a1.193,1.193,0,0,0-.267-.03h-13.5a1.252,1.252,0,1,0,0,2.5h11.962L166.6,185.752H93.574l9.459-48.535h11.6l-.157,1.37a1.252,1.252,0,0,0,1.1,1.386,1.32,1.32,0,0,0,.143.007,1.252,1.252,0,0,0,1.242-1.111l.626-5.528h0a1.253,1.253,0,0,0-2.489-.281l-.188,1.652H102a1.251,1.251,0,0,0-1.23,1.013l-9.947,51.041h0a1.253,1.253,0,0,0,1.23,1.492h75.566a1.252,1.252,0,0,0,1.228-1l9.1-44.923,8.63,43.419H174.269a1.252,1.252,0,1,0,0,2.5h13.838a1.253,1.253,0,0,0,1.228-1.5Z" transform="translate(-90.803 -131.957)" fill="#2d2f79" stroke="#2d2f79" stroke-linecap="round" stroke-width="0.5"/>
            <path id="Path_6335" data-name="Path 6335" d="M261.494,139.973a1.149,1.149,0,0,0,.143.007,1.251,1.251,0,0,0,1.242-1.111l.626-5.528h0a1.253,1.253,0,0,0-2.489-.281l-.188,1.652h-15.4a1.252,1.252,0,1,0,0,2.5h15.113l-.157,1.37a1.253,1.253,0,0,0,1.105,1.386Z" transform="translate(-215.021 -131.956)" fill="#2d2f79" stroke="#2d2f79" stroke-width="0.5"/>
            <path id="Path_6336" data-name="Path 6336" d="M375.7,139.973a1.131,1.131,0,0,0,.143.007,1.251,1.251,0,0,0,1.242-1.111l.626-5.528h0a1.253,1.253,0,0,0-2.489-.281l-.188,1.652H359.656a1.252,1.252,0,1,0,0,2.5h15.093l-.157,1.37h0a1.253,1.253,0,0,0,1.107,1.386Z" transform="translate(-307.527 -131.956)" fill="#2d2f79" stroke="#2d2f79" stroke-width="0.5"/>
          </g>
        </g>
      </g>
      <g id="Group_2392" data-name="Group 2392" transform="matrix(1, 0.017, -0.017, 1, 457.801, 589.204)">
        <rect id="Rectangle_4461" data-name="Rectangle 4461" width="10.825" height="3.512" rx="1" transform="translate(4.485 0)" fill="#2d2f79"/>
        <rect id="Rectangle_4462" data-name="Rectangle 4462" width="10.825" height="3.512" rx="1" transform="translate(2.243 16.238)" fill="#2d2f79"/>
        <rect id="Rectangle_4463" data-name="Rectangle 4463" width="10.825" height="3.512" rx="1" transform="translate(0 32.476)" fill="#2d2f79"/>
        <rect id="Rectangle_4470" data-name="Rectangle 4470" width="10.825" height="3.512" rx="1" transform="translate(51.639 31.574)" fill="#2d2f79"/>
        <rect id="Rectangle_4467" data-name="Rectangle 4467" width="10.825" height="3.512" rx="1" transform="translate(56.543 0.744)" fill="#2d2f79"/>
        <rect id="Rectangle_4468" data-name="Rectangle 4468" width="10.825" height="3.512" rx="1" transform="translate(54.272 15.33)" fill="#2d2f79"/>
      </g>
    </g>
  </g>
</svg>
