<svg xmlns="http://www.w3.org/2000/svg" xmlns:xlink="http://www.w3.org/1999/xlink" width="100" height="100" viewBox="0 0 100 100">
  <defs>
    <clipPath id="clip-icon_13">
      <rect width="100" height="100"/>
    </clipPath>
  </defs>
  <g id="icon_13" data-name="icon – 13" clip-path="url(#clip-icon_13)">
    <g id="Group_2417" data-name="Group 2417" transform="translate(0.816 1.781)">
      <g id="Group_2238" data-name="Group 2238">
        <path id="Path_6283" data-name="Path 6283" d="M76.556,171.276a3.282,3.282,0,0,0-3.278,3.278V230.3a3.282,3.282,0,0,0,3.278,3.279h70.5a3.282,3.282,0,0,0,3.278-3.279V184.392a3.282,3.282,0,0,0-3.278-3.279H102a3.4,3.4,0,0,1-2.669-1.284l-6.353-7.942a1.625,1.625,0,0,0-1.274-.611Zm70.5,65.579h-70.5A6.564,6.564,0,0,1,70,230.3V174.554A6.564,6.564,0,0,1,76.556,168H91.706a4.891,4.891,0,0,1,3.835,1.843l6.353,7.942,45.16.052a6.564,6.564,0,0,1,6.558,6.558V230.3a6.564,6.564,0,0,1-6.558,6.558Z" transform="translate(-69.998 -140.418)" fill="#2d2f79" fill-rule="evenodd"/>
        <path id="Path_6284" data-name="Path 6284" d="M166.857,150.344a1.64,1.64,0,0,1-1.639-1.64,4.924,4.924,0,0,0-4.918-4.918H130.02a3.4,3.4,0,0,1-2.7-1.319L122,135.629a4.332,4.332,0,0,0-3.438-1.68H106.2a4.924,4.924,0,0,0-4.918,4.918,1.64,1.64,0,1,1-3.279,0,8.207,8.207,0,0,1,8.2-8.2h12.37a7.589,7.589,0,0,1,6.027,2.946l5.316,6.837,30.391.054a8.206,8.206,0,0,1,8.2,8.2,1.64,1.64,0,0,1-1.639,1.64" transform="translate(-93.081 -109.648)" fill="#2d2f79" fill-rule="evenodd"/>
        <path id="Path_6285" data-name="Path 6285" d="M250.857,19.674a1.64,1.64,0,0,1-1.639-1.639,4.924,4.924,0,0,0-4.918-4.918H214.02a3.4,3.4,0,0,1-2.7-1.32L206,4.96a4.33,4.33,0,0,0-3.438-1.68H190.2A4.924,4.924,0,0,0,185.278,8.2,1.64,1.64,0,0,1,182,8.2,8.207,8.207,0,0,1,190.2,0h12.37a7.588,7.588,0,0,1,6.027,2.946l5.316,6.836,30.391.054a8.207,8.207,0,0,1,8.2,8.2,1.64,1.64,0,0,1-1.639,1.639" transform="translate(-162.326 0)" fill="#2d2f79" fill-rule="evenodd"/>
        <path id="Path_6286" data-name="Path 6286" d="M230.84,106.19H221a1.639,1.639,0,1,1,0-3.279h9.837a3.282,3.282,0,0,0,3.279-3.279V53.727a3.282,3.282,0,0,0-3.279-3.279H185.789a3.4,3.4,0,0,1-2.669-1.284l-6.353-7.942a1.625,1.625,0,0,0-1.274-.611H160.342a3.282,3.282,0,0,0-3.278,3.279l-.047,9.042a1.64,1.64,0,0,1-3.279,0l.047-9.042a6.565,6.565,0,0,1,6.558-6.558h15.151a4.891,4.891,0,0,1,3.835,1.843l6.353,7.942,45.16.052a6.565,6.565,0,0,1,6.558,6.558V99.633a6.564,6.564,0,0,1-6.558,6.558" transform="translate(-139.03 -30.775)" fill="#2d2f79" fill-rule="evenodd"/>
      </g>
      <g id="Group_2236" data-name="Group 2236" transform="translate(9.837 47.254)">
        <path id="Path_6278" data-name="Path 6278" d="M349.87,283.281H323.637a1.64,1.64,0,0,1,0-3.279H349.87a1.64,1.64,0,0,1,0,3.279" transform="translate(-287.569 -280.002)" fill="#2d2f79" fill-rule="evenodd"/>
        <path id="Path_6279" data-name="Path 6279" d="M411.425,320.611H398.309a1.64,1.64,0,0,1,0-3.279h13.116a1.64,1.64,0,0,1,0,3.279" transform="translate(-349.124 -310.775)" fill="#2d2f79" fill-rule="evenodd"/>
        <path id="Path_6282" data-name="Path 6282" d="M129.278,408.393h26.231V395.277H129.278Zm27.87,3.279H127.637A1.64,1.64,0,0,1,126,410.033v-16.4A1.64,1.64,0,0,1,127.637,392h29.511a1.64,1.64,0,0,1,1.64,1.639v16.4A1.64,1.64,0,0,1,157.148,411.672Z" transform="translate(-125.998 -372.325)" fill="#2d2f79" fill-rule="evenodd"/>
      </g>
    </g>
  </g>
</svg>
