<svg xmlns="http://www.w3.org/2000/svg" xmlns:xlink="http://www.w3.org/1999/xlink" width="100" height="100" viewBox="0 0 100 100">
  <defs>
    <clipPath id="clip-icon_35">
      <rect width="100" height="100"/>
    </clipPath>
  </defs>
  <g id="icon_35" data-name="icon – 35" clip-path="url(#clip-icon_35)">
    <g id="noun-location-5313162" transform="translate(0.582 1.093)">
      <path id="Path_6502" data-name="Path 6502" d="M183.042,385H90.795a3.294,3.294,0,0,0-3.295,3.295v23.062a3.294,3.294,0,0,0,3.295,3.295h92.247a3.294,3.294,0,0,0,3.295-3.295V388.295A3.294,3.294,0,0,0,183.042,385Zm-3.295,23.062H94.089V391.589h85.658Z" transform="translate(-87.5 -316.838)" fill="#2c2c78" stroke="#f2f7ff" stroke-width="1.5"/>
      <path id="Path_6503" data-name="Path 6503" d="M161.675,452.839h3.295a3.294,3.294,0,1,0,0-6.589h-3.295a3.294,3.294,0,1,0,0,6.589Z" transform="translate(-146.49 -366.557)" fill="#2c2c78" stroke="#f2f7ff" stroke-width="0.8"/>
      <path id="Path_6504" data-name="Path 6504" d="M231.675,452.839h3.295a3.294,3.294,0,1,0,0-6.589h-3.295a3.294,3.294,0,1,0,0,6.589Z" transform="translate(-203.312 -366.557)" fill="#2c2c78" stroke="#f2f7ff" stroke-width="0.8"/>
      <path id="Path_6505" data-name="Path 6505" d="M335.795,452.839H368.74a3.294,3.294,0,1,0,0-6.589H335.795a3.294,3.294,0,1,0,0,6.589Z" transform="translate(-287.83 -366.557)" fill="#2c2c78" stroke="#f2f7ff" stroke-width="0.8"/>
      <path id="Path_6506" data-name="Path 6506" d="M527.83,91.872a3.264,3.264,0,0,0,4.645-.1,27.213,27.213,0,0,0,0-37.492,3.295,3.295,0,0,0-4.745,4.546,20.657,20.657,0,0,1,0,28.4,3.294,3.294,0,0,0,.1,4.645Z" transform="translate(-444.444 -47.694)" fill="#2c2c78" stroke="#f2f7ff" stroke-width="0.8"/>
      <path id="Path_6507" data-name="Path 6507" d="M116.741,90.371a3.259,3.259,0,0,0,2.273-5.568,20.657,20.657,0,0,1,0-28.4,3.294,3.294,0,1,0-4.645-4.546,27.213,27.213,0,0,0,0,37.492,3.3,3.3,0,0,0,2.372,1.021Z" transform="translate(-103.563 -45.27)" fill="#2c2c78" stroke="#f2f7ff" stroke-width="0.8"/>
      <path id="Path_6512" data-name="Path 6512" d="M210.149,69.515a7.918,7.918,0,1,0,7.918,7.918A7.928,7.928,0,0,0,210.149,69.515Zm0,12.706a4.795,4.795,0,1,1,4.795-4.795A4.8,4.8,0,0,1,210.149,82.221Zm21.6-5.677A21.8,21.8,0,0,0,211.508,55.85a21.454,21.454,0,0,0-16.165,5.826,21.633,21.633,0,0,0-1.586,29.853,66.067,66.067,0,0,1,11.932,19.64l.812,2.14a3.909,3.909,0,0,0,7.31,0l.391-1.039a64.344,64.344,0,0,1,12.057-20.406,21.6,21.6,0,0,0,5.49-15.322Zm-7.825,13.229a67.574,67.574,0,0,0-12.651,21.389l-.391,1.039a.785.785,0,0,1-1.468,0l-.812-2.14a68.871,68.871,0,0,0-12.478-20.568,18.507,18.507,0,0,1-4.467-12.057,18.5,18.5,0,0,1,18.476-18.5c.391,0,.781.008,1.179.039a18.641,18.641,0,0,1,17.312,17.7,18.42,18.42,0,0,1-4.7,13.1Z" transform="translate(-160.918 -55.808)" fill="#2c2c78" stroke="#2c2c78" stroke-width="0.1"/>
    </g>
  </g>
</svg>
