<svg xmlns="http://www.w3.org/2000/svg" xmlns:xlink="http://www.w3.org/1999/xlink" width="100" height="100" viewBox="0 0 100 100">
  <defs>
    <clipPath id="clip-icon_38">
      <rect width="100" height="100"/>
    </clipPath>
  </defs>
  <g id="icon_38" data-name="icon – 38" clip-path="url(#clip-icon_38)">
    <g id="Group_2444" data-name="Group 2444" transform="translate(1 1)">
      <g id="Ellipse_1041" data-name="Ellipse 1041" fill="none" stroke="#2d2f79" stroke-width="3.5">
        <circle cx="49.5" cy="49.5" r="49.5" stroke="none"/>
        <circle cx="49.5" cy="49.5" r="47.75" fill="none"/>
      </g>
      <g id="noun-microphone-5293401" transform="translate(27.807 18.153)">
        <path id="Path_6522" data-name="Path 6522" d="M200.708,280.172a17.117,17.117,0,0,1-17.117-17.117,2.205,2.205,0,0,0-4.411,0,21.528,21.528,0,0,0,43.056,0,2.205,2.205,0,0,0-4.411,0A17.117,17.117,0,0,1,200.708,280.172Z" transform="translate(-179.18 -231.698)" fill="#2c2c78" stroke="#f2f7ff" stroke-width="0.2" fill-rule="evenodd"/>
        <path id="Path_6523" data-name="Path 6523" d="M332.5,415.9V424a2.284,2.284,0,0,0,4.433,0v-8.1a2.283,2.283,0,0,0-4.433,0Z" transform="translate(-313.024 -364.282)" fill="#2c2c78" fill-rule="evenodd"/>
        <rect id="Rectangle_4493" data-name="Rectangle 4493" width="25.966" height="3.895" transform="translate(9.09 58.47)" fill="#2c2c78"/>
        <rect id="Rectangle_4494" data-name="Rectangle 4494" width="20.773" height="44.142" rx="5" transform="translate(11.686)" fill="#2c2c78"/>
      </g>
    </g>
  </g>
</svg>
