<svg xmlns="http://www.w3.org/2000/svg" xmlns:xlink="http://www.w3.org/1999/xlink" width="100" height="100" viewBox="0 0 100 100">
  <defs>
    <clipPath id="clip-Key">
      <rect width="100" height="100"/>
    </clipPath>
  </defs>
  <g id="Key" clip-path="url(#clip-Key)">
    <path id="Path_6588" data-name="Path 6588" d="M165.344,151.2a26.343,26.343,0,0,0-22.415,12.665H95.113a2.353,2.353,0,0,0-1.547.576L82.053,174.8a2.4,2.4,0,0,0,.072,3.454l14.968,12.665a2.385,2.385,0,0,0,3.095-.108l5.289-5.289,5.289,5.289a2.392,2.392,0,0,0,3.238,0l5.289-5.289,5.289,5.289a2.331,2.331,0,0,0,1.619.683H142.97a26.405,26.405,0,1,0,22.38-40.3Zm0,4.605A21.876,21.876,0,1,1,146.1,188.079a2.351,2.351,0,0,0-2.015-1.187H127.169l-6.26-6.26a2.392,2.392,0,0,0-3.238,0l-5.29,5.29-5.289-5.29a2.392,2.392,0,0,0-3.238,0l-5.433,5.433-11.334-9.607,8.887-7.988h48.106a2.362,2.362,0,0,0,2.015-1.223c5.784-8.985,12.208-11.294,19.249-11.442Zm9.211,13.816a8.059,8.059,0,1,0,8.059,8.059A8.095,8.095,0,0,0,174.556,169.621Zm0,4.605a3.454,3.454,0,1,1-3.454,3.454A3.42,3.42,0,0,1,174.556,174.226Z" transform="matrix(0.809, -0.588, 0.588, 0.809, -166.864, -13.46)" fill="#2d2f79"/>
  </g>
</svg>
