<svg xmlns="http://www.w3.org/2000/svg" xmlns:xlink="http://www.w3.org/1999/xlink" width="100" height="100" viewBox="0 0 100 100">
  <defs>
    <clipPath id="clip-icon_1">
      <rect width="100" height="100"/>
    </clipPath>
  </defs>
  <g id="icon_1" data-name="icon – 1" clip-path="url(#clip-icon_1)">
    <g id="Group_2219" data-name="Group 2219" transform="translate(-1790.268 -472.784)">
      <path id="Path_6203" data-name="Path 6203" d="M148.766,115.952h14.319a5.967,5.967,0,0,0,5.966-5.966v-70.4a5.967,5.967,0,0,0-5.966-5.966H148.766a5.967,5.967,0,0,0-5.966,5.966v70.4A5.967,5.967,0,0,0,148.766,115.952Zm-3.58-76.368a3.58,3.58,0,0,1,3.58-3.58h14.319a3.58,3.58,0,0,1,3.58,3.58v8.353H145.186Zm0,10.74h21.479V99.246H145.186Zm0,51.31h21.479v8.353a3.58,3.58,0,0,1-3.58,3.58H148.766a3.58,3.58,0,0,1-3.58-3.58Z" transform="translate(1648.468 448.168)" fill="#2d2f79" stroke="#2d2f79" stroke-width="0.2"/>
      <path id="Path_6204" data-name="Path 6204" d="M201.187,141.254v33.411a1.193,1.193,0,0,1-2.386,0V141.253a1.193,1.193,0,0,1,2.386,0Z" transform="translate(1604.401 364.397)" fill="#2d2f79" stroke="#2d2f79" stroke-width="0.2"/>
      <path id="Path_6205" data-name="Path 6205" d="M346.787,141.254v33.411a1.193,1.193,0,0,1-2.386,0V141.253a1.193,1.193,0,0,1,2.386,0Z" transform="translate(1489.825 364.397)" fill="#2d2f79" stroke="#2d2f79" stroke-width="0.2"/>
      <path id="Path_6206" data-name="Path 6206" d="M294.366,115.952h14.319a5.974,5.974,0,0,0,5.966-5.966v-70.4a5.973,5.973,0,0,0-5.966-5.966H294.366a5.973,5.973,0,0,0-5.966,5.966v70.4A5.974,5.974,0,0,0,294.366,115.952Zm-3.579-76.368a3.585,3.585,0,0,1,3.58-3.58h14.319a3.585,3.585,0,0,1,3.58,3.58v8.353H290.787Zm0,10.74h21.478V99.246H290.787Zm0,51.31h21.478v8.353a3.585,3.585,0,0,1-3.58,3.58h-14.32a3.585,3.585,0,0,1-3.58-3.58Z" transform="translate(1533.893 448.168)" fill="#2d2f79" stroke="#2d2f79" stroke-width="0.2"/>
      <path id="Path_6207" data-name="Path 6207" d="M423.431,126.908h0l1.992,10.249a5.974,5.974,0,0,0,7,4.718l14.055-2.733h0a5.973,5.973,0,0,0,4.717-7L439.407,71.532a5.96,5.96,0,0,0-6.993-4.718l-14.057,2.733a5.962,5.962,0,0,0-4.717,7Zm23.654-3.382,1.764,9.079a3.585,3.585,0,0,1-2.831,4.2h0l-14.055,2.733a3.586,3.586,0,0,1-4.2-2.832L426,127.625l21.085-4.1Zm-8.2-42.167,7.742,39.827-21.085,4.1L417.8,85.458Zm-20.075-9.47,14.055-2.733a3.576,3.576,0,0,1,4.2,2.832l1.366,7.028-21.083,4.1-1.366-7.028A3.579,3.579,0,0,1,418.813,71.89Z" transform="translate(1438.514 422.132)" fill="#2d2f79" stroke="#2d2f79" stroke-width="0.2"/>
      <path id="Path_6208" data-name="Path 6208" d="M489.5,202.852l-4.554-23.426a1.193,1.193,0,0,1,2.342-.456l4.554,23.426A1.193,1.193,0,0,1,489.5,202.852Z" transform="translate(1382.331 334.541)" fill="#2d2f79" stroke="#2d2f79" stroke-width="0.2"/>
    </g>
  </g>
</svg>
