<svg xmlns="http://www.w3.org/2000/svg" xmlns:xlink="http://www.w3.org/1999/xlink" width="100" height="100" viewBox="0 0 100 100">
  <defs>
    <clipPath id="clip-icon_37">
      <rect width="100" height="100"/>
    </clipPath>
  </defs>
  <g id="icon_37" data-name="icon – 37" clip-path="url(#clip-icon_37)">
    <g id="Group_2443" data-name="Group 2443" transform="translate(7.341 1.047)">
      <path id="Path_6513" data-name="Path 6513" d="M202.184,58.26a1.754,1.754,0,0,0,0-3.508h-7.531V44.333h7.531a1.808,1.808,0,0,0,1.754-1.754,1.739,1.739,0,0,0-1.754-1.754h-7.531V34.119a10.831,10.831,0,0,0-10.833-10.833h-6.706V15.755a1.754,1.754,0,0,0-3.508,0v7.531H163.083V15.755a1.754,1.754,0,0,0-3.508,0v7.531H149.052V15.755a1.754,1.754,0,1,0-3.507,0v7.531h-6.706a10.831,10.831,0,0,0-10.833,10.833v6.706h-7.531a1.739,1.739,0,0,0-1.754,1.754,1.808,1.808,0,0,0,1.754,1.754h7.531V54.855h-7.531a1.739,1.739,0,0,0-1.754,1.754,1.808,1.808,0,0,0,1.754,1.754h7.531V68.886h-7.531a1.754,1.754,0,1,0,0,3.507h7.531V79.1a10.931,10.931,0,0,0,6.809,10.11V88.59a9.537,9.537,0,0,1,.412-2.991,7.5,7.5,0,0,1-3.714-6.4V34.119a7.4,7.4,0,0,1,7.428-7.428H183.82a7.4,7.4,0,0,1,7.428,7.428V79a7.287,7.287,0,0,1-3.714,6.4,9.976,9.976,0,0,1,.412,2.991V89a10.826,10.826,0,0,0,6.809-10.11v-6.6h7.531a1.754,1.754,0,0,0,0-3.507h-7.531V58.259Z" transform="translate(-118.722 -14.001)" fill="#2c2c78" stroke="#f2f7ff" stroke-width="0.3"/>
      <path id="Path_6514" data-name="Path 6514" d="M296.954,384.365a1.714,1.714,0,0,0-.619,2.373c2.373,3.921-.928,7.428-1.032,7.531a1.883,1.883,0,0,0,0,2.476,1.71,1.71,0,0,0,1.238.516,1.9,1.9,0,0,0,1.238-.516,9.772,9.772,0,0,0,1.547-11.761,1.808,1.808,0,0,0-2.372-.619Z" transform="translate(-262.394 -315.965)" fill="#2c2c78" stroke="#f2f7ff" stroke-width="0.3"/>
      <path id="Path_6515" data-name="Path 6515" d="M300.7,312.14a1.809,1.809,0,0,0,.619-2.373,1.639,1.639,0,0,0-1.032-.826,2.064,2.064,0,0,0-1.341.207c-.309.206-3.1,1.857-3.3,4.849-.1,1.96.825,3.714,2.889,5.365a2.162,2.162,0,0,0,1.135.412,1.7,1.7,0,0,0,1.135-2.992c-.723-.619-1.651-1.547-1.651-2.476s1.136-1.857,1.549-2.167Z" transform="translate(-263.04 -254.573)" fill="#2c2c78" stroke="#f2f7ff" stroke-width="0.3"/>
      <path id="Path_6516" data-name="Path 6516" d="M263.211,170.05a9.977,9.977,0,0,0-8.047-8.46v-8.15H259.6a1.739,1.739,0,0,0,1.754-1.754V145.5a5.88,5.88,0,0,0,4.23-5.674,5.984,5.984,0,1,0-11.967,0,5.881,5.881,0,0,0,4.23,5.674v4.54h-4.436a1.739,1.739,0,0,0-1.754,1.754v7.325a7.437,7.437,0,0,0-4.126-1.238,11.308,11.308,0,0,0-1.857.207V145.5a5.881,5.881,0,0,0,4.23-5.674,5.984,5.984,0,1,0-11.967,0,5.881,5.881,0,0,0,4.23,5.674v12.586a11.393,11.393,0,0,0-1.857-.207,7.437,7.437,0,0,0-4.126,1.238v-7.325a1.739,1.739,0,0,0-1.754-1.754h-4.436V145.5a5.881,5.881,0,0,0,4.23-5.674,5.984,5.984,0,0,0-11.968,0,5.881,5.881,0,0,0,4.23,5.674v6.19a1.739,1.739,0,0,0,1.754,1.754h4.436v8.15a9.976,9.976,0,0,0-8.047,8.46,8.356,8.356,0,0,0-2.992,12.277,8.23,8.23,0,0,0-.825,3.817,9.005,9.005,0,0,0,3.1,6.809,11.19,11.19,0,0,0,7.428,10.007,9.6,9.6,0,0,0,8.975,6.706,8.55,8.55,0,0,0,3.507-.723,8.551,8.551,0,0,0,3.508.723,9.6,9.6,0,0,0,8.975-6.706,11.152,11.152,0,0,0,7.428-10.007,8.845,8.845,0,0,0,3.1-6.809,9.376,9.376,0,0,0-.826-3.817,8.218,8.218,0,0,0,1.547-4.849,7.758,7.758,0,0,0-4.333-7.428Zm-6.087-30.228A2.476,2.476,0,1,1,259.6,142.3,2.444,2.444,0,0,1,257.125,139.822Zm-31.156,0a2.476,2.476,0,1,1,2.476,2.476A2.384,2.384,0,0,1,225.968,139.822Zm15.578,0a2.476,2.476,0,1,1,2.476,2.476A2.444,2.444,0,0,1,241.546,139.822Zm.723,66.233a5.486,5.486,0,0,1-4.23-.207,6.49,6.49,0,0,1-3.3-3.714c-.1-.412-.1-.825-.207-1.341a1.013,1.013,0,0,1,.619-1.135,1.469,1.469,0,0,1,.619-.207,1.644,1.644,0,0,1,.826.309l.825.619a1.661,1.661,0,0,0,2.373-.309,1.427,1.427,0,0,0,.309-1.238,2.459,2.459,0,0,0-.619-1.135l-.721-.825a4.865,4.865,0,0,0-5.261-.412,4.64,4.64,0,0,0-2.167,2.682,7.99,7.99,0,0,1-3.921-6.4,5.041,5.041,0,0,1,4.023-4.333,1.639,1.639,0,0,0,1.032-.825,1.968,1.968,0,0,0,.207-1.341,1.687,1.687,0,0,0-2.063-1.238,8.665,8.665,0,0,0-5.468,3.921,5.833,5.833,0,0,1-.826-2.889,5.46,5.46,0,0,1,.928-3.1,1.718,1.718,0,0,0-.207-2.167,5.007,5.007,0,0,1,.309-7.325,10.019,10.019,0,0,0,5.984,5.571,1.311,1.311,0,0,0,.619.1,1.767,1.767,0,0,0,1.651-1.135,1.529,1.529,0,0,0,0-1.341,2.025,2.025,0,0,0-.928-.928,6.475,6.475,0,0,1-4.436-5.158,6.325,6.325,0,0,1,6.19-6.087h.309a1.594,1.594,0,0,0,1.651-.928,4.625,4.625,0,0,1,4.126-2.682,4.045,4.045,0,0,1,1.857.412v44.775Zm20.633-25.07a1.866,1.866,0,0,0-.207,2.167,5.46,5.46,0,0,1,.928,3.1,5.832,5.832,0,0,1-.825,2.889,8.4,8.4,0,0,0-5.468-3.92,2.064,2.064,0,0,0-1.341.206,1.639,1.639,0,0,0-.825,1.032,2.064,2.064,0,0,0,.207,1.341,1.639,1.639,0,0,0,1.032.826,5.039,5.039,0,0,1,4.023,4.23,8.015,8.015,0,0,1-3.92,6.5,4.638,4.638,0,0,0-2.167-2.682,4.689,4.689,0,0,0-5.261.412l-.825.619a1.427,1.427,0,0,0-.619,1.135,1.729,1.729,0,0,0,.309,1.238,1.672,1.672,0,0,0,2.373.309l.825-.619a1.255,1.255,0,0,1,1.444-.1,1.012,1.012,0,0,1,.619,1.135,3.832,3.832,0,0,1-.207,1.238,6.375,6.375,0,0,1-3.3,3.817,5.464,5.464,0,0,1-4.23.207V161.694a4.046,4.046,0,0,1,1.857-.412,4.625,4.625,0,0,1,4.126,2.682,1.593,1.593,0,0,0,1.651.928h.412a6.4,6.4,0,0,1,6.19,6.087,6.651,6.651,0,0,1-4.436,5.158,2.025,2.025,0,0,0-.928.928,1.529,1.529,0,0,0,0,1.341,1.937,1.937,0,0,0,1.651,1.135,1.311,1.311,0,0,0,.619-.1,10.308,10.308,0,0,0,5.984-5.571,4.771,4.771,0,0,1,.311,7.117Z" transform="translate(-201.413 -111.76)" fill="#2c2c78" stroke="#f2f7ff" stroke-width="0.3"/>
      <path id="Path_6517" data-name="Path 6517" d="M378.148,386.536a1.734,1.734,0,0,0-2.992-1.754c-2.889,4.952-.207,9.8,1.547,11.761a1.709,1.709,0,0,0,1.238.516,2.143,2.143,0,0,0,1.238-.516,1.684,1.684,0,0,0,0-2.476c0-.1-3.3-3.61-1.031-7.531Z" transform="translate(-326.874 -315.763)" fill="#2c2c78" stroke="#f2f7ff" stroke-width="0.3"/>
      <path id="Path_6518" data-name="Path 6518" d="M373.478,316.756a1.7,1.7,0,0,0,1.135,2.992,1.552,1.552,0,0,0,1.135-.412c2.063-1.651,2.991-3.507,2.889-5.365-.207-2.889-2.992-4.642-3.3-4.849a1.734,1.734,0,1,0-1.754,2.991,3.406,3.406,0,0,1,1.651,2.167,4.607,4.607,0,0,1-1.754,2.476Z" transform="translate(-325.919 -254.548)" fill="#2c2c78" stroke="#f2f7ff" stroke-width="0.3"/>
    </g>
  </g>
</svg>
