<svg xmlns="http://www.w3.org/2000/svg" viewBox="0 0 101 100.5"><defs><style>.cls-1{fill:#f39c12;}.cls-2,.cls-3{fill:#7d9091;}.cls-3{font-size:23.94px;font-family:Play-Bold, Play;font-weight:700;}</style></defs><title>market-place</title><g id="Layer_2" data-name="Layer 2"><g id="fanta-theme"><g id="Widgets"><path class="cls-1" d="M42.7,56.69a.79.79,0,0,0-.27,1.09.82.82,0,0,0,.48.36A.8.8,0,0,0,43.79,57,.8.8,0,0,0,42.7,56.69Z"/><path class="cls-1" d="M35.5,75.74a.8.8,0,0,0-.28,1.09A.8.8,0,0,0,36.59,76,.8.8,0,0,0,35.5,75.74Z"/><path class="cls-1" d="M40,58.32a.79.79,0,0,0-.28,1.09.8.8,0,0,0,1.1.27A.79.79,0,0,0,40,58.32Z"/><path class="cls-1" d="M37.14,78.48a.79.79,0,0,0-.28,1.09.82.82,0,0,0,.48.36.81.81,0,0,0,.61-.09.79.79,0,1,0-.81-1.36Z"/><path class="cls-1" d="M40.92,81.8a.8.8,0,0,0-.26,1.09.81.81,0,0,0,.48.36.77.77,0,0,0,.62-.1A.78.78,0,0,0,42,82.07.81.81,0,0,0,40.92,81.8Z"/><path class="cls-1" d="M45.43,55.06a.79.79,0,0,0,.22,1.45.8.8,0,0,0,.6-.09.78.78,0,0,0,.27-1.09A.79.79,0,0,0,45.43,55.06Z"/><path class="cls-1" d="M38.77,81.21a.8.8,0,0,0-.28,1.09.81.81,0,0,0,1.09.28.8.8,0,1,0-.81-1.37Z"/><path class="cls-1" d="M37.23,60a.8.8,0,0,0,.21,1.45.82.82,0,0,0,.61-.09.78.78,0,0,0,.27-1.09A.8.8,0,0,0,37.23,60Z"/><path class="cls-1" d="M30.59,67.55a.79.79,0,0,0-.27,1.09.83.83,0,0,0,.49.37.79.79,0,0,0,.61-.1.78.78,0,0,0,.27-1.08A.81.81,0,0,0,30.59,67.55Z"/><path class="cls-1" d="M31.76,63.21a.79.79,0,0,0-.27,1.09.8.8,0,0,0,1.09.27.79.79,0,0,0,.27-1.09A.8.8,0,0,0,31.76,63.21Z"/><path class="cls-1" d="M29,64.84a.79.79,0,0,0-.28,1.09.84.84,0,0,0,.49.36.82.82,0,0,0,.61-.09A.79.79,0,1,0,29,64.84Z"/><path class="cls-1" d="M48.17,53.43a.79.79,0,0,0-.28,1.09.8.8,0,0,0,1.1.27.79.79,0,0,0-.82-1.36Z"/><path class="cls-1" d="M32.23,70.28a.8.8,0,1,0,1.1.28A.81.81,0,0,0,32.23,70.28Z"/><path class="cls-1" d="M33.86,73a.78.78,0,0,0-.27,1.08.77.77,0,0,0,.49.36.8.8,0,0,0,.6-.08A.79.79,0,1,0,33.86,73Z"/><path class="cls-1" d="M34.49,61.57A.8.8,0,0,0,34.71,63a.82.82,0,0,0,.61-.09.78.78,0,0,0,.26-1.09A.81.81,0,0,0,34.49,61.57Z"/><path class="cls-1" d="M46.36,78.5a.79.79,0,0,0,.22,1.44.86.86,0,0,0,.62-.09.8.8,0,1,0-.84-1.35Z"/><path class="cls-1" d="M60,70.22a.79.79,0,0,0-.26,1.09.81.81,0,0,0,.49.36.82.82,0,0,0,.61-.09A.8.8,0,1,0,60,70.22Z"/><path class="cls-1" d="M54.52,73.53a.78.78,0,0,0-.26,1.09.8.8,0,0,0,.47.36.84.84,0,0,0,.62-.09.8.8,0,0,0-.83-1.36Z"/><path class="cls-1" d="M57.23,71.88A.79.79,0,0,0,57,73a.8.8,0,0,0,.48.35.84.84,0,0,0,.62-.09.8.8,0,1,0-.84-1.35Z"/><path class="cls-1" d="M62.67,68.56A.79.79,0,0,0,62.9,70a.78.78,0,0,0,.61-.09.8.8,0,0,0,.26-1.1A.82.82,0,0,0,62.67,68.56Z"/><ellipse class="cls-1" cx="67.06" cy="61.2" rx="0.79" ry="0.8" transform="translate(-8.78 111.11) rotate(-75.73)"/><path class="cls-1" d="M43.65,80.15a.79.79,0,0,0-.27,1.09.76.76,0,0,0,.48.35.81.81,0,0,0,.62-.09.78.78,0,0,0,.26-1.08A.79.79,0,0,0,43.65,80.15Z"/><ellipse class="cls-1" cx="65.49" cy="67.35" rx="0.79" ry="0.8" transform="translate(-15.93 114.23) rotate(-75.73)"/><ellipse class="cls-1" cx="66.27" cy="64.28" rx="0.79" ry="0.8" transform="translate(-12.36 112.67) rotate(-75.73)"/><path class="cls-1" d="M49.08,76.84a.8.8,0,0,0,.22,1.45.82.82,0,0,0,.61-.09.8.8,0,0,0,.27-1.1A.81.81,0,0,0,49.08,76.84Z"/><path class="cls-1" d="M60.83,51.43a.8.8,0,1,0-1,.57A.8.8,0,0,0,60.83,51.43Z"/><path class="cls-1" d="M50.9,51.8a.78.78,0,0,0-.27,1.09.79.79,0,0,0,1.09.27A.78.78,0,0,0,52,52.07.8.8,0,0,0,50.9,51.8Z"/><path class="cls-1" d="M53.63,50.17a.79.79,0,0,0-.27,1.09.84.84,0,0,0,.49.36.83.83,0,0,0,.61-.09.78.78,0,0,0,.26-1.09A.79.79,0,0,0,53.63,50.17Z"/><path class="cls-1" d="M57.16,49.68a.79.79,0,1,0,.58,1A.81.81,0,0,0,57.16,49.68Z"/><path class="cls-1" d="M51.8,75.19A.79.79,0,0,0,52,76.63a.82.82,0,0,0,.61-.09.79.79,0,0,0,.26-1.09A.78.78,0,0,0,51.8,75.19Z"/><path class="cls-1" d="M77.45,48.53a.8.8,0,0,0-1.09-.28l-3.6,2.12-18-4.58L26.35,62.73a2.74,2.74,0,0,0-1.29,1.72,2.77,2.77,0,0,0,.31,2.12L37.2,86.33a2.72,2.72,0,0,0,1.72,1.28,2.87,2.87,0,0,0,2.15-.3L68.83,70.4l4.75-18.66,3.59-2.12A.79.79,0,0,0,77.45,48.53Zm-10,20.86L40.24,86a1.22,1.22,0,0,1-1.67-.43L26.74,65.76a1.19,1.19,0,0,1-.13-.92,1.21,1.21,0,0,1,.56-.75L55,47.5l15.82,4-4.69,2.76A4,4,0,1,0,67,55.65l4.68-2.77ZM65.52,57.54a2.39,2.39,0,1,1-1.73-2.9,2.43,2.43,0,0,1,.93.48l-1.93,1.14a.8.8,0,0,0-.28,1.09.84.84,0,0,0,.49.37.82.82,0,0,0,.61-.09l1.93-1.14A2.33,2.33,0,0,1,65.52,57.54Z"/></g><g id="assets-management"><path class="cls-2" d="M77,100.5h24V20.41a3.16,3.16,0,0,0-1.44-2.32h0L78.22.43A2,2,0,0,0,76.92,0H23.85a2.08,2.08,0,0,0-1.3.43L1.5,18.07A3.4,3.4,0,0,0,0,20.76V100.5H52.54M77.36,28.65a7.53,7.53,0,0,1-15,0V22.24h15ZM58,28.65a7.52,7.52,0,0,1-15,0V22.24H58Zm-19.33,0a7.53,7.53,0,0,1-15,0V22.24h15Zm-19.36,0a7.59,7.59,0,0,1-7.52,7.48,7.59,7.59,0,0,1-7.52-7.48V22.24h15ZM53.94,4.27,57.32,18H43.64L46.87,4.27Zm11.38,0L75.26,18H61.84l-2-8.22L58.48,4.27ZM39.08,18H25.72L35.66,4.27h6.66Zm42.59,4.28h15v6.41a7.52,7.52,0,0,1-15,0ZM92.8,18H80.55L70.62,4.27h5.69ZM24.71,4.27H30.4L20.53,18H8.2ZM48.25,96.43h-44V37.65a11.69,11.69,0,0,0,17.19-2.32,11.73,11.73,0,0,0,19.33,0,11.74,11.74,0,0,0,19.34,0,11.73,11.73,0,0,0,19.33,0,11.9,11.9,0,0,0,9.67,5.08,11.72,11.72,0,0,0,7.52-2.76V96.2H81.27v0"/></g><text class="cls-3" transform="translate(77 91.23) scale(0.92 1)">B</text></g></g></svg>