<svg xmlns="http://www.w3.org/2000/svg" xmlns:xlink="http://www.w3.org/1999/xlink" width="100" height="100" viewBox="0 0 100 100">
  <defs>
    <clipPath id="clip-icon">
      <rect width="100" height="100"/>
    </clipPath>
  </defs>
  <g id="icon" clip-path="url(#clip-icon)">
    <g id="Group_2253" data-name="Group 2253" transform="translate(5907 7590.255)">
      <path id="Path_6155" data-name="Path 6155" d="M537.377,454.626a7.7,7.7,0,0,0-3.771.985l-4.538-4.822a4.7,4.7,0,0,1-.42.518q-.6.624-1.214,1.227a4.584,4.584,0,0,1-.547.45l4.378,4.651a7.726,7.726,0,1,0,6.113-3.008Zm0,12.37a4.639,4.639,0,1,1,4.639-4.639A4.643,4.643,0,0,1,537.377,467Z" transform="translate(-6352.869 -7965.158)" fill="#2d2f79"/>
      <path id="Path_6294" data-name="Path 6294" d="M537.377,466.252a7.7,7.7,0,0,1-3.771-.985l-4.538,4.822a4.7,4.7,0,0,0-.42-.518q-.6-.624-1.214-1.227a4.589,4.589,0,0,0-.547-.45l4.378-4.651a7.726,7.726,0,1,1,6.113,3.008Zm0-12.37a4.639,4.639,0,1,0,4.639,4.639A4.643,4.643,0,0,0,537.377,453.882Z" transform="translate(-6352.868 -8036.044)" fill="#2d2f79"/>
      <path id="Path_6292" data-name="Path 6292" d="M534.617,454.626a7.7,7.7,0,0,1,3.771.985l4.538-4.822a4.7,4.7,0,0,0,.42.518q.6.624,1.214,1.227a4.584,4.584,0,0,0,.547.45l-4.378,4.651a7.726,7.726,0,1,1-6.112-3.008Zm0,12.37a4.639,4.639,0,1,0-4.639-4.639A4.643,4.643,0,0,0,534.617,467Z" transform="translate(-6433.886 -7965.158)" fill="#2d2f79"/>
      <path id="Path_6293" data-name="Path 6293" d="M534.617,466.252a7.7,7.7,0,0,0,3.771-.985l4.538,4.822a4.7,4.7,0,0,1,.42-.518q.6-.624,1.214-1.227a4.6,4.6,0,0,1,.547-.45l-4.378-4.651a7.726,7.726,0,1,0-6.113,3.008Zm0-12.37a4.639,4.639,0,1,1-4.639,4.639A4.643,4.643,0,0,1,534.617,453.882Z" transform="translate(-6433.886 -8036.044)" fill="#2d2f79"/>
      <g id="Group_2252" data-name="Group 2252" transform="translate(-5895.066 -7577.389)">
        <path id="Path_6192" data-name="Path 6192" d="M228.485,127.724a1.675,1.675,0,1,0-3.292-.615,34.34,34.34,0,1,1-.073-12.987,1.675,1.675,0,0,0,3.287-.653,37.691,37.691,0,1,0,.08,14.254Z" transform="translate(-153.139 -83.115)" fill="#2d2f79"/>
        <path id="Path_6193" data-name="Path 6193" d="M532.717,272.919a1.668,1.668,0,1,1-1.668-1.669,1.669,1.669,0,0,1,1.668,1.669" transform="translate(-457.343 -235.227)" fill="#2d2f79"/>
      </g>
      <g id="Group_2249" data-name="Group 2249" transform="translate(-5882.26 -7557.489)">
        <path id="Path_6194" data-name="Path 6194" d="M256.663,208.752a1.551,1.551,0,0,0-1.556-1.546l-33.681.007.029-.891,1.606,0a2.263,2.263,0,0,0,2.056-.712,2.034,2.034,0,0,0,.153-1.976L218.9,181.946a3.793,3.793,0,0,0-3.524-2.573h-3.828a1.546,1.546,0,1,0,0,3.093h3.828a.73.73,0,0,1,.542.363l5.989,20.4h-.456a3.117,3.117,0,0,0-3.14,3.086v.9a3.117,3.117,0,0,0,3.139,3.086h33.652a1.551,1.551,0,0,0,1.556-1.546Z" transform="translate(-209.997 -179.372)" fill="#2d2f79"/>
        <path id="Path_6195" data-name="Path 6195" d="M318.841,197.479a1.547,1.547,0,0,0-1.223-.6h-31.7a1.546,1.546,0,0,0-1.5,1.934l4.8,18.556a1.547,1.547,0,0,0,1.5,1.159h22.1a1.546,1.546,0,0,0,1.5-1.16l4.793-18.556a1.546,1.546,0,0,0-.274-1.334Zm-18.867,17.549-4.106-15.056h4.139l4.217,15.463h-4.2a1.525,1.525,0,0,0-.048-.407Zm7.345,0-4.106-15.056h3.857l4.375,15.119a1.494,1.494,0,0,0,.165.344h-4.242a1.528,1.528,0,0,0-.048-.407Zm-19.4-15.056h4.746l4.217,15.463h-4.961Zm25.19,9.737-2.817-9.737h5.333Z" transform="translate(-271.065 -193.791)" fill="#2d2f79"/>
        <path id="Path_6196" data-name="Path 6196" d="M293.12,367.769a4.639,4.639,0,1,0,4.639-4.639A4.638,4.638,0,0,0,293.12,367.769Zm6.185,0a1.546,1.546,0,1,1-1.546-1.546A1.548,1.548,0,0,1,299.305,367.769Z" transform="translate(-278.309 -330.588)" fill="#2d2f79"/>
        <path id="Path_6197" data-name="Path 6197" d="M398.12,367.769a4.639,4.639,0,1,0,4.639-4.639A4.638,4.638,0,0,0,398.12,367.769Zm6.185,0a1.546,1.546,0,1,1-1.546-1.546A1.548,1.548,0,0,1,404.305,367.769Z" transform="translate(-364.697 -330.588)" fill="#2d2f79"/>
      </g>
    </g>
  </g>
</svg>
