<svg xmlns="http://www.w3.org/2000/svg" xmlns:xlink="http://www.w3.org/1999/xlink" width="100" height="100" viewBox="0 0 100 100">
  <defs>
    <clipPath id="clip-icon_29">
      <rect width="100" height="100"/>
    </clipPath>
  </defs>
  <g id="icon_29" data-name="icon – 29" clip-path="url(#clip-icon_29)">
    <g id="Group_2434" data-name="Group 2434" transform="translate(12.144 0.699)">
      <path id="Path_6357" data-name="Path 6357" d="M217.412,45.066a9.45,9.45,0,0,0-6.691-2.641H184.31a16.833,16.833,0,0,0-16.727,16.727V124.3a16.833,16.833,0,0,0,16.727,16.727h42.259A16.833,16.833,0,0,0,243.3,124.3V73.591a9.575,9.575,0,0,0-2.994-7.043Zm16.551,22.889H220.581a4.359,4.359,0,0,1-4.4-4.4V51.228Zm4.05,56.345a11.422,11.422,0,0,1-11.445,11.445H184.311A11.422,11.422,0,0,1,172.866,124.3V59.152a11.422,11.422,0,0,1,11.445-11.445H210.9V63.554a9.771,9.771,0,0,0,9.684,9.684h17.432V124.3Z" transform="translate(-167.583 -42.425)" fill="#2d2f79" stroke="#f2f7ff" stroke-width="1.4"/>
      <path id="Path_6358" data-name="Path 6358" d="M244.821,340.24a2.575,2.575,0,1,0,2.575,2.575A2.48,2.48,0,0,0,244.821,340.24Z" transform="translate(-231.618 -278.091)" fill="#2d2f79"/>
      <path id="Path_6359" data-name="Path 6359" d="M277.932,305.666h-4.291v13.518h4.291V310.6a4.047,4.047,0,0,1,3.218-1.287,1.609,1.609,0,0,1,1.073.214v-4.077a6.61,6.61,0,0,0-4.291,1.931Z" transform="translate(-255.075 -252.101)" fill="#2d2f79"/>
      <path id="Path_6360" data-name="Path 6360" d="M317.833,304.61a9,9,0,0,0-6.007,2.146l1.5,3a6.167,6.167,0,0,1,3.862-1.5c1.717,0,2.789.858,2.789,1.931v1.287c-.858-1.073-2.36-1.5-4.291-1.5-2.145,0-4.721,1.073-4.721,4.291a4.56,4.56,0,0,0,4.721,4.505,5.641,5.641,0,0,0,4.291-1.717v1.287h4.291v-8.368c0-4.077-3-5.364-6.436-5.364Zm2.145,10.515a3.071,3.071,0,0,1-2.36,1.073c-1.073,0-2.145-.429-2.145-1.5s1.073-1.5,2.145-1.5a2.928,2.928,0,0,1,2.36.858Z" transform="translate(-282.963 -251.471)" fill="#2d2f79"/>
      <path id="Path_6361" data-name="Path 6361" d="M384.334,314.462l-2.574-8.154H377.9l-2.575,8.154-2.145-8.154h-4.505l4.076,13.518h4.5l2.575-8.368,2.574,8.368h4.72l3.862-13.518h-4.506Z" transform="translate(-326.077 -252.738)" fill="#2d2f79"/>
    </g>
  </g>
</svg>
