<svg xmlns="http://www.w3.org/2000/svg" xmlns:xlink="http://www.w3.org/1999/xlink" width="100" height="100" viewBox="0 0 100 100">
  <defs>
    <clipPath id="clip-icon_2">
      <rect width="100" height="100"/>
    </clipPath>
  </defs>
  <g id="icon_2" data-name="icon – 2" clip-path="url(#clip-icon_2)">
    <g id="Group_2415" data-name="Group 2415" transform="translate(6158.082 7609)">
      <path id="Path_6295" data-name="Path 6295" d="M157.648,97.29a3.3,3.3,0,0,0-2.622-1.987c-.277-.035-.321-.041-72.892,9.738a2.652,2.652,0,0,0-1.536,4.465l10.88,11.271,1.2,15.4h0a2,2,0,0,0,3.921.363l2.754-10.232,34.667-16.527a1.532,1.532,0,0,0-1.319-2.765L96.76,124.153l-1.509,5.605-.8-10.315L83.371,107.967c23.985-3.232,67.581-9.1,71.369-9.588a.276.276,0,0,1,.086.112.208.208,0,0,1-.03.229l-35.325,46.662L103.536,128.9h0a1.532,1.532,0,0,0-2.2,2.131L117.6,147.86a2.645,2.645,0,0,0,1.906.809c.054,0,.108,0,.161,0h0a2.645,2.645,0,0,0,1.951-1.045l35.62-47.052a3.268,3.268,0,0,0,.4-3.277Z" transform="translate(-6216.591 -7691.298)" fill="#2d2f79"/>
      <g id="Group_2257" data-name="Group 2257" transform="translate(-6157.487 -7552.67)">
        <path id="Path_6296" data-name="Path 6296" d="M228.218,345.292a1.549,1.549,0,0,1,0-2.242l13.569-13.418a1.586,1.586,0,0,1,2.242,2.243l-13.569,13.418A1.549,1.549,0,0,1,228.218,345.292Z" transform="translate(-214.249 -329.151)" fill="#2d2f79"/>
        <path id="Path_6297" data-name="Path 6297" d="M228.34,398.55a1.549,1.549,0,0,1,0-2.242l13.271-13.787a1.586,1.586,0,0,1,2.242,2.242L230.582,398.55A1.549,1.549,0,0,1,228.34,398.55Z" transform="translate(-214.072 -368.425)" fill="#2d2f79"/>
        <path id="Path_6299" data-name="Path 6299" d="M175.38,345.391a1.549,1.549,0,0,1,0-2.242l13.442-13.517a1.586,1.586,0,0,1,2.242,2.243l-13.442,13.517A1.549,1.549,0,0,1,175.38,345.391Z" transform="translate(-174.9 -329.151)" fill="#2d2f79"/>
      </g>
    </g>
  </g>
</svg>
