<svg xmlns="http://www.w3.org/2000/svg" xmlns:xlink="http://www.w3.org/1999/xlink" width="100" height="100" viewBox="0 0 100 100">
  <defs>
    <clipPath id="clip-icon_48">
      <rect width="100" height="100"/>
    </clipPath>
  </defs>
  <g id="icon_48" data-name="icon – 48" clip-path="url(#clip-icon_48)">
    <g id="Group_2448" data-name="Group 2448" transform="translate(4159 5850.998)">
      <path id="Subtraction_1" data-name="Subtraction 1" d="M44.315,97c-1.431,0-2.907-.031-4.388-.092l-.3-.016-.245-.013-.176-.008c-.441-.021-.9-.043-1.34-.07-.389-.025-.779-.055-1.156-.084l-.154-.012-.183-.014c-.167-.012-.333-.025-.5-.039-.331-.027-.679-.058-1.1-.1-.354-.032-.726-.069-1.173-.117l-.242-.026h-.008l-.263-.029c-.556-.062-1.049-.121-1.509-.18l-.407-.054-.2-.027c-.472-.065-.939-.132-1.388-.2l-.361-.055-.169-.026c-.53-.083-1.057-.172-1.567-.262l-.044-.008-.051-.009c-1.266-.226-2.524-.481-3.739-.758l-.067-.016-.073-.017c-.514-.119-1.05-.249-1.639-.4l-.206-.052c-.52-.134-1.039-.275-1.544-.419l-.112-.033-.005,0-.106-.031c-1.166-.335-2.275-.685-3.295-1.042l-.037-.014-.031-.012c-.7-.245-1.307-.469-1.858-.686A35.7,35.7,0,0,1,5.6,87.11,14.719,14.719,0,0,1,.588,80.584l0-.006c-.01-.028-.018-.057-.027-.085s-.016-.055-.026-.082A9.779,9.779,0,0,1,0,77.279V19.729A11.756,11.756,0,0,1,3.828,11.5a30.1,30.1,0,0,1,9.652-6.1C21.712,1.921,32.663,0,44.314,0h.016c11.635,0,22.577,1.919,30.81,5.4a30.1,30.1,0,0,1,9.652,6.1,12.6,12.6,0,0,1,3.625,6.3,1.739,1.739,0,0,1,.059.281,9.561,9.561,0,0,1,.143,1.646V77.281a9.579,9.579,0,0,1-.166,1.75h.006a13.178,13.178,0,0,1-4.7,7.475,34.019,34.019,0,0,1-9.807,5.573A67.153,67.153,0,0,1,61.24,95.558h-.006c-.551.1-1.13.195-1.718.287l-.045.007-.39.062c-.492.074-1.009.148-1.534.219l-.079.01-.372.048c-.476.061-.994.123-1.627.193l-.167.02-.251.029c-.289.03-.584.057-.87.084l-.355.033c-1.154.109-2.127.187-3.061.245C48.641,96.928,46.471,97,44.315,97Zm-4.266-3.428h.011c1.413.061,2.843.092,4.252.092,1.427,0,2.875-.031,4.3-.092l.264-.013.177-.009c.483-.023.983-.051,1.529-.085l.406-.028.214-.015c.493-.034,1-.07,1.506-.114l.148-.015.153-.015c.647-.058,1.222-.115,1.757-.173l.107-.012.1-.011c.46-.052,1.066-.121,1.672-.2.113-.014.224-.029.336-.044l.125-.017c.483-.066,1-.138,1.525-.219l.057-.008.06-.009c.637-.1,1.253-.2,1.832-.3l.021,0,.048-.009c.609-.109,1.2-.223,1.764-.337l.043-.009.043-.009c.547-.111,1.1-.23,1.636-.352l.094-.021.066-.015a57.661,57.661,0,0,0,9.537-3.011,37.213,37.213,0,0,0,3.694-1.8c.175-.1.358-.206.578-.337l.073-.044.073-.044c3.675-2.22,6.089-4.82,6.8-7.323a6.449,6.449,0,0,0,.229-1.682V64.773c-2.475,2.735-6.322,5.14-11.433,7.147a68.162,68.162,0,0,1-13.487,3.62A97.269,97.269,0,0,1,44.2,76.845,97.853,97.853,0,0,1,28.44,75.609a69.4,69.4,0,0,1-13.259-3.442c-5.275-1.993-9.258-4.4-11.839-7.162V77.279a6.371,6.371,0,0,0,.1,1.133h.006c.58,3.119,3.849,6.4,8.97,9l.1.049c.247.125.5.253.762.376.1.046.2.092.294.137.377.176.774.351,1.211.536a57.561,57.561,0,0,0,9.305,2.956l.267.06.238.054c.525.118.93.206,1.313.284l.19.038.186.037c.532.107,1.022.2,1.5.287l.139.025.212.037c.45.079.93.159,1.427.238.166.027.332.053.5.078,2.379.364,4.872.638,7.41.815l.226.016.333.023c.581.037,1.272.078,1.983.108h.034ZM3.478,58.847c1.049,3.723,5.867,7.53,12.889,10.184a76.488,76.488,0,0,0,22.592,4.331,33.794,33.794,0,0,0,4.758,2.25,1.41,1.41,0,0,0,.586.117,1.551,1.551,0,0,0,.6-.117A33.784,33.784,0,0,0,49.68,73.35a75.264,75.264,0,0,0,22.94-4.54c7.073-2.778,11.72-6.719,12.431-10.543a1.681,1.681,0,0,1,.222-.549V44.738c-2.483,2.694-6.293,5.061-11.321,7.035a63.083,63.083,0,0,1-8.816,2.69,34.123,34.123,0,0,0,1.012-3.692,57.186,57.186,0,0,0,6.583-2.107c7.082-2.782,11.734-6.724,12.444-10.544a1.7,1.7,0,0,1,.1-.281V24.592c-2.483,2.694-6.293,5.061-11.321,7.036A60.745,60.745,0,0,1,66.9,33.885V32.9a1.671,1.671,0,0,0-.956-1.507l-.986-.471a58.756,58.756,0,0,0,7.779-2.4A31.144,31.144,0,0,0,81.266,23.7a10.894,10.894,0,0,0,3.842-5.419,9.438,9.438,0,0,0-2.685-4.419,27.29,27.29,0,0,0-8.593-5.37C65.989,5.174,55.507,3.346,44.314,3.346h-.008c-11.2,0-21.679,1.828-29.518,5.147a27.277,27.277,0,0,0-8.593,5.369A9.481,9.481,0,0,0,3.515,18.25a10.835,10.835,0,0,0,3.832,5.437A31.115,31.115,0,0,0,15.9,28.518a58.71,58.71,0,0,0,7.771,2.4l-.99.472a1.691,1.691,0,0,0-.954,1.507v.983a60.751,60.751,0,0,1-7.05-2.256c-5.037-1.978-8.851-4.351-11.334-7.052V37.8a1.687,1.687,0,0,1,.111.32c.71,3.82,5.362,7.761,12.444,10.544a57.215,57.215,0,0,0,6.576,2.105,34.136,34.136,0,0,0,1.01,3.691,63.086,63.086,0,0,1-8.806-2.688c-5.039-1.979-8.852-4.352-11.334-7.052V58.554a1.715,1.715,0,0,1,.137.294Z" transform="translate(-4153 -5849)" fill="#2d2f79"/>
      <path id="Path_6540" data-name="Path 6540" d="M185.557,277.819l-20.92-9.966a1.669,1.669,0,0,0-1.44,0l-20.9,9.966a1.681,1.681,0,0,0-.955,1.508v10.82a34.3,34.3,0,0,0,21.991,31.891,1.411,1.411,0,0,0,.586.117,1.558,1.558,0,0,0,.6-.117,34.32,34.32,0,0,0,21.991-31.891v-10.82a1.682,1.682,0,0,0-.956-1.508Z" transform="translate(-4272.614 -6095.425)" fill="none" stroke="#2d2f79" stroke-width="3"/>
      <g id="Group_2447" data-name="Group 2447" transform="translate(-4117.802 -5820.852)">
        <path id="Path_6241" data-name="Path 6241" d="M26.612,53.636l-1.083-.37s.132-5.523-1.85-5.92c-1.321-1.533.212-65.017,4.969-.212a3.864,3.864,0,0,0-1.929,2.22A20.386,20.386,0,0,0,26.612,53.636Z" transform="translate(-16.573 -12.934)" fill="#2d2f79" fill-rule="evenodd"/>
        <path id="Path_6242" data-name="Path 6242" d="M26.612,53.636l-1.083-.37s.132-5.523-1.85-5.92c-1.321-1.533.212-65.017,4.969-.212a3.864,3.864,0,0,0-1.929,2.22A20.386,20.386,0,0,0,26.612,53.636Z" transform="translate(-16.573 -12.934)" fill="#2d2f79" fill-rule="evenodd"/>
        <path id="Path_6243" data-name="Path 6243" d="M32.935,35.83s9.488-6.238,7.268-19.215C38.062,7.18,33.014,4.088,32.459,2.9A13.342,13.342,0,0,1,31.27.573l.4,26.244c0,.027-.819,8.035,1.269,9.013" transform="translate(-22.315 -0.467)" fill="#2d2f79" fill-rule="evenodd"/>
        <path id="Path_6244" data-name="Path 6244" d="M32.935,35.83s9.488-6.238,7.268-19.215C38.062,7.18,33.014,4.088,32.459,2.9A13.342,13.342,0,0,1,31.27.573l.4,26.244c0,.027-.819,8.035,1.269,9.013" transform="translate(-22.315 -0.467)" fill="#2d2f79" fill-rule="evenodd"/>
        <path id="Path_6245" data-name="Path 6245" d="M8.4,35.909S-.506,29.83.023,19.127c.5-10.7,6.792-15.963,8.008-16.915A2.461,2.461,0,0,0,8.9.2c.555,1.189.449,17.787.528,19.743C9.669,27.478,9.009,34.482,8.4,35.909Z" transform="translate(0 -0.203)" fill="#2d2f79" fill-rule="evenodd"/>
        <path id="Path_6246" data-name="Path 6246" d="M8.4,35.909S-.506,29.83.023,19.127c.5-10.7,6.792-15.963,8.008-16.915A2.461,2.461,0,0,0,8.9.2c.555,1.189.449,17.787.528,19.743C9.669,27.478,9.009,34.482,8.4,35.909Z" transform="translate(0 -0.203)" fill="#2d2f79" fill-rule="evenodd"/>
      </g>
    </g>
  </g>
</svg>
