<svg xmlns="http://www.w3.org/2000/svg" xmlns:xlink="http://www.w3.org/1999/xlink" width="100" height="100" viewBox="0 0 100 100">
  <defs>
    <clipPath id="clip-icon_6">
      <rect width="100" height="100"/>
    </clipPath>
  </defs>
  <g id="icon_6" data-name="icon – 6" clip-path="url(#clip-icon_6)">
    <g id="Group_2229" data-name="Group 2229" transform="translate(6468 7307.757)">
      <path id="noun-database-5079143" d="M162.477,26.24c-12,0-22.846,2.023-30.835,5.406a30.121,30.121,0,0,0-9.651,6.1,11.769,11.769,0,0,0-3.828,8.224v57.55a9.723,9.723,0,0,0,.532,3.133c.019.056.033.111.052.166l0,.006c1.705,4.874,6.971,8.7,14.091,11.494.6.237,1.227.464,1.858.686l.069.026q1.59.555,3.3,1.042l.222.066q.761.216,1.545.418l.206.052q.809.206,1.639.4l.14.033q1.822.415,3.739.758l.095.016q.777.138,1.568.261c.176.028.352.055.529.081.459.069.923.136,1.388.2.2.028.406.055.611.081.5.064,1,.123,1.509.18l.513.056q.583.062,1.173.117c.365.034.729.068,1.1.1.225.019.453.035.679.052.435.033.87.067,1.309.095.5.031,1.009.054,1.516.078.184.009.364.022.549.03q2.165.09,4.387.092,3.289,0,6.451-.2c1.033-.064,2.052-.15,3.06-.245.41-.039.82-.075,1.225-.117.14-.015.278-.034.418-.049.546-.06,1.089-.123,1.627-.193l.451-.059c.515-.069,1.028-.142,1.535-.219l.434-.069q.868-.137,1.718-.287h.006a67.3,67.3,0,0,0,12.715-3.478c7.859-3.087,13.46-7.427,14.5-13.048h-.006a9.5,9.5,0,0,0,.167-1.751V45.967a9.435,9.435,0,0,0-.144-1.646h0a1.727,1.727,0,0,0-.059-.281,12.7,12.7,0,0,0-3.625-6.3,30.124,30.124,0,0,0-9.652-6.1c-7.99-3.382-18.826-5.406-30.826-5.406Zm0,3.345c11.621,0,22.091,2,29.516,5.148a27.208,27.208,0,0,1,8.594,5.37,9.38,9.38,0,0,1,2.685,4.419c-.876,3.6-5.245,7.436-12.376,10.236-7.342,2.884-17.366,4.691-28.419,4.691s-21.073-1.806-28.416-4.691c-7.15-2.808-11.524-6.654-12.382-10.266v0a9.412,9.412,0,0,1,2.679-4.387,27.214,27.214,0,0,1,8.594-5.37c7.425-3.143,17.906-5.148,29.526-5.148ZM121.505,50.814c2.592,2.82,6.542,5.17,11.334,7.052,7.859,3.087,18.222,4.912,29.637,4.912s21.782-1.825,29.641-4.912c4.782-1.878,8.728-4.223,11.321-7.035V64.078h0a1.762,1.762,0,0,0-.1.281c-.687,3.695-5.1,7.659-12.444,10.544s-17.366,4.69-28.419,4.69S141.4,77.787,134.059,74.9,122.3,68.055,121.615,64.36a1.694,1.694,0,0,0-.11-.32Zm0,20.146c2.592,2.82,6.542,5.17,11.334,7.052,7.859,3.087,18.222,4.926,29.637,4.926s21.782-1.839,29.641-4.926c4.782-1.878,8.728-4.223,11.321-7.035v12.98h0a1.676,1.676,0,0,0-.222.549c-.687,3.695-5.089,7.659-12.431,10.543s-17.366,4.69-28.419,4.69c-10.764,0-20.549-1.714-27.835-4.468s-11.876-6.588-12.889-10.184h0a1.7,1.7,0,0,0-.137-.294Zm81.932,20.052v12.506a6.4,6.4,0,0,1-.228,1.682c-.7,2.482-3.047,5.059-6.8,7.323l-.147.088c-.19.113-.382.225-.578.337a37.12,37.12,0,0,1-3.694,1.8,57.8,57.8,0,0,1-9.537,3.012l-.16.036c-.539.122-1.082.24-1.636.352l-.085.016c-.581.118-1.168.23-1.764.337l-.069.013c-.6.107-1.215.208-1.832.3l-.117.016c-.5.078-1.012.149-1.525.219-.154.021-.306.043-.461.062-.552.072-1.11.137-1.672.2l-.2.022q-.871.1-1.757.173c-.1.009-.2.021-.3.03-.5.043-1,.079-1.506.114l-.62.043c-.505.032-1.017.06-1.529.085-.148.007-.293.016-.441.022q-2.12.091-4.3.092-2.156,0-4.252-.092h-.046c-.666-.028-1.327-.066-1.982-.108-.188-.012-.373-.026-.559-.039-2.558-.178-5.038-.452-7.41-.814l-.5-.078c-.479-.076-.957-.155-1.427-.238l-.349-.062q-.758-.138-1.5-.287c-.125-.025-.251-.049-.376-.075q-.664-.137-1.313-.284l-.506-.114a57.552,57.552,0,0,1-9.305-2.956c-.414-.175-.817-.353-1.212-.536-.1-.046-.2-.091-.294-.137-.293-.138-.577-.282-.859-.425-5.255-2.669-8.4-5.932-8.97-9h-.007a6.308,6.308,0,0,1-.1-1.133V91.244c2.7,2.888,6.824,5.267,11.84,7.163,7.779,2.941,17.9,4.677,29.019,4.677,11.415,0,21.782-1.839,29.641-4.925,4.851-1.905,8.842-4.283,11.432-7.147Z" transform="translate(-6580.163 -7331.996)" fill="#2d2f79" fill-rule="evenodd"/>
      <path id="Path_6255" data-name="Path 6255" d="M185.557,277.819l-20.92-9.966a1.669,1.669,0,0,0-1.44,0l-20.9,9.966a1.681,1.681,0,0,0-.955,1.508v10.82a34.3,34.3,0,0,0,21.991,31.891,1.411,1.411,0,0,0,.586.117,1.558,1.558,0,0,0,.6-.117,34.32,34.32,0,0,0,21.991-31.891v-10.82a1.682,1.682,0,0,0-.956-1.508Z" transform="translate(-6581.614 -7552.182)" fill="#f2f7ff" stroke="#2d2f79" stroke-width="3"/>
      <g id="Group_2228" data-name="Group 2228" transform="translate(-6426.802 -7277.61)">
        <path id="Path_6241" data-name="Path 6241" d="M26.612,53.636l-1.083-.37s.132-5.523-1.85-5.92c-1.321-1.533.212-65.017,4.969-.212a3.864,3.864,0,0,0-1.929,2.22A20.386,20.386,0,0,0,26.612,53.636Z" transform="translate(-16.573 -12.934)" fill="#2d2f79" fill-rule="evenodd"/>
        <path id="Path_6242" data-name="Path 6242" d="M26.612,53.636l-1.083-.37s.132-5.523-1.85-5.92c-1.321-1.533.212-65.017,4.969-.212a3.864,3.864,0,0,0-1.929,2.22A20.386,20.386,0,0,0,26.612,53.636Z" transform="translate(-16.573 -12.934)" fill="#2d2f79" fill-rule="evenodd"/>
        <path id="Path_6243" data-name="Path 6243" d="M32.935,35.83s9.488-6.238,7.268-19.215C38.062,7.18,33.014,4.088,32.459,2.9A13.342,13.342,0,0,1,31.27.573l.4,26.244c0,.027-.819,8.035,1.269,9.013" transform="translate(-22.315 -0.467)" fill="#2d2f79" fill-rule="evenodd"/>
        <path id="Path_6244" data-name="Path 6244" d="M32.935,35.83s9.488-6.238,7.268-19.215C38.062,7.18,33.014,4.088,32.459,2.9A13.342,13.342,0,0,1,31.27.573l.4,26.244c0,.027-.819,8.035,1.269,9.013" transform="translate(-22.315 -0.467)" fill="#2d2f79" fill-rule="evenodd"/>
        <path id="Path_6245" data-name="Path 6245" d="M8.4,35.909S-.506,29.83.023,19.127c.5-10.7,6.792-15.963,8.008-16.915A2.461,2.461,0,0,0,8.9.2c.555,1.189.449,17.787.528,19.743C9.669,27.478,9.009,34.482,8.4,35.909Z" transform="translate(0 -0.203)" fill="#2d2f79" fill-rule="evenodd"/>
        <path id="Path_6246" data-name="Path 6246" d="M8.4,35.909S-.506,29.83.023,19.127c.5-10.7,6.792-15.963,8.008-16.915A2.461,2.461,0,0,0,8.9.2c.555,1.189.449,17.787.528,19.743C9.669,27.478,9.009,34.482,8.4,35.909Z" transform="translate(0 -0.203)" fill="#2d2f79" fill-rule="evenodd"/>
      </g>
    </g>
  </g>
</svg>
