<svg xmlns="http://www.w3.org/2000/svg" xmlns:xlink="http://www.w3.org/1999/xlink" width="100" height="100" viewBox="0 0 100 100">
  <defs>
    <clipPath id="clip-icon_41">
      <rect width="100" height="100"/>
    </clipPath>
  </defs>
  <g id="icon_41" data-name="icon – 41" clip-path="url(#clip-icon_41)">
    <path id="Path_6538" data-name="Path 6538" d="M182.558,34.888a10.938,10.938,0,0,0-8.339-8.494,11.146,11.146,0,0,0-8.031,1.39v-12.2a7.186,7.186,0,0,0-7.1-7.1H139.315a1.55,1.55,0,0,0-.926,2.78,7.838,7.838,0,0,1,2.934,6.023A7.721,7.721,0,0,1,131.9,24.85a8,8,0,0,1-6.023-6.023,7.767,7.767,0,0,1,2.78-7.722,1.5,1.5,0,0,0-1.081-2.625h-15.6a7.186,7.186,0,0,0-7.1,7.1V45.236H94.065a7.085,7.085,0,0,0-7.1,7.1V70.1a1.484,1.484,0,0,0,1.081,1.39,1.648,1.648,0,0,0,1.7-.464,8.692,8.692,0,0,1,15.444,6.95c-1.39,7.259-10.965,9.266-15.289,3.552-.618-.463-1.235-.772-1.853-.463a1.483,1.483,0,0,0-1.081,1.39v17.76a7.085,7.085,0,0,0,7.1,7.1h23.784a1.55,1.55,0,0,0,.926-2.78,8.552,8.552,0,0,1-2.934-9.112,8.969,8.969,0,0,1,6.641-6.177,8.6,8.6,0,0,1,10.347,8.494,8.418,8.418,0,0,1-3.243,6.641c-.926,1.081-.309,2.934,1.081,2.934H146.42a7.186,7.186,0,0,0,7.1-7.1V65.467h5.4a7.186,7.186,0,0,0,7.1-7.1v-12.2a10.6,10.6,0,0,0,5.714,1.544,10.385,10.385,0,0,0,8.339-4.016,10.068,10.068,0,0,0,2.471-8.8Zm-32.124,65.327a4.089,4.089,0,0,1-4.016,4.016H134.064a11.272,11.272,0,0,0,1.854-6.332,11.812,11.812,0,0,0-23.166-3.244,11.563,11.563,0,0,0,1.544,9.575H94.066a3.988,3.988,0,0,1-4.016-4.016V86.007a11.71,11.71,0,0,0,18.069-7.413,11.8,11.8,0,0,0-18.068-12.2V52.185a4.089,4.089,0,0,1,4.016-4.016h10.965V58.207a7.186,7.186,0,0,0,7.1,7.1h15.6a1.55,1.55,0,0,0,.926-2.78,7.8,7.8,0,0,1,4.942-13.9c7.259,0,10.656,9.266,4.942,13.9a1.58,1.58,0,0,0,.926,2.78h11.119v34.9Zm27.49-58.223a7.778,7.778,0,0,1-12.046-.154,1.462,1.462,0,0,0-1.7-.464,1.483,1.483,0,0,0-1.081,1.39v15.6a4.089,4.089,0,0,1-4.016,4.016H142.713a10.861,10.861,0,1,0-18.533,0h-12.2a4.089,4.089,0,0,1-4.016-4.016V15.583a4.089,4.089,0,0,1,4.016-4.016h12.2a10.747,10.747,0,0,0-1.39,7.876,11.124,11.124,0,0,0,8.494,8.494,10.889,10.889,0,0,0,13.127-10.656,12.161,12.161,0,0,0-1.544-5.714h16.37a4.089,4.089,0,0,1,4.016,4.016v15.6a1.484,1.484,0,0,0,1.081,1.39,1.742,1.742,0,0,0,1.7-.464,7.767,7.767,0,0,1,7.722-2.78,8,8,0,0,1,6.023,6.023,9.889,9.889,0,0,1-1.854,6.641Z" transform="translate(-84.853 -7.899)" fill="#2c2c78"/>
  </g>
</svg>
