<svg xmlns="http://www.w3.org/2000/svg" xmlns:xlink="http://www.w3.org/1999/xlink" width="100" height="100" viewBox="0 0 100 100">
  <defs>
    <clipPath id="clip-icon_8">
      <rect width="100" height="100"/>
    </clipPath>
  </defs>
  <g id="icon_8" data-name="icon – 8" clip-path="url(#clip-icon_8)">
    <g id="Group_2230" data-name="Group 2230" transform="translate(6928.129 6645.164)">
      <path id="Path_6260" data-name="Path 6260" d="M121.107,31.728a2.555,2.555,0,1,0-2.553-2.555A2.557,2.557,0,0,0,121.107,31.728Zm0-3.259a.7.7,0,1,1-.7.7A.705.705,0,0,1,121.107,28.47Zm18.062,3.259a2.555,2.555,0,1,0-2.553-2.555A2.557,2.557,0,0,0,139.169,31.728Zm0-3.259a.7.7,0,1,1-.7.7A.705.705,0,0,1,139.169,28.47Zm-9.03,3.259a2.555,2.555,0,1,0-2.555-2.555A2.558,2.558,0,0,0,130.139,31.728Zm0-3.259a.7.7,0,1,1-.7.7A.7.7,0,0,1,130.139,28.47ZM115.271,40.786h64.657a4.548,4.548,0,0,0,4.544-4.544V22.1a4.547,4.547,0,0,0-4.544-4.542H115.271A4.546,4.546,0,0,0,110.73,22.1V36.242a4.548,4.548,0,0,0,4.541,4.544ZM113.989,22.1a1.285,1.285,0,0,1,1.283-1.284h64.657a1.286,1.286,0,0,1,1.285,1.284V36.243a1.286,1.286,0,0,1-1.285,1.285H115.271a1.285,1.285,0,0,1-1.283-1.285Z" transform="translate(-7025.73 -6662.097)" fill="#2d2f79"/>
      <path id="Path_6262" data-name="Path 6262" d="M121.107,31.728a2.555,2.555,0,1,0-2.553-2.555A2.557,2.557,0,0,0,121.107,31.728Zm0-3.259a.7.7,0,1,1-.7.7A.705.705,0,0,1,121.107,28.47Zm18.062,3.259a2.555,2.555,0,1,0-2.553-2.555A2.557,2.557,0,0,0,139.169,31.728Zm0-3.259a.7.7,0,1,1-.7.7A.705.705,0,0,1,139.169,28.47Zm-9.03,3.259a2.555,2.555,0,1,0-2.555-2.555A2.558,2.558,0,0,0,130.139,31.728Zm0-3.259a.7.7,0,1,1-.7.7A.7.7,0,0,1,130.139,28.47ZM115.271,40.786h64.657a4.548,4.548,0,0,0,4.544-4.544V22.1a4.547,4.547,0,0,0-4.544-4.542H115.271A4.546,4.546,0,0,0,110.73,22.1V36.242a4.548,4.548,0,0,0,4.541,4.544ZM113.989,22.1a1.285,1.285,0,0,1,1.283-1.284h64.657a1.286,1.286,0,0,1,1.285,1.284V36.243a1.286,1.286,0,0,1-1.285,1.285H115.271a1.285,1.285,0,0,1-1.283-1.285Z" transform="translate(-7025.73 -6634.423)" fill="#2d2f79"/>
      <path id="Path_6263" data-name="Path 6263" d="M121.107,31.728a2.555,2.555,0,1,0-2.553-2.555A2.557,2.557,0,0,0,121.107,31.728Zm0-3.259a.7.7,0,1,1-.7.7A.705.705,0,0,1,121.107,28.47Zm18.062,3.259a2.555,2.555,0,1,0-2.553-2.555A2.557,2.557,0,0,0,139.169,31.728Zm0-3.259a.7.7,0,1,1-.7.7A.705.705,0,0,1,139.169,28.47Zm-9.03,3.259a2.555,2.555,0,1,0-2.555-2.555A2.558,2.558,0,0,0,130.139,31.728Zm0-3.259a.7.7,0,1,1-.7.7A.7.7,0,0,1,130.139,28.47ZM115.271,40.786h64.657a4.548,4.548,0,0,0,4.544-4.544V22.1a4.547,4.547,0,0,0-4.544-4.542H115.271A4.546,4.546,0,0,0,110.73,22.1V36.242a4.548,4.548,0,0,0,4.541,4.544ZM113.989,22.1a1.285,1.285,0,0,1,1.283-1.284h64.657a1.286,1.286,0,0,1,1.285,1.284V36.243a1.286,1.286,0,0,1-1.285,1.285H115.271a1.285,1.285,0,0,1-1.283-1.285Z" transform="translate(-7025.73 -6606.751)" fill="#2d2f79"/>
      <path id="Path_6261" data-name="Path 6261" d="M154.554,147.261v10.966a5.968,5.968,0,0,0-4.1,4.085H134.385a1.629,1.629,0,0,0,0,3.258h16.071a5.952,5.952,0,0,0,11.452,0h16.07a1.629,1.629,0,0,0,0-3.258h-16.07a5.973,5.973,0,0,0-4.1-4.085V147.26Zm4.328,16.679a2.7,2.7,0,1,1-2.7-2.7A2.7,2.7,0,0,1,158.882,163.94Z" transform="translate(-7034.329 -6715.687)" fill="#2d2f79"/>
    </g>
  </g>
</svg>
