<svg xmlns="http://www.w3.org/2000/svg" xmlns:xlink="http://www.w3.org/1999/xlink" width="100" height="100" viewBox="0 0 100 100">
  <defs>
    <clipPath id="clip-icon_30">
      <rect width="100" height="100"/>
    </clipPath>
  </defs>
  <g id="icon_30" data-name="icon – 30" clip-path="url(#clip-icon_30)">
    <g id="Group_2441" data-name="Group 2441" transform="translate(0.563 0.561)">
      <g id="Group_2394" data-name="Group 2394" transform="translate(35.249 9.732)">
        <path id="Path_6475" data-name="Path 6475" d="M268.128,77.032l1.389-.775a.358.358,0,0,1,.341-.019,12,12,0,0,0,1.779.991.243.243,0,0,1,.118.217v1.546a1.419,1.419,0,0,0,1.053,1.371,15.124,15.124,0,0,0,3.9.517h.174a15.068,15.068,0,0,0,3.7-.523,1.419,1.419,0,0,0,1.052-1.37v-1.54a.241.241,0,0,1,.116-.217,11.949,11.949,0,0,0,1.78-.991.363.363,0,0,1,.343.019l1.38.77h0a1.418,1.418,0,0,0,1.67-.211,14.078,14.078,0,0,0,3.912-6.562,1.418,1.418,0,0,0-.679-1.6l-1.537-.858a10.684,10.684,0,0,0,0-2.2l1.537-.858a1.42,1.42,0,0,0,.679-1.606,14.079,14.079,0,0,0-3.9-6.564,1.416,1.416,0,0,0-1.67-.211l-1.389.775h0a.358.358,0,0,1-.341.02,11.942,11.942,0,0,0-1.779-.992.243.243,0,0,1-.118-.218V54.389a1.419,1.419,0,0,0-1.053-1.371,14.767,14.767,0,0,0-7.775.007,1.419,1.419,0,0,0-1.052,1.37v1.54a.241.241,0,0,1-.116.217,12.012,12.012,0,0,0-1.78.991.357.357,0,0,1-.344-.02l-1.38-.77h0a1.427,1.427,0,0,0-1.67.212,14.075,14.075,0,0,0-3.912,6.562,1.419,1.419,0,0,0,.679,1.6l1.538.858a10.508,10.508,0,0,0,0,2.2l-1.538.858a1.42,1.42,0,0,0-.679,1.606,14.08,14.08,0,0,0,3.905,6.564,1.418,1.418,0,0,0,1.67.211Zm-.419-8.745a8.081,8.081,0,0,1,0-3.192,1.42,1.42,0,0,0-.7-1.507l-1.379-.77h0a11.245,11.245,0,0,1,2.078-3.454l.424.236a3.194,3.194,0,0,0,3.315-.1,9.071,9.071,0,0,1,1.361-.758,3.073,3.073,0,0,0,1.786-2.8v-.4a11.832,11.832,0,0,1,1.949-.191,11.493,11.493,0,0,1,2.255.186v.409a3.073,3.073,0,0,0,1.788,2.8,9.071,9.071,0,0,1,1.361.759,3.191,3.191,0,0,0,3.313.1l.431-.241a11.264,11.264,0,0,1,2.073,3.458l-1.379.77h0a1.419,1.419,0,0,0-.7,1.5,8.111,8.111,0,0,1,0,3.2,1.419,1.419,0,0,0,.7,1.5l1.379.77h0a11.271,11.271,0,0,1-2.078,3.454l-.424-.237a3.192,3.192,0,0,0-3.316.106,9.135,9.135,0,0,1-1.359.757,3.07,3.07,0,0,0-1.786,2.8v.4a11.752,11.752,0,0,1-4.2,0v-.409a3.073,3.073,0,0,0-1.788-2.8,9.142,9.142,0,0,1-1.359-.758,3.194,3.194,0,0,0-3.314-.105l-.431.241a11.261,11.261,0,0,1-2.073-3.457l1.379-.77h0a1.42,1.42,0,0,0,.7-1.507Z" transform="translate(-262.505 -52.5)" fill="#2d2f79"/>
        <path id="Path_6476" data-name="Path 6476" d="M317.927,114.134a6.216,6.216,0,1,0-4.387-1.821,6.208,6.208,0,0,0,4.387,1.821Zm0-9.578a3.374,3.374,0,1,1-2.382.988,3.37,3.37,0,0,1,2.382-.988Z" transform="translate(-303.738 -93.736)" fill="#2d2f79"/>
      </g>
      <path id="Path_6477" data-name="Path 6477" d="M242.672,56.593a23.948,23.948,0,1,0-16.907-7.014A23.923,23.923,0,0,0,242.672,56.593Zm0-44.654a20.756,20.756,0,1,1-14.653,6.079A20.732,20.732,0,0,1,242.672,11.94Z" transform="translate(-193.234 -8.75)" fill="#2d2f79"/>
      <path id="Path_6480" data-name="Path 6480" d="M88.319,465.387a9.58,9.58,0,1,0-6.763-2.806A9.57,9.57,0,0,0,88.319,465.387Zm0-15.948a6.386,6.386,0,1,1-4.509,1.87A6.382,6.382,0,0,1,88.319,449.44Z" transform="translate(-78.75 -366.512)" fill="#2d2f79"/>
      <path id="Path_6481" data-name="Path 6481" d="M316.637,463.792V447.845a1.594,1.594,0,0,0-1.595-1.595H299.095a1.594,1.594,0,0,0-1.595,1.595v15.948a1.594,1.594,0,0,0,1.595,1.595h15.948a1.594,1.594,0,0,0,1.595-1.595Zm-3.189-1.595H300.69V449.44h12.758Z" transform="translate(-257.631 -366.512)" fill="#2d2f79"/>
      <path id="Path_6482" data-name="Path 6482" d="M511.277,447.267a1.659,1.659,0,0,0-2.735,0l-9.569,15.948a1.6,1.6,0,0,0,1.368,2.416h19.137a1.6,1.6,0,0,0,1.368-2.416Zm-8.119,15.174,6.751-11.253,6.751,11.253Z" transform="translate(-422.198 -366.753)" fill="#2d2f79"/>
      <path id="Path_6483" data-name="Path 6483" d="M203.833,314.266V301.508a1.595,1.595,0,0,0-1.595-1.595h-36.68V288.75h-3.19v11.163H124.095a1.595,1.595,0,0,0-1.595,1.595v12.758h3.19V303.1h36.68v11.163h3.19V303.1h35.085v11.163Z" transform="translate(-114.527 -237.718)" fill="#2d2f79"/>
    </g>
  </g>
</svg>
