<svg xmlns="http://www.w3.org/2000/svg" xmlns:xlink="http://www.w3.org/1999/xlink" width="100" height="100" viewBox="0 0 100 100">
  <defs>
    <clipPath id="clip-icon_67">
      <rect width="100" height="100"/>
    </clipPath>
  </defs>
  <g id="icon_67" data-name="icon – 67" clip-path="url(#clip-icon_67)">
    <g id="Group_2468" data-name="Group 2468" transform="translate(3352.708 5513.653)">
      <path id="Path_6562" data-name="Path 6562" d="M77.73,171.84a3.858,3.858,0,0,0-3.865,3.842v65.324a3.858,3.858,0,0,0,3.865,3.842h83.12a3.858,3.858,0,0,0,3.865-3.842v-53.8a3.858,3.858,0,0,0-3.865-3.842H107.733a4.024,4.024,0,0,1-3.147-1.5l-7.49-9.307a1.92,1.92,0,0,0-1.5-.716Zm83.12,76.849H77.73A7.716,7.716,0,0,1,70,241V175.681A7.716,7.716,0,0,1,77.73,168H95.593a5.78,5.78,0,0,1,4.522,2.16l7.49,9.307,53.245.061a7.716,7.716,0,0,1,7.732,7.685V241a7.716,7.716,0,0,1-7.732,7.685Z" transform="translate(-3421.998 -5671.996)" fill="#2d2f79" fill-rule="evenodd"/>
      <line id="Line_714" data-name="Line 714" x2="94" transform="translate(-3349.5 -5478.5)" fill="none" stroke="#2d2f79" stroke-width="3"/>
      <g id="Group_2467" data-name="Group 2467" transform="translate(-0.277)">
        <g id="Group_2466" data-name="Group 2466" transform="translate(-1)">
          <rect id="Rectangle_4508" data-name="Rectangle 4508" width="10.29" height="3" rx="1" transform="translate(-3313 -5463.863)" fill="#2d2f79"/>
          <rect id="Rectangle_4509" data-name="Rectangle 4509" width="16.486" height="3" rx="1" transform="translate(-3313 -5455.043)" fill="#2d2f79"/>
          <rect id="Rectangle_4510" data-name="Rectangle 4510" width="23.08" height="3" rx="1" transform="translate(-3313 -5446.223)" fill="#2d2f79"/>
        </g>
        <path id="Path_6564" data-name="Path 6564" d="M4.893-7.686v-4.6c0-1.05.5-1.638,1.554-1.638h.525v-1.659H6.048c-2.1,0-3.171,1.071-3.171,3.108v4.83c0,.735-.357,1.05-.945,1.05H1.2v1.68h.735c.588,0,.945.315.945,1.05V.966C2.877,3,3.948,4.074,6.048,4.074h.924V2.415H6.447c-1.05,0-1.554-.588-1.554-1.638v-4.6c0-1.2-.378-1.68-1.155-1.932C4.515-6.006,4.893-6.489,4.893-7.686Z" transform="translate(-3329.92 -5454)" fill="#2d2f79"/>
        <path id="Path_6563" data-name="Path 6563" d="M4.893-7.314v4.6c0,1.05.5,1.638,1.554,1.638h.525V.582H6.048c-2.1,0-3.171-1.071-3.171-3.108v-4.83c0-.735-.357-1.05-.945-1.05H1.2v-1.68h.735c.588,0,.945-.315.945-1.05v-4.83c0-2.037,1.071-3.108,3.171-3.108h.924v1.659H6.447c-1.05,0-1.554.588-1.554,1.638v4.6c0,1.2-.378,1.68-1.155,1.932C4.515-8.994,4.893-8.511,4.893-7.314Z" transform="translate(-3275 -5453) rotate(180)" fill="#2d2f79"/>
      </g>
    </g>
  </g>
</svg>
