<svg xmlns="http://www.w3.org/2000/svg" xmlns:xlink="http://www.w3.org/1999/xlink" width="100" height="100" viewBox="0 0 100 100">
  <defs>
    <clipPath id="clip-icon_31">
      <rect width="100" height="100"/>
    </clipPath>
  </defs>
  <g id="icon_31" data-name="icon – 31" clip-path="url(#clip-icon_31)">
    <g id="Group_2440" data-name="Group 2440" transform="translate(1.052 1)">
      <g id="Group_2396" data-name="Group 2396" transform="translate(20.841 25.308)">
        <path id="Path_6317" data-name="Path 6317" d="M197.629,257.986l-15.034-13.1a2.616,2.616,0,0,0-3.413,3.966l12.729,11.161-12.822,11.069a2.621,2.621,0,0,0-.277,3.689,2.963,2.963,0,0,0,2.029.923,2.587,2.587,0,0,0,1.753-.646l15.035-13.1a2.644,2.644,0,0,0,.923-2.029,2.6,2.6,0,0,0-.923-1.937Z" transform="translate(-178.183 -244.258)" fill="#2c2c78"/>
        <path id="Path_6318" data-name="Path 6318" d="M315.431,403.2H299.474a2.675,2.675,0,0,0,0,5.349h16.05a2.676,2.676,0,0,0,2.675-2.675,2.82,2.82,0,0,0-2.767-2.675Z" transform="translate(-277.261 -377.02)" fill="#2c2c78"/>
      </g>
      <path id="Path_6485" data-name="Path 6485" d="M226.874,16.547A41.744,41.744,0,1,1,185.13,58.291,41.743,41.743,0,0,1,226.874,16.547Zm0,77.064a35.322,35.322,0,1,0-35.322-35.322A35.343,35.343,0,0,0,226.874,93.611Z" transform="translate(-185.13 -16.547)" fill="#2c2c78" stroke="#f2f7ff" stroke-width="1"/>
      <g id="Rectangle_4471" data-name="Rectangle 4471" transform="translate(67.604 74.972) rotate(-45)" fill="#2c2c78" stroke="#f2f7ff" stroke-width="1">
        <rect width="7.444" height="35.395" rx="3.722" stroke="none"/>
        <rect x="0.5" y="0.5" width="6.444" height="34.395" rx="3.222" fill="none"/>
      </g>
    </g>
  </g>
</svg>
