<svg xmlns="http://www.w3.org/2000/svg" xmlns:xlink="http://www.w3.org/1999/xlink" width="100" height="100" viewBox="0 0 100 100">
  <defs>
    <clipPath id="clip-icon_14">
      <rect width="100" height="100"/>
    </clipPath>
  </defs>
  <g id="icon_14" data-name="icon – 14" clip-path="url(#clip-icon_14)">
    <path id="Path_6547" data-name="Path 6547" d="M-3005.461-6065.347h-16.187v17.844h91.005v-17.844h-15.55" transform="translate(3026.146 6116.573)" fill="none" stroke="#2b2d79" stroke-linecap="round" stroke-width="4"/>
    <path id="Path_6548" data-name="Path 6548" d="M-3005.461-6065.347h-16.187v17.844h91.005v-17.844h-74.818Z" transform="translate(3026.146 6144.925)" fill="none" stroke="#2b2d79" stroke-linecap="round" stroke-linejoin="round" stroke-width="4"/>
    <path id="Path_6543" data-name="Path 6543" d="M196.568,39.127,184.01,26.568a.984.984,0,0,0-.733-.314h-30.5a4.06,4.06,0,0,0-4.039,4.039l.143,30.255a1.047,1.047,0,0,0,2.093,0l-.143-30.255a1.946,1.946,0,0,1,1.946-1.946h29.45V39.859a1.046,1.046,0,0,0,1.047,1.047h11.512V79.785a1.946,1.946,0,0,1-1.946,1.946H152.781a1.946,1.946,0,0,1-1.946-1.946l.142-20.946a1.047,1.047,0,1,0-2.093,0l-.142,20.946a4.06,4.06,0,0,0,4.039,4.039h40.061a4.06,4.06,0,0,0,4.039-4.039V39.859a.984.984,0,0,0-.314-.733Zm-12.245-9.293,8.979,8.979h-8.979Z" transform="translate(-122.744 -23.676)" fill="#2d2f79" stroke="#2b2d79" stroke-width="1.8"/>
    <path id="Path_6544" data-name="Path 6544" d="M186.624,250.217l-6.526-5.685a1.135,1.135,0,0,0-1.481,1.721l5.525,4.845-5.565,4.8a1.138,1.138,0,0,0-.12,1.6,1.286,1.286,0,0,0,.881.4,1.123,1.123,0,0,0,.761-.28l6.526-5.685a1.147,1.147,0,0,0,.4-.881,1.127,1.127,0,0,0-.4-.841Z" transform="translate(-121.062 -216.68)" fill="#2d2f79" stroke="#2d2f79" stroke-width="0.2"/>
    <path id="Path_6546" data-name="Path 6546" d="M178.584,250.217l6.526-5.685a1.135,1.135,0,0,1,1.481,1.721l-5.525,4.845,5.565,4.8a1.138,1.138,0,0,1,.12,1.6,1.286,1.286,0,0,1-.881.4,1.123,1.123,0,0,1-.761-.28l-6.526-5.685a1.147,1.147,0,0,1-.4-.881,1.127,1.127,0,0,1,.4-.841Z" transform="translate(-144.012 -216.68)" fill="#2d2f79" stroke="#2d2f79" stroke-width="0.2"/>
    <path id="Path_6545" data-name="Path 6545" d="M314.341,402.643l-16.381.557a1.161,1.161,0,1,0,0,2.322l16.421-.557a1.162,1.162,0,0,0,1.161-1.161A1.224,1.224,0,0,0,314.341,402.643Z" transform="matrix(-0.469, 0.883, -0.883, -0.469, 550.589, -46.213)" fill="#2d2f79" stroke="#2d2f79" stroke-width="0.2"/>
    <g id="Group_2452" data-name="Group 2452" transform="translate(3015.205 6238.078)">
      <path id="Path_6553" data-name="Path 6553" d="M167.86,457.265A2.263,2.263,0,1,1,165.6,455,2.265,2.265,0,0,1,167.86,457.265Z" transform="translate(-3164.542 -6607.002)" fill="#2d2f79"/>
      <path id="Path_6552" data-name="Path 6552" d="M214.523,457.265A2.263,2.263,0,1,1,212.261,455a2.263,2.263,0,0,1,2.262,2.263Z" transform="translate(-3202.155 -6607.002)" fill="#2d2f79"/>
      <path id="Path_6551" data-name="Path 6551" d="M261.193,457.265A2.263,2.263,0,1,1,258.93,455,2.265,2.265,0,0,1,261.193,457.265Z" transform="translate(-3239.773 -6607.002)" fill="#2d2f79"/>
      <path id="Path_6549" data-name="Path 6549" d="M515.037,443.179a1.653,1.653,0,0,0-1.229.6,2.149,2.149,0,0,0-.494,1.419v3.981a1.765,1.765,0,1,0,3.5,0V445.2a2.147,2.147,0,0,0-.512-1.44A1.646,1.646,0,0,0,515.037,443.179Z" transform="translate(-3446.639 -6597.179)" fill="#2d2f79"/>
      <path id="Path_6550" data-name="Path 6550" d="M468.407,443.179a1.655,1.655,0,0,0-1.23.6,2.15,2.15,0,0,0-.494,1.419v3.981a1.765,1.765,0,1,0,3.5,0V445.2a2.147,2.147,0,0,0-.512-1.44A1.646,1.646,0,0,0,468.407,443.179Z" transform="translate(-3409.053 -6597.179)" fill="#2d2f79"/>
    </g>
  </g>
</svg>
