<svg xmlns="http://www.w3.org/2000/svg" xmlns:xlink="http://www.w3.org/1999/xlink" width="100" height="100" viewBox="0 0 100 100">
  <defs>
    <clipPath id="clip-icon_10">
      <rect width="100" height="100"/>
    </clipPath>
  </defs>
  <g id="icon_10" data-name="icon – 10" clip-path="url(#clip-icon_10)">
    <g id="Group_2419" data-name="Group 2419" transform="translate(2.48 0.932)">
      <g id="noun-programming-2997687" transform="translate(0 0)">
        <path id="Path_6378" data-name="Path 6378" d="M107.265,268.329A2.263,2.263,0,0,0,105,270.592v18.1a2.263,2.263,0,0,0,2.263,2.263h90.513a2.263,2.263,0,0,0,2.263-2.263v-18.1a2.263,2.263,0,0,0-2.263-2.263H184.2a2.263,2.263,0,1,0,0,4.526h11.315v13.577H109.526V272.855h11.315a2.263,2.263,0,1,0,0-4.526Z" transform="translate(-105.002 -223.072)" fill="#2d2f79"/>
        <path id="Path_6384" data-name="Path 6384" d="M223.919,35a2.263,2.263,0,0,0-2.265,2.263V91.57a2.262,2.262,0,0,0,2.265,2.262h45.26a2.263,2.263,0,0,0,2.262-2.262V50.844a2.262,2.262,0,0,0-.668-1.6L257.2,35.661A2.265,2.265,0,0,0,255.6,35Zm2.263,4.528h27.154v6.786a6.824,6.824,0,0,0,6.789,6.789h6.791v36.2H226.182Zm31.679,3.2,5.852,5.849h-3.589a2.21,2.21,0,0,1-2.263-2.263Z" transform="translate(-199.029 -35)" fill="#2d2f79"/>
        <path id="Path_6385" data-name="Path 6385" d="M275.052,163.227a2.265,2.265,0,0,0-1.554.685l-4.527,4.519h0a2.261,2.261,0,0,0,0,3.207l4.527,4.527h0a2.265,2.265,0,0,0,3.2-3.207l-2.923-2.923,2.923-2.923h0a2.264,2.264,0,0,0-1.646-3.884Z" transform="translate(-236.631 -138.355)" fill="#2d2f79"/>
        <path id="Path_6386" data-name="Path 6386" d="M333.458,151.52a2.263,2.263,0,0,0-2.171,1.578l-4.527,13.572h0a2.263,2.263,0,1,0,4.293,1.436l4.527-13.58h0a2.263,2.263,0,0,0-2.121-3.006Z" transform="translate(-283.654 -128.919)" fill="#2d2f79"/>
        <path id="Path_6387" data-name="Path 6387" d="M387.164,163.23a2.263,2.263,0,0,0-1.57,3.884l2.923,2.923-2.923,2.923h0a2.265,2.265,0,1,0,3.2,3.207l4.527-4.527a2.264,2.264,0,0,0,0-3.207l-4.527-4.519a2.265,2.265,0,0,0-1.629-.685Z" transform="translate(-330.62 -138.358)" fill="#2d2f79"/>
      </g>
      <g id="Group_2314" data-name="Group 2314" transform="translate(0 75.511)">
        <path id="Path_6378-2" data-name="Path 6378" d="M107.266,278.4A2.263,2.263,0,0,0,105,280.662v18.1a2.263,2.263,0,0,0,2.263,2.263h90.51a2.263,2.263,0,0,0,2.263-2.263v-18.1a2.263,2.263,0,0,0-2.263-2.263h-90.51Zm2.262,4.527h85.983V296.5H109.528Z" transform="translate(-105.003 -278.399)" fill="#2d2f79"/>
        <path id="Path_6379" data-name="Path 6379" d="M167.86,457.265A2.263,2.263,0,1,1,165.6,455,2.265,2.265,0,0,1,167.86,457.265Z" transform="translate(-152.022 -445.951)" fill="#2d2f79"/>
        <path id="Path_6380" data-name="Path 6380" d="M214.523,457.265A2.263,2.263,0,1,1,212.261,455a2.263,2.263,0,0,1,2.262,2.263Z" transform="translate(-189.635 -445.951)" fill="#2d2f79"/>
        <path id="Path_6381" data-name="Path 6381" d="M261.193,457.265A2.263,2.263,0,1,1,258.93,455,2.265,2.265,0,0,1,261.193,457.265Z" transform="translate(-227.253 -445.951)" fill="#2d2f79"/>
        <path id="Path_6382" data-name="Path 6382" d="M515.543,443.179a2.264,2.264,0,0,0-2.23,2.3v4.518a2.263,2.263,0,1,0,4.527,0v-4.518a2.263,2.263,0,0,0-2.3-2.3Z" transform="translate(-434.12 -436.422)" fill="#2d2f79"/>
        <path id="Path_6383" data-name="Path 6383" d="M468.912,443.179a2.262,2.262,0,0,0-2.23,2.3v4.518a2.263,2.263,0,1,0,4.526,0v-4.518a2.262,2.262,0,0,0-2.3-2.3Z" transform="translate(-396.534 -436.422)" fill="#2d2f79"/>
      </g>
    </g>
  </g>
</svg>
