<svg xmlns="http://www.w3.org/2000/svg" xmlns:xlink="http://www.w3.org/1999/xlink" width="100" height="100" viewBox="0 0 100 100">
  <defs>
    <clipPath id="clip-icon_11">
      <rect width="100" height="100"/>
    </clipPath>
  </defs>
  <g id="icon_11" data-name="icon – 11" clip-path="url(#clip-icon_11)">
    <g id="noun-file-database-1128340" transform="translate(7.962 0.543)">
      <path id="Path_6388" data-name="Path 6388" d="M413.963,81.823H424.82L413.963,70.966Zm14.837,3.3H412.314a1.648,1.648,0,0,1-1.648-1.648V66.986a1.648,1.648,0,0,1,2.814-1.166l16.486,16.486A1.648,1.648,0,0,1,428.8,85.12Z" transform="translate(-357.912 -53.797)" fill="#2b2d79" fill-rule="evenodd"/>
      <path id="Path_6389" data-name="Path 6389" d="M133.431,301.963c-11.733,0-18.133,3.268-18.133,4.946s6.4,4.946,18.133,4.946,18.135-3.267,18.135-4.946-6.4-4.946-18.135-4.946m0,13.189c-10.65,0-21.431-2.83-21.431-8.243s10.781-8.242,21.431-8.242,21.432,2.83,21.432,8.242-10.782,8.243-21.432,8.243" transform="translate(-112 -245.912)" fill="#2b2d79" fill-rule="evenodd"/>
      <path id="Path_6390" data-name="Path 6390" d="M133.431,467.783c-10.65,0-21.431-2.83-21.431-8.243v-9.891a1.649,1.649,0,0,1,3.3,0v9.891c0,1.679,6.4,4.946,18.133,4.946s18.135-3.267,18.135-4.946v-9.891a1.649,1.649,0,0,1,3.3,0v9.891c0,5.413-10.782,8.243-21.432,8.243" transform="translate(-112 -368.869)" fill="#2b2d79" fill-rule="evenodd"/>
      <path id="Path_6391" data-name="Path 6391" d="M133.431,411.783c-10.65,0-21.431-2.83-21.431-8.243v-9.891a1.649,1.649,0,0,1,3.3,0v9.891c0,1.679,6.4,4.946,18.133,4.946s18.135-3.267,18.135-4.946v-9.891a1.649,1.649,0,0,1,3.3,0v9.891c0,5.413-10.782,8.243-21.432,8.243" transform="translate(-112 -322.76)" fill="#2b2d79" fill-rule="evenodd"/>
      <path id="Path_6392" data-name="Path 6392" d="M133.431,355.783c-10.65,0-21.431-2.83-21.431-8.243v-9.891a1.649,1.649,0,0,1,3.3,0v9.891c0,1.679,6.4,4.946,18.133,4.946s18.135-3.267,18.135-4.946v-9.891a1.649,1.649,0,0,1,3.3,0v9.891c0,5.413-10.782,8.243-21.432,8.243" transform="translate(-112 -276.651)" fill="#2b2d79" fill-rule="evenodd"/>
      <path id="Path_6393" data-name="Path 6393" d="M479.3,16.488h10.857L479.3,5.631Zm14.837,3.3H477.65A1.648,1.648,0,0,1,476,18.137V1.651A1.648,1.648,0,0,1,478.816.486L495.3,16.971a1.648,1.648,0,0,1-1.165,2.814Z" transform="translate(-411.708 -0.003)" fill="#2b2d79" fill-rule="evenodd"/>
      <path id="Path_6394" data-name="Path 6394" d="M211.975,147.76H183.949a1.649,1.649,0,0,1,0-3.3h28.026V84.148L196.455,68.629H152.626v41.254a1.649,1.649,0,0,1-3.3,0V68.629a3.3,3.3,0,0,1,3.3-3.3h43.829a3.273,3.273,0,0,1,2.331.966l15.52,15.52a3.274,3.274,0,0,1,.966,2.331v60.314a3.3,3.3,0,0,1-3.3,3.3" transform="translate(-142.736 -53.792)" fill="#2b2d79" fill-rule="evenodd"/>
      <path id="Path_6395" data-name="Path 6395" d="M269.07,79.13h8.242V18.816L261.793,3.3H217.964v8.242h32.288a3.274,3.274,0,0,1,2.331.966l15.52,15.52a3.274,3.274,0,0,1,.966,2.331Zm8.242,3.3h-9.891a1.648,1.648,0,0,1-1.648-1.649V30.355L250.253,14.836H216.315a1.648,1.648,0,0,1-1.648-1.648V3.3a3.3,3.3,0,0,1,3.3-3.3h43.829a3.277,3.277,0,0,1,2.331.966l15.519,15.519a3.276,3.276,0,0,1,.966,2.331V79.13a3.3,3.3,0,0,1-3.3,3.3Z" transform="translate(-196.533 0.001)" fill="#2b2d79" fill-rule="evenodd"/>
    </g>
  </g>
</svg>
