<svg xmlns="http://www.w3.org/2000/svg" xmlns:xlink="http://www.w3.org/1999/xlink" width="100" height="100" viewBox="0 0 100 100">
  <defs>
    <clipPath id="clip-icon_32">
      <rect width="100" height="100"/>
    </clipPath>
  </defs>
  <g id="icon_32" data-name="icon – 32" clip-path="url(#clip-icon_32)">
    <g id="Group_2439" data-name="Group 2439" transform="translate(0.64 11.506)">
      <g id="Group_2399" data-name="Group 2399" transform="translate(0)">
        <path id="Path_6499" data-name="Path 6499" d="M172.7,8.75H105.82a4.776,4.776,0,0,0-4.777,4.777V19.9H94.674A4.776,4.776,0,0,0,89.9,24.673v6.369H83.528a4.776,4.776,0,0,0-4.777,4.777V80.4a4.776,4.776,0,0,0,4.777,4.777c24.519.434,62.612,1,66.875,0A4.776,4.776,0,0,0,155.18,80.4V74.034h6.369a4.776,4.776,0,0,0,4.777-4.777V62.888H172.7a4.776,4.776,0,0,0,4.777-4.777V13.527A4.776,4.776,0,0,0,172.7,8.751ZM152,80.4a1.592,1.592,0,0,1-1.592,1.592c-6.735.386-13.283,1.889-66.876,0A1.592,1.592,0,0,1,81.935,80.4V35.818a1.592,1.592,0,0,1,1.592-1.592H150.4a1.592,1.592,0,0,1,1.592,1.592Zm11.146-11.146a1.592,1.592,0,0,1-1.592,1.592H155.18V35.819a4.776,4.776,0,0,0-4.777-4.777H93.082V24.673a1.592,1.592,0,0,1,1.592-1.592H161.55a1.592,1.592,0,0,1,1.592,1.592ZM174.288,58.11A1.592,1.592,0,0,1,172.7,59.7h-6.369V24.673A4.776,4.776,0,0,0,161.55,19.9H104.228V13.527a1.592,1.592,0,0,1,1.592-1.592H172.7a1.592,1.592,0,0,1,1.592,1.592Z" transform="translate(-78.752 -8.75)" fill="#2d2f79"/>
        <circle id="Ellipse_1038" data-name="Ellipse 1038" cx="2.351" cy="2.351" r="2.351" transform="translate(57.426 27.96)" fill="#2d2f79"/>
        <circle id="Ellipse_1040" data-name="Ellipse 1040" cx="2.351" cy="2.351" r="2.351" transform="translate(50.374 27.96)" fill="#2d2f79"/>
        <circle id="Ellipse_1039" data-name="Ellipse 1039" cx="2.351" cy="2.351" r="2.351" transform="translate(64.478 27.96)" fill="#2d2f79"/>
      </g>
      <g id="Group_2400" data-name="Group 2400" transform="translate(8.06 30.311)">
        <rect id="Rectangle_4479" data-name="Rectangle 4479" width="12.782" height="2.125" rx="1" transform="translate(15.133 16.364) rotate(180)" fill="#2d2f79"/>
        <rect id="Rectangle_4484" data-name="Rectangle 4484" width="22.716" height="2.125" rx="1" transform="translate(53.672 27.638) rotate(180)" fill="#2d2f79"/>
        <rect id="Rectangle_4480" data-name="Rectangle 4480" width="12.782" height="2.125" rx="1" transform="translate(15.133 21.469) rotate(180)" fill="#2d2f79"/>
        <rect id="Rectangle_4483" data-name="Rectangle 4483" width="17.484" height="2.125" rx="1" transform="translate(50.791 32.743) rotate(180)" fill="#2d2f79"/>
        <rect id="Rectangle_4481" data-name="Rectangle 4481" width="12.782" height="2.125" rx="1" transform="translate(15.133 26.575) rotate(180)" fill="#2d2f79"/>
        <rect id="Rectangle_4482" data-name="Rectangle 4482" width="12.782" height="2.125" rx="1" transform="translate(48.44 37.849) rotate(180)" fill="#2d2f79"/>
        <rect id="Rectangle_4477" data-name="Rectangle 4477" width="59.813" height="1.956" rx="0.978" transform="translate(59.813 11.304) rotate(180)" fill="#2d2f79"/>
        <rect id="Rectangle_4478" data-name="Rectangle 4478" width="28.938" height="1.956" rx="0.978" transform="translate(18.351 38.286) rotate(-90)" fill="#2d2f79"/>
        <g id="Rectangle_4485" data-name="Rectangle 4485" transform="translate(30.56 14.105)" fill="none" stroke="#2d2f79" stroke-width="1.5">
          <rect width="23.508" height="9.403" rx="1" stroke="none"/>
          <rect x="0.75" y="0.75" width="22.008" height="7.903" rx="0.25" fill="none"/>
        </g>
        <g id="Rectangle_4486" data-name="Rectangle 4486" transform="translate(0)" fill="none" stroke="#2d2f79" stroke-width="1.5">
          <rect width="18.806" height="7.052" rx="1" stroke="none"/>
          <rect x="0.75" y="0.75" width="17.306" height="5.552" rx="0.25" fill="none"/>
        </g>
      </g>
    </g>
  </g>
</svg>
