<svg xmlns="http://www.w3.org/2000/svg" xmlns:xlink="http://www.w3.org/1999/xlink" width="100" height="100" viewBox="0 0 100 100">
  <defs>
    <clipPath id="clip-icon_36">
      <rect width="100" height="100"/>
    </clipPath>
  </defs>
  <g id="icon_36" data-name="icon – 36" clip-path="url(#clip-icon_36)">
    <g id="Group_2442" data-name="Group 2442" transform="translate(1 2)">
      <path id="Path_6509" data-name="Path 6509" d="M437.577,355.6a11.006,11.006,0,1,0,11.006,11.006A11.019,11.019,0,0,0,437.577,355.6Zm0,18.537a7.53,7.53,0,1,1,7.53-7.531A7.539,7.539,0,0,1,437.577,374.137Z" transform="translate(-361.288 -293.601)" fill="#2c2c78"/>
      <path id="Path_6510" data-name="Path 6510" d="M205.342,278.788a1.092,1.092,0,0,1-.773-1.867,4.575,4.575,0,0,0,0-6.461l-2.55-2.55a4.572,4.572,0,0,0-6.461,0,1.092,1.092,0,0,1-1.867-.773,4.574,4.574,0,0,0-4.569-4.569h-3.607a4.546,4.546,0,0,0-1.764.356,20.264,20.264,0,0,0-17.478-10.017H133.814a20.274,20.274,0,0,0-19.943,16.614l-2.813,15.324a1.74,1.74,0,0,0,1.71,2.052h51.958v.065a4.574,4.574,0,0,0,4.569,4.569,1.092,1.092,0,0,1,.773,1.867,4.573,4.573,0,0,0,0,6.461l2.55,2.551a4.577,4.577,0,0,0,6.461,0,1.092,1.092,0,0,1,1.867.773,4.574,4.574,0,0,0,4.569,4.569h3.607a4.574,4.574,0,0,0,4.569-4.569,1.092,1.092,0,0,1,1.867-.773,4.572,4.572,0,0,0,6.461,0l2.551-2.55a4.577,4.577,0,0,0,0-6.463,1.091,1.091,0,0,1,.773-1.865,4.574,4.574,0,0,0,4.569-4.569v-3.607a4.575,4.575,0,0,0-4.569-4.569Zm-90.49,4.634,2.437-13.274a16.8,16.8,0,0,1,16.524-13.766h32.459a16.781,16.781,0,0,1,14.964,9.2,4.535,4.535,0,0,0-.291,1.553,1.092,1.092,0,0,1-1.867.773,4.577,4.577,0,0,0-6.461,0l-2.55,2.55a4.573,4.573,0,0,0,0,6.461,1.092,1.092,0,0,1-.773,1.867,4.574,4.574,0,0,0-4.569,4.569v.068Zm91.582,3.54a1.093,1.093,0,0,1-1.093,1.093,4.572,4.572,0,0,0-3.231,7.8,1.1,1.1,0,0,1,0,1.547l-2.55,2.55a1.1,1.1,0,0,1-1.545,0,4.571,4.571,0,0,0-7.8,3.23,1.093,1.093,0,0,1-1.093,1.093h-3.607a1.094,1.094,0,0,1-1.093-1.093,4.573,4.573,0,0,0-7.8-3.231,1.094,1.094,0,0,1-1.547,0l-2.55-2.55a1.1,1.1,0,0,1,0-1.547,4.572,4.572,0,0,0-3.231-7.8,1.094,1.094,0,0,1-1.093-1.094v-3.607a1.094,1.094,0,0,1,1.093-1.093,4.572,4.572,0,0,0,3.231-7.8,1.094,1.094,0,0,1,0-1.547l2.55-2.55a1.1,1.1,0,0,1,1.547,0,4.572,4.572,0,0,0,7.8-3.231,1.094,1.094,0,0,1,1.093-1.093h3.607a1.094,1.094,0,0,1,1.093,1.093,4.571,4.571,0,0,0,7.8,3.23,1.1,1.1,0,0,1,1.545,0l2.55,2.55a1.093,1.093,0,0,1,0,1.545,4.574,4.574,0,0,0,3.231,7.8,1.094,1.094,0,0,1,1.093,1.093Z" transform="translate(-111.029 -212.155)" fill="#2c2c78"/>
      <path id="Path_6511" data-name="Path 6511" d="M232.229,91.082A17.575,17.575,0,1,1,249.8,73.506,17.594,17.594,0,0,1,232.229,91.082Zm0-31.675a14.1,14.1,0,1,0,14.1,14.1A14.115,14.115,0,0,0,232.229,59.407Z" transform="translate(-193.215 -55.932)" fill="#2c2c78"/>
    </g>
  </g>
</svg>
