<svg xmlns="http://www.w3.org/2000/svg" xmlns:xlink="http://www.w3.org/1999/xlink" width="100" height="100" viewBox="0 0 100 100">
  <defs>
    <clipPath id="clip-icon_7">
      <rect width="100" height="100"/>
    </clipPath>
  </defs>
  <g id="icon_7" data-name="icon – 7" clip-path="url(#clip-icon_7)">
    <g id="Group_2234" data-name="Group 2234" transform="translate(5923 7403)">
      <path id="Path_6275" data-name="Path 6275" d="M201.721,96.248H167.7a1.471,1.471,0,0,0-1.471,1.471v23.638h0a1.472,1.472,0,0,0,1.471,1.471h34.017a1.472,1.472,0,0,0,1.471-1.471V97.719a1.472,1.472,0,0,0-1.471-1.471Zm-1.47,23.638H169.176v-20.7h31.075Zm1.47,5.77H167.7a1.47,1.47,0,0,0-1.471,1.47v44.226a1.471,1.471,0,0,0,1.471,1.47h34.017a1.471,1.471,0,0,0,1.471-1.47V127.127a1.471,1.471,0,0,0-1.471-1.47Zm-1.47,44.223H169.176V128.6h31.075Zm41.367-32.348H207.6A1.471,1.471,0,0,0,206.13,139v32.351a1.471,1.471,0,0,0,1.471,1.47h34.017a1.471,1.471,0,0,0,1.471-1.47V139a1.471,1.471,0,0,0-1.471-1.47Zm-1.47,32.348H209.073V140.471h31.075Zm-.956-64.961c0-.015-.029-.021-.038-.035h0a18.477,18.477,0,1,0-5.544,27.484h.027l.038-.032h0a18.408,18.408,0,0,0,5.544-27.35.407.407,0,0,0-.027-.068Zm-3.305.7-9.808,7.619V100.857A15.43,15.43,0,0,1,235.887,105.622Zm-26.815,10.622a15.5,15.5,0,0,1,14.066-15.387v15.386c0,.024.018.041.018.062a1.449,1.449,0,0,0,.17.659l7.549,13.475a15.377,15.377,0,0,1-6.266,1.344,15.555,15.555,0,0,1-15.537-15.539ZM233.439,129l-6.929-12.372,11.175-8.691A15.415,15.415,0,0,1,233.431,129Zm-14.8,15.88a1.47,1.47,0,0,1,1.47-1.471h15.622a1.471,1.471,0,0,1,0,2.941H220.114A1.47,1.47,0,0,1,218.644,144.885Zm18.563,5.881h0a1.469,1.469,0,0,1-1.47,1.47H226a1.47,1.47,0,0,1,0-2.94h9.74a1.469,1.469,0,0,1,1.47,1.47Zm-60.668-17.645a1.469,1.469,0,0,1,1.47-1.47H190.48a1.47,1.47,0,1,1,0,2.94H178.009A1.469,1.469,0,0,1,176.539,133.121Zm-4.314.555h0a1.729,1.729,0,0,1-.117-.559,1.474,1.474,0,1,1,2.529,1.029,1.129,1.129,0,0,1-.5.324,1.187,1.187,0,0,1-.558.117,1.373,1.373,0,0,1-1.029-.441,1.336,1.336,0,0,1-.324-.47ZM176.539,139a1.47,1.47,0,0,1,1.47-1.47H190.48a1.471,1.471,0,1,1,0,2.941H178.009A1.47,1.47,0,0,1,176.539,139Zm-3.991,1.056h0a1.63,1.63,0,0,1-.441-1.059,1.724,1.724,0,0,1,.117-.558,1.339,1.339,0,0,1,.324-.471,1.467,1.467,0,0,1,1.587-.323,1.126,1.126,0,0,1,.5.323,1.466,1.466,0,0,1,.412,1.029,1.411,1.411,0,0,1-1.47,1.471,1.471,1.471,0,0,1-1.029-.412Zm3.991,4.826h0a1.47,1.47,0,0,1,1.47-1.471H190.48a1.471,1.471,0,1,1,0,2.941H178.009a1.47,1.47,0,0,1-1.47-1.47Zm-4.314.555h0a1.723,1.723,0,0,1-.117-.558,1.485,1.485,0,0,1,2.529-1.03,1.467,1.467,0,0,1,.412,1.03,1.6,1.6,0,0,1-.412,1.059,1.411,1.411,0,0,1-.5.294,1.188,1.188,0,0,1-.558.117,1.471,1.471,0,0,1-1.029-.412,1.817,1.817,0,0,1-.324-.5Zm-.109-41.839h0a1.469,1.469,0,0,1,1.47-1.47H192.31a1.47,1.47,0,0,1,0,2.94H173.577a1.47,1.47,0,0,1-1.461-1.47Zm0,5.881h0a1.469,1.469,0,0,1,1.47-1.47h6.96a1.471,1.471,0,1,1,0,2.941h-6.969a1.471,1.471,0,0,1-1.461-1.471Zm15.7,50.192,6.864-8.705a1.471,1.471,0,0,1,2.312,1.821l-7.9,10a1.472,1.472,0,0,1-2.2.123l-5.265-5.3-6.876,9h0a1.472,1.472,0,0,1-2.339-1.788l7.9-10.34a1.472,1.472,0,0,1,1.073-.588,1.536,1.536,0,0,1,1.141.435Z" transform="translate(-6077.238 -7487.255)" fill="#2d2f79"/>
      <path id="Path_6274" data-name="Path 6274" d="M253.537,92.941H170.585a7.662,7.662,0,0,0-7.661,7.661v82.952a7.662,7.662,0,0,0,7.661,7.661h82.952a7.662,7.662,0,0,0,7.661-7.661V100.6a7.662,7.662,0,0,0-7.661-7.661Zm4.6,90.612a4.6,4.6,0,0,1-4.6,4.6H170.585a4.6,4.6,0,0,1-4.6-4.6V100.6a4.6,4.6,0,0,1,4.6-4.6h82.952a4.6,4.6,0,0,1,4.6,4.6Z" transform="translate(-6084.924 -7494.941)" fill="#2d2f79"/>
    </g>
  </g>
</svg>
